<?xml version="1.0" encoding="UTF-8"?>
<svg xmlns="http://www.w3.org/2000/svg" width="892" height="512" xmlns:xlink="http://www.w3.org/1999/xlink" viewBox="0 0 892 512">
  <defs>
    <style>
      .cls-1 {
        fill: url(#radial-gradient-4);
        opacity: .75;
      }

      * { 
        stroke-width: 0px;
      }

      .cls-2 {
        fill: #fffffc;
      }

      .cls-90 {
        clip-path: url(#clippath);
      }

      .cls-4 {
        fill: #fae100;
      }

      .cls-5 {
        fill: url(#linear-gradient);
      }

      .cls-6 {
        fill: url(#radial-gradient);
      }

      .cls-7 {
        fill: url(#radial-gradient-34);
      }

      .cls-8 {
        fill: url(#radial-gradient-35);
      }

      .cls-9 {
        fill: url(#radial-gradient-24);
      }

      .cls-10 {
        fill: url(#radial-gradient-28);
      }

      .cls-11 {
        fill: url(#radial-gradient-23);
      }

      .cls-12 {
        fill: url(#radial-gradient-29);
      }

      .cls-13 {
        fill: url(#radial-gradient-39);
      }

      .cls-14 {
        fill: url(#radial-gradient-36);
      }

      .cls-15 {
        fill: url(#radial-gradient-26);
      }

      .cls-16 {
        fill: url(#radial-gradient-27);
      }

      .cls-17 {
        fill: url(#radial-gradient-22);
      }

      .cls-18 {
        fill: url(#radial-gradient-37);
      }

      .cls-19 {
        fill: url(#radial-gradient-32);
      }

      .cls-20 {
        fill: url(#radial-gradient-33);
      }

      .cls-21 {
        fill: url(#radial-gradient-31);
      }

      .cls-22 {
        fill: url(#radial-gradient-38);
      }

      .cls-23 {
        fill: url(#radial-gradient-40);
      }

      .cls-24 {
        fill: url(#radial-gradient-30);
      }

      .cls-25 {
        fill: url(#radial-gradient-46);
      }

      .cls-26 {
        fill: url(#radial-gradient-45);
      }

      .cls-27 {
        fill: url(#radial-gradient-57);
      }

      .cls-28 {
        fill: url(#radial-gradient-58);
      }

      .cls-29 {
        fill: url(#radial-gradient-43);
      }

      .cls-30 {
        fill: url(#radial-gradient-44);
      }

      .cls-31 {
        fill: url(#radial-gradient-49);
      }

      .cls-32 {
        fill: url(#radial-gradient-55);
      }

      .cls-33 {
        fill: url(#radial-gradient-41);
      }

      .cls-34 {
        fill: url(#radial-gradient-42);
      }

      .cls-35 {
        fill: url(#radial-gradient-50);
      }

      .cls-36 {
        fill: url(#radial-gradient-56);
      }

      .cls-37 {
        fill: url(#radial-gradient-25);
      }

      .cls-38 {
        fill: url(#radial-gradient-54);
      }

      .cls-39 {
        fill: url(#radial-gradient-59);
      }

      .cls-40 {
        fill: url(#radial-gradient-53);
      }

      .cls-41 {
        fill: url(#radial-gradient-52);
      }

      .cls-42 {
        fill: url(#radial-gradient-51);
      }

      .cls-43 {
        fill: url(#radial-gradient-20);
      }

      .cls-44 {
        fill: url(#radial-gradient-21);
      }

      .cls-45 {
        fill: url(#radial-gradient-47);
      }

      .cls-46 {
        fill: url(#radial-gradient-48);
      }

      .cls-47 {
        fill: url(#radial-gradient-14);
      }

      .cls-48 {
        fill: url(#radial-gradient-13);
      }

      .cls-49 {
        fill: url(#radial-gradient-12);
      }

      .cls-50 {
        fill: url(#radial-gradient-15);
      }

      .cls-51 {
        fill: url(#radial-gradient-16);
      }

      .cls-52 {
        fill: url(#radial-gradient-11);
      }

      .cls-53 {
        fill: url(#radial-gradient-19);
      }

      .cls-54 {
        fill: url(#radial-gradient-18);
      }

      .cls-55 {
        fill: url(#radial-gradient-17);
      }

      .cls-56 {
        fill: url(#radial-gradient-10);
      }

      .cls-57 {
        fill: url(#radial-gradient-62);
      }

      .cls-58 {
        fill: url(#radial-gradient-61);
      }

      .cls-59 {
        fill: url(#radial-gradient-65);
      }

      .cls-60 {
        fill: url(#radial-gradient-60);
      }

      .cls-61 {
        fill: url(#radial-gradient-63);
      }

      .cls-62 {
        fill: url(#radial-gradient-64);
      }

      .cls-63 {
        fill: url(#radial-gradient-66);
      }

      .cls-64 {
        fill: url(#Clouds_yellow-2);
      }

      .cls-65 {
        fill: url(#Clouds_yellow);
      }

      .cls-91 {
        fill: none;
        stroke: #53c4f1;
        stroke-miterlimit: 10;
        stroke-width: 2.92px;
      }

      .cls-66 {
        fill: #10131e;
      }

      .cls-93 {
        clip-path: url(#clippath-1);
      }

      .cls-67, .cls-77 {
        fill: #53c4f1;
      }

      .cls-68 {
        fill: #f7971f;
      }

      .cls-69 {
        fill: #fee100;
      }

      .cls-70 {
        fill: url(#radial-gradient-2);
      }

      .cls-71 {
        fill: url(#radial-gradient-3);
      }

      .cls-73 {
        fill: url(#radial-gradient-9);
      }

      .cls-74 {
        fill: url(#radial-gradient-8);
      }

      .cls-77 {
        opacity: .5;
      }

      .cls-78 {
        fill: #f3eb4b;
      }

      .cls-79 {
        fill: #faa21b;
      }

      .cls-80 {
        fill: #224084;
      }

      .cls-81 {
        fill: url(#linear-gradient-4);
      }

      .cls-82 {
        fill: url(#linear-gradient-2);
      }

      .cls-83 {
        fill: url(#linear-gradient-3);
      }

      .cls-84 {
        fill: url(#linear-gradient-7);
      }

      .cls-85 {
        fill: url(#linear-gradient-5);
      }

      .cls-86 {
        fill: url(#linear-gradient-6);
      }

      .cls-87 {
        fill: #f7ef73;
      }

      .cls-88 {
        fill: #fff;
      }

      .cls-89 {
        fill: #0d0f1d;
      }
    </style>
    <filter id="big_lightning_glow_blur">
      <feGaussianBlur in="SourceGraphic" stdDeviation="6" />
    </filter>
    <filter id="lightning_glow_bright_blur">
      <feGaussianBlur in="SourceGraphic" stdDeviation="3" />
    </filter>
    <filter id="lightning_glow_dark_blur">
      <feGaussianBlur in="SourceGraphic" stdDeviation="4.5" />
    </filter>
    <radialGradient id="radial-gradient" cx="464.05" cy="10.14" fx="464.05" fy="10.14" r="245.54" gradientUnits="userSpaceOnUse">
      <stop offset="0" stop-color="#92d6e6"/>
      <stop offset=".06" stop-color="#8fd4db"/>
      <stop offset=".13" stop-color="#76cee5"/>
      <stop offset=".18" stop-color="#28c1e4"/>
      <stop offset=".29" stop-color="#0180b3"/>
      <stop offset=".31" stop-color="#017aac"/>
      <stop offset=".61" stop-color="#0271a1" stop-opacity="0"/>
      <stop offset=".81" stop-color="#11121d" stop-opacity="0"/>
    </radialGradient>
    <radialGradient id="radial-gradient-2" cx="464.26" cy="103.02" fx="464.26" fy="103.02" r="76.82" gradientUnits="userSpaceOnUse">
      <stop offset=".87" stop-color="#f9e368"/>
      <stop offset="1" stop-color="#f9e368" stop-opacity="0"/>
    </radialGradient>
    <radialGradient id="radial-gradient-3" cx="464.74" cy="122.31" fx="464.74" fy="122.31" r="82.59" gradientUnits="userSpaceOnUse">
      <stop offset=".85" stop-color="#fff23a" stop-opacity="0"/>
      <stop offset=".86" stop-color="rgba(254, 243, 86, .17)" stop-opacity=".17"/>
      <stop offset=".87" stop-color="rgba(253, 244, 121, .39)" stop-opacity=".39"/>
      <stop offset=".88" stop-color="rgba(252, 246, 152, .58)" stop-opacity=".58"/>
      <stop offset=".89" stop-color="rgba(252, 247, 176, .73)" stop-opacity=".73"/>
      <stop offset=".9" stop-color="rgba(251, 247, 196, .85)" stop-opacity=".85"/>
      <stop offset=".91" stop-color="rgba(251, 248, 209, .93)" stop-opacity=".93"/>
      <stop offset=".93" stop-color="rgba(251, 248, 218, .98)" stop-opacity=".98"/>
      <stop offset=".93" stop-color="#fbf9dd"/>
      <stop offset=".93" stop-color="#fbf9dd"/>
      <stop offset=".96" stop-color="#fdfcef"/>
      <stop offset=".98" stop-color="#fefefb"/>
      <stop offset="1" stop-color="#fff"/>
    </radialGradient>
    <radialGradient id="radial-gradient-4" cx="454.2" cy="303.26" fx="454.2" fy="270.68" r="196.98" gradientUnits="userSpaceOnUse">
      <stop offset="0" stop-color="#28c1e4"/>
      <stop offset=".17" stop-color="#0180d3"/>
      <stop offset=".58" stop-color="#0271a1" stop-opacity="0"/>
    </radialGradient>
    <radialGradient id="radial-gradient-logo-hit-burst-1" cx="601.99" cy="300.5" fx="601.99" fy="300.5" r="25.74" gradientTransform="translate(20.87 99.61) scale(1 .54)" gradientUnits="userSpaceOnUse">
      <stop offset="0" stop-color="#f7971f"/>
      <stop offset="1" stop-color="#f7971f" stop-opacity="0"/>
    </radialGradient>
    <radialGradient id="radial-gradient-logo-hit-burst-2" cx="591.99" cy="304.55" fx="591.99" fy="304.55" r="25.74" gradientTransform="translate(99.58 112.71) scale(.79 .54)" xlink:href="#radial-gradient-logo-hit-burst-1"/>
    <radialGradient id="radial-gradient-logo-hit-burst-3" cx="298.93" cy="104.9" fx="298.93" fy="104.9" r="25.74" gradientTransform="translate(339.12 54.93) rotate(90) scale(1 .54)" xlink:href="#radial-gradient-logo-hit-burst-1"/>
    <linearGradient id="linear-gradient" x1="288.7" y1="349.76" x2="309" y2="428.03" gradientUnits="userSpaceOnUse">
      <stop offset="0" stop-color="#fff"/>
      <stop offset=".14" stop-color="#ffd738"/>
      <stop offset=".52" stop-color="#ffd018"/>
    </linearGradient>
    <linearGradient id="linear-gradient-2" x1="357.58" y1="331.9" x2="377.87" y2="410.18" xlink:href="#linear-gradient"/>
    <linearGradient id="linear-gradient-3" x1="425.44" y1="314.31" x2="445.73" y2="392.58" gradientUnits="userSpaceOnUse">
      <stop offset="0" stop-color="#fff"/>
      <stop offset=".14" stop-color="#ffd738"/>
      <stop offset=".78" stop-color="#ffd018"/>
      <stop offset="1" stop-color="#53c4f1"/>
    </linearGradient>
    <linearGradient id="linear-gradient-4" x1="495.7" y1="296.09" x2="515.99" y2="374.37" gradientUnits="userSpaceOnUse">
      <stop offset="0" stop-color="#fff"/>
      <stop offset=".14" stop-color="#ffd738"/>
      <stop offset=".85" stop-color="#ffd018"/>
      <stop offset="1" stop-color="#53c4f1"/>
    </linearGradient>
    <linearGradient id="linear-gradient-5" x1="559.23" y1="279.62" x2="579.52" y2="357.9" xlink:href="#linear-gradient"/>
    <linearGradient id="linear-gradient-6" x1="614.19" y1="265.37" x2="634.48" y2="343.65" xlink:href="#linear-gradient"/>
    <radialGradient id="radial-gradient-8" cx="262.01" cy="223.99" fx="262.01" fy="223.99" r="22.84" gradientUnits="userSpaceOnUse">
      <stop offset=".77" stop-color="#10131e"/>
      <stop offset=".86" stop-color="#0b4f71"/>
      <stop offset=".95" stop-color="#f7ef80"/>
      <stop offset="1" stop-color="#f6fbfd"/>
    </radialGradient>
    <radialGradient id="radial-gradient-9" cx="275.49" cy="212.46" fx="275.49" fy="212.46" r="24.19" xlink:href="#radial-gradient-8"/>
    <radialGradient id="radial-gradient-10" cx="287.39" cy="197.23" fx="287.39" fy="197.23" r="33.82" gradientTransform="translate(184.72 492.18) rotate(-93.85) scale(1 .62)" xlink:href="#radial-gradient-8"/>
    <radialGradient id="radial-gradient-11" cx="311.91" cy="178.64" fx="311.91" fy="178.64" r="35.42" gradientTransform="translate(279.94 522.28) rotate(-110.03) scale(1 .83)" gradientUnits="userSpaceOnUse">
      <stop offset=".66" stop-color="#10131e"/>
      <stop offset=".75" stop-color="#0d364f"/>
      <stop offset=".86" stop-color="#a9a954"/>
      <stop offset=".89" stop-color="#f9d745"/>
      <stop offset=".94" stop-color="#f7ef80"/>
      <stop offset="1" stop-color="#f6fbfd"/>
    </radialGradient>
    <radialGradient id="radial-gradient-12" cx="559.2" cy="151.4" fx="559.2" fy="151.4" r="39.35" gradientUnits="userSpaceOnUse">
      <stop offset=".71" stop-color="#10131e"/>
      <stop offset=".83" stop-color="#0b4f71"/>
      <stop offset=".89" stop-color="#f7ef80"/>
      <stop offset=".95" stop-color="#fff"/>
      <stop offset="1" stop-color="#f6fbfd"/>
    </radialGradient>
    <radialGradient id="radial-gradient-13" cx="636.52" cy="187.16" fx="636.52" fy="187.16" r="25.03" gradientTransform="translate(326.66 764.08) rotate(-75.35) scale(1 .82)" gradientUnits="userSpaceOnUse">
      <stop offset=".6" stop-color="#10131e"/>
      <stop offset=".81" stop-color="#0c3e59"/>
      <stop offset=".95" stop-color="#f7ef80"/>
      <stop offset="1" stop-color="#f6fbfd"/>
    </radialGradient>
    <radialGradient id="Clouds_yellow" data-name="Clouds yellow" cx="367.26" cy="138.86" fx="367.26" fy="138.86" r="20.94" gradientUnits="userSpaceOnUse">
      <stop offset=".64" stop-color="#10131e"/>
      <stop offset=".66" stop-color="#161920"/>
      <stop offset=".69" stop-color="#292b28"/>
      <stop offset=".73" stop-color="#484835"/>
      <stop offset=".78" stop-color="#727147"/>
      <stop offset=".83" stop-color="#a9a55f"/>
      <stop offset=".88" stop-color="#ebe37a"/>
      <stop offset=".89" stop-color="#f7ef80"/>
      <stop offset=".95" stop-color="#fff"/>
      <stop offset="1" stop-color="#f6fbfd"/>
    </radialGradient>
    <radialGradient id="Clouds_yellow-2" data-name="Clouds yellow" cx="399.15" cy="128.37" fx="399.15" fy="128.37" r="38.48" gradientTransform="translate(342.09 -284.55) rotate(65.38) scale(1 .94)" xlink:href="#Clouds_yellow"/>
    <radialGradient id="radial-gradient-14" cx="340.27" cy="162.9" fx="340.27" fy="162.9" r="44.09" gradientTransform="translate(473.58 -185.92) rotate(86.59) scale(1 .94)" gradientUnits="userSpaceOnUse">
      <stop offset=".66" stop-color="#10131e"/>
      <stop offset=".89" stop-color="#f9d745"/>
      <stop offset=".94" stop-color="#f7ef80"/>
      <stop offset="1" stop-color="#f6fbfd"/>
    </radialGradient>
    <radialGradient id="radial-gradient-15" cx="295.27" cy="154.5" fx="295.27" fy="154.5" r="41.43" gradientTransform="translate(-5.95 64.49) rotate(-3.44) scale(1 .7)" gradientUnits="userSpaceOnUse">
      <stop offset="0" stop-color="#0b4f71"/>
      <stop offset="1" stop-color="#0b4f71" stop-opacity="0"/>
    </radialGradient>
    <radialGradient id="radial-gradient-16" cx="530.99" cy="125.12" fx="530.99" fy="125.12" r="39.1" gradientUnits="userSpaceOnUse">
      <stop offset=".46" stop-color="#10131e"/>
      <stop offset=".64" stop-color="#10131e"/>
      <stop offset=".66" stop-color="#161920"/>
      <stop offset=".69" stop-color="#292b28"/>
      <stop offset=".73" stop-color="#484835"/>
      <stop offset=".78" stop-color="#727147"/>
      <stop offset=".83" stop-color="#a9a55f"/>
      <stop offset=".88" stop-color="#ebe37a"/>
      <stop offset=".89" stop-color="#f7ef80"/>
      <stop offset=".95" stop-color="#fff"/>
      <stop offset="1" stop-color="#f6fbfd"/>
    </radialGradient>
    <radialGradient id="radial-gradient-17" cx="579.14" cy="161.42" fx="579.14" fy="161.42" r="39.58" gradientTransform="translate(295.53 685.88) rotate(-75.35) scale(1 .88)" gradientUnits="userSpaceOnUse">
      <stop offset=".6" stop-color="#10131e"/>
      <stop offset=".77" stop-color="#0d3b56"/>
      <stop offset=".86" stop-color="#e9c351"/>
      <stop offset=".91" stop-color="#f7ef80"/>
      <stop offset=".97" stop-color="#f6fbfd"/>
    </radialGradient>
    <radialGradient id="radial-gradient-18" cx="395.88" cy="150.02" fx="395.88" fy="150.02" r="45.13" gradientTransform="translate(-16.18 85.22) rotate(-4.4) scale(1 .61)" gradientUnits="userSpaceOnUse">
      <stop offset=".46" stop-color="#10131e"/>
      <stop offset=".7" stop-color="#10131e"/>
      <stop offset=".72" stop-color="#161920"/>
      <stop offset=".75" stop-color="#292b28"/>
      <stop offset=".78" stop-color="#484835"/>
      <stop offset=".81" stop-color="#727147"/>
      <stop offset=".84" stop-color="#a9a55f"/>
      <stop offset=".88" stop-color="#ebe37a"/>
      <stop offset=".89" stop-color="#f7ef80"/>
      <stop offset=".95" stop-color="#fff"/>
      <stop offset="1" stop-color="#f6fbfd"/>
    </radialGradient>
    <radialGradient id="radial-gradient-19" cx="409.56" cy="161.28" fx="409.56" fy="161.28" r="43.86" gradientTransform="translate(-18.63 111.2) rotate(-6) scale(1 .54)" xlink:href="#radial-gradient-18"/>
    <radialGradient id="radial-gradient-20" cx="429.8" cy="148.43" fx="429.8" fy="148.43" r="48.28" gradientTransform="translate(-14.92 63.57) rotate(-5.27) scale(1 .78)" gradientUnits="userSpaceOnUse">
      <stop offset=".46" stop-color="#10131e"/>
      <stop offset=".64" stop-color="#10131e"/>
      <stop offset=".66" stop-color="#161920"/>
      <stop offset=".69" stop-color="#292b28"/>
      <stop offset=".73" stop-color="#484835"/>
      <stop offset=".77" stop-color="#727147"/>
      <stop offset=".81" stop-color="#a9a55f"/>
      <stop offset=".86" stop-color="#ebe37a"/>
      <stop offset=".87" stop-color="#f7ef80"/>
      <stop offset=".95" stop-color="#fff"/>
      <stop offset="1" stop-color="#f6fbfd"/>
    </radialGradient>
    <radialGradient id="radial-gradient-21" cx="286.51" cy="220.05" fx="286.51" fy="220.05" r="29.56" gradientUnits="userSpaceOnUse">
      <stop offset=".87" stop-color="#10131e"/>
      <stop offset=".94" stop-color="#0b4f71"/>
      <stop offset="1" stop-color="#f6fbfd"/>
    </radialGradient>
    <radialGradient id="radial-gradient-22" cx="257.1" cy="245.07" fx="257.1" fy="245.07" r="34.64" gradientUnits="userSpaceOnUse">
      <stop offset=".89" stop-color="#10131e"/>
      <stop offset=".9" stop-color="#0b4f71"/>
      <stop offset=".94" stop-color="#f6fbfd"/>
    </radialGradient>
    <radialGradient id="radial-gradient-23" cx="367.7" cy="158.49" fx="367.7" fy="158.49" r="26.65" gradientUnits="userSpaceOnUse">
      <stop offset=".81" stop-color="#10131e"/>
      <stop offset=".89" stop-color="#f7ef80"/>
      <stop offset="1" stop-color="#f6fbfd"/>
    </radialGradient>
    <radialGradient id="radial-gradient-24" cx="347.28" cy="185.31" fx="347.28" fy="185.31" r="26.15" gradientTransform="translate(259.01 -199.36) rotate(49.69)" xlink:href="#radial-gradient-23"/>
    <radialGradient id="radial-gradient-25" cx="373.92" cy="174.16" fx="373.92" fy="174.16" r="27.47" xlink:href="#radial-gradient-23"/>
    <radialGradient id="radial-gradient-26" cx="316.39" cy="191.59" fx="316.39" fy="191.59" r="28.92" gradientTransform="translate(110.37 505.78) rotate(-89.38) scale(1 1.06)" gradientUnits="userSpaceOnUse">
      <stop offset=".66" stop-color="#10131e"/>
      <stop offset=".8" stop-color="#0d364e"/>
      <stop offset=".86" stop-color="#a9a954"/>
      <stop offset=".89" stop-color="#f9d745"/>
      <stop offset=".94" stop-color="#f7ef80"/>
      <stop offset="1" stop-color="#f6fbfd"/>
    </radialGradient>
    <radialGradient id="radial-gradient-27" cx="611.92" cy="181.5" fx="611.92" fy="181.5" r="33.85" gradientTransform="translate(360.49 765.69) rotate(-82.53) scale(1 .95)" gradientUnits="userSpaceOnUse">
      <stop offset=".6" stop-color="#10131e"/>
      <stop offset=".77" stop-color="#0c405d"/>
      <stop offset=".86" stop-color="#a9a954"/>
      <stop offset=".89" stop-color="#f9d745"/>
      <stop offset=".93" stop-color="#f7ef80"/>
      <stop offset="1" stop-color="#f6fbfd"/>
    </radialGradient>
    <radialGradient id="radial-gradient-28" cx="649.16" cy="207.63" fx="649.16" fy="207.63" r="20.53" gradientTransform="translate(42.94 526.56) rotate(-46.36) scale(1 1.05)" gradientUnits="userSpaceOnUse">
      <stop offset=".8" stop-color="#5c9d89" stop-opacity="0"/>
      <stop offset=".82" stop-color="rgba(92, 155, 137, .05)" stop-opacity=".05"/>
      <stop offset=".85" stop-color="rgba(92, 151, 137, .18)" stop-opacity=".18"/>
      <stop offset=".88" stop-color="rgba(92, 145, 137, .41)" stop-opacity=".41"/>
      <stop offset=".91" stop-color="rgba(92, 136, 137, .71)" stop-opacity=".71"/>
      <stop offset=".93" stop-color="#5d868a" stop-opacity=".81"/>
      <stop offset=".93" stop-color="rgba(189, 208, 210, .93)" stop-opacity=".93"/>
      <stop offset=".94" stop-color="#f6fbfd"/>
    </radialGradient>
    <radialGradient id="radial-gradient-29" cx="590.69" cy="194.13" fx="590.69" fy="194.13" r="19.09" gradientUnits="userSpaceOnUse">
      <stop offset=".77" stop-color="#10131e"/>
      <stop offset=".83" stop-color="#0b4f71"/>
      <stop offset=".89" stop-color="#f7ef80"/>
      <stop offset="1" stop-color="#f6fbfd"/>
    </radialGradient>
    <radialGradient id="radial-gradient-30" cx="569.44" cy="174.95" fx="569.44" fy="174.95" r="17.67" xlink:href="#radial-gradient-29"/>
    <radialGradient id="radial-gradient-31" cx="551.01" cy="169.28" fx="551.01" fy="169.28" r="21.75" xlink:href="#radial-gradient-29"/>
    <radialGradient id="radial-gradient-32" cx="537.3" cy="145.84" fx="537.3" fy="145.84" r="21.21" gradientTransform="translate(460.43 701.17) rotate(-98.71) scale(1 1.1)" xlink:href="#radial-gradient-29"/>
    <clipPath id="clippath">
      <path d="M682.96,213.42c.3.96.48,1.96.48,3,0,6.57-6.45,11.89-14.41,11.89-1.35,0-2.66-.17-3.9-.45,1.61,5.11,7.23,8.9,13.93,8.9,7.96,0,14.41-5.33,14.41-11.89,0-5.45-4.45-10.04-10.51-11.44Z"/>
    </clipPath>
    <radialGradient id="radial-gradient-33" cx="677.48" cy="229.35" fx="677.48" fy="229.35" r="22.33" gradientTransform="translate(30.2 -44.07) rotate(7.52) scale(1 .81)" gradientUnits="userSpaceOnUse">
      <stop offset=".84" stop-color="#10111a"/>
      <stop offset=".85" stop-color="#141720"/>
      <stop offset=".86" stop-color="#202a32"/>
      <stop offset=".87" stop-color="#34484f"/>
      <stop offset=".88" stop-color="#507377"/>
      <stop offset=".88" stop-color="#5d868a"/>
      <stop offset=".9" stop-color="#f6fbfd"/>
    </radialGradient>
    <clipPath id="clippath-1">
      <path d="M664.65,224.86c0-5.11,3.9-9.47,9.39-11.15,1.4-.36,4.15.51,4.78.62l4.52.8s0-.56-.37-1.71c-1.61-5.11-7.23-8.9-13.93-8.9-7.96,0-14.41,5.33-14.41,11.89,0,5.45,4.45,10.04,10.51,11.44-.3-.96-.48-1.96-.48-3Z"/>
    </clipPath>
    <radialGradient id="radial-gradient-34" cx="668.06" cy="218.04" fx="668.06" fy="218.04" r="18.21" gradientTransform="translate(38.45 -63.23) rotate(9.72) scale(1 .78)" gradientUnits="userSpaceOnUse">
      <stop offset=".76" stop-color="#10111a"/>
      <stop offset=".78" stop-color="#101620"/>
      <stop offset=".81" stop-color="#122333"/>
      <stop offset=".84" stop-color="#163a51"/>
      <stop offset=".86" stop-color="#184762"/>
      <stop offset=".91" stop-color="#5d868a"/>
      <stop offset=".95" stop-color="#f6fbfd"/>
    </radialGradient>
    <radialGradient id="radial-gradient-35" cx="497.79" cy="129.57" fx="497.79" fy="129.57" r="37.81" xlink:href="#radial-gradient-16"/>
    <radialGradient id="radial-gradient-36" cx="636.23" cy="207.26" fx="636.23" fy="207.26" r="31.55" gradientUnits="userSpaceOnUse">
      <stop offset=".73" stop-color="#10131e"/>
      <stop offset=".86" stop-color="#0e2739"/>
      <stop offset=".96" stop-color="#f7ef80"/>
      <stop offset="1" stop-color="#f6fbfd"/>
    </radialGradient>
    <radialGradient id="radial-gradient-37" cx="539.86" cy="156.66" fx="539.86" fy="156.66" r="17.47" xlink:href="#radial-gradient-29"/>
    <radialGradient id="radial-gradient-38" cx="335.98" cy="198.98" fx="335.98" fy="198.98" r="28.92" gradientTransform="translate(670.62 324.41) rotate(-179.38) scale(1 .61)" xlink:href="#radial-gradient-34"/>
    <radialGradient id="radial-gradient-39" cx="304.92" cy="198.94" fx="304.92" fy="198.94" r="23.59" gradientUnits="userSpaceOnUse">
      <stop offset=".84" stop-color="#10111a"/>
      <stop offset=".85" stop-color="#101620"/>
      <stop offset=".86" stop-color="#122333"/>
      <stop offset=".87" stop-color="#163a51"/>
      <stop offset=".87" stop-color="#184762"/>
      <stop offset=".91" stop-color="#5d868a"/>
      <stop offset=".95" stop-color="#f6fbfd"/>
    </radialGradient>
    <linearGradient id="linear-gradient-7" x1="428.88" y1="165.77" x2="438.59" y2="169.25" gradientUnits="userSpaceOnUse">
      <stop offset=".32" stop-color="#f8f2a2"/>
      <stop offset=".38" stop-color="#f9f3af"/>
      <stop offset=".64" stop-color="#fdfbe8"/>
      <stop offset=".76" stop-color="#fff"/>
    </linearGradient>
    <radialGradient id="radial-gradient-40" cx="307.58" cy="206.43" fx="307.58" fy="206.43" r="3.37" gradientTransform="translate(-15.07 -.12) scale(1.07)" gradientUnits="userSpaceOnUse">
      <stop offset=".42" stop-color="#fce409"/>
      <stop offset=".57" stop-color="#911b1d"/>
      <stop offset="1" stop-color="#911b1d" stop-opacity="0"/>
    </radialGradient>
    <radialGradient id="radial-gradient-41" cx="258.1" cy="166.98" fx="258.1" fy="166.98" r="2.07" gradientTransform="translate(-15.07 -7.33) scale(1.07)" xlink:href="#radial-gradient-40"/>
    <radialGradient id="radial-gradient-42" cx="217.02" cy="162.58" fx="217.02" fy="162.58" r="2.48" gradientTransform="translate(-74.83 -39.83) scale(1.44 1.33)" xlink:href="#radial-gradient-40"/>
    <radialGradient id="radial-gradient-43" cx="253" cy="214.19" fx="253" fy="214.19" r="2.48" gradientTransform="translate(35.62 51.06) scale(.72 .67)" xlink:href="#radial-gradient-40"/>
    <radialGradient id="radial-gradient-44" cx="235.95" cy="194.31" fx="235.95" fy="194.31" r="2.48" gradientTransform="translate(-273.94 -249.92) scale(2.27 2.48)" xlink:href="#radial-gradient-40"/>
    <radialGradient id="radial-gradient-45" cx="368.17" cy="291.15" fx="368.17" fy="291.15" r="2.48" gradientTransform="translate(67.14 68.32) scale(.57)" xlink:href="#radial-gradient-40"/>
    <radialGradient id="radial-gradient-46" cx="269.7" cy="230.44" fx="269.7" fy="230.44" r="3.37" gradientTransform="translate(-98.53 -65.79) scale(1.48)" xlink:href="#radial-gradient-40"/>
    <radialGradient id="radial-gradient-47" cx="322.85" cy="254.44" fx="322.85" fy="254.44" r="3.37" gradientTransform="translate(-29.72 -6.67) scale(1.18)" xlink:href="#radial-gradient-40"/>
    <radialGradient id="radial-gradient-48" cx="555.98" cy="122.56" fx="555.98" fy="122.56" r="1.69" gradientTransform="translate(-326.62 -70.86) scale(1.76)" xlink:href="#radial-gradient-40"/>
    <radialGradient id="radial-gradient-49" cx="510.52" cy="119.88" fx="510.52" fy="119.88" r="1.69" gradientTransform="translate(-1134.21 -234.19) scale(3.56 3.35)" xlink:href="#radial-gradient-40"/>
    <radialGradient id="radial-gradient-50" cx="492.2" cy="130.2" fx="492.2" fy="130.2" r="1.69" gradientTransform="translate(-1333.58 -279.71) scale(4.02 3.81)" gradientUnits="userSpaceOnUse">
      <stop offset=".3" stop-color="#fce409"/>
      <stop offset=".51" stop-color="#911b1d"/>
      <stop offset="1" stop-color="#911b1d" stop-opacity="0"/>
    </radialGradient>
    <radialGradient id="radial-gradient-51" cx="386.22" cy="321.84" fx="386.22" fy="321.84" r="3.37" gradientTransform="translate(81.65 88.55) scale(.67 .73)" xlink:href="#radial-gradient-40"/>
    <radialGradient id="radial-gradient-52" cx="350.66" cy="330.2" fx="350.66" fy="330.2" r="3.37" gradientTransform="translate(88.86 86.58) scale(.62 .72)" xlink:href="#radial-gradient-40"/>
    <radialGradient id="radial-gradient-53" cx="396.53" cy="252.96" fx="396.53" fy="252.96" r="1.72" gradientUnits="userSpaceOnUse">
      <stop offset=".57" stop-color="#fce409"/>
      <stop offset="1" stop-color="#fce409" stop-opacity="0"/>
    </radialGradient>
    <radialGradient id="radial-gradient-54" cx="395.87" cy="262.16" fx="395.87" fy="262.16" xlink:href="#radial-gradient-53"/>
    <radialGradient id="radial-gradient-55" cx="498.79" cy="297.52" fx="498.79" fy="297.52" r="1.72" gradientTransform="translate(86.7 56.86) scale(.7)" xlink:href="#radial-gradient-53"/>
    <radialGradient id="radial-gradient-56" cx="466.25" cy="319.91" fx="466.25" fy="319.91" r="1.72" gradientTransform="translate(45.22 28.12) scale(.84)" xlink:href="#radial-gradient-53"/>
    <radialGradient id="radial-gradient-57" cx="678.7" cy="284.03" fx="678.7" fy="284.03" r="1.72" gradientTransform="translate(168.2 56.86) scale(.46 .7)" xlink:href="#radial-gradient-53"/>
    <radialGradient id="radial-gradient-58" cx="532.82" cy="228" fx="532.82" fy="228" r="1.72" gradientTransform="translate(-116.63 -26.98) scale(1.22)" gradientUnits="userSpaceOnUse">
      <stop offset=".36" stop-color="#fce409"/>
      <stop offset="1" stop-color="#fce409" stop-opacity="0"/>
    </radialGradient>
    <radialGradient id="radial-gradient-59" cx="671.28" cy="288.29" fx="671.28" fy="288.29" r="1.72" gradientTransform="translate(86.7 56.86) scale(.7)" xlink:href="#radial-gradient-53"/>
    <radialGradient id="
    0" cx="700.53" cy="273.43" fx="700.53" fy="273.43" gradientTransform="translate(86.7 56.86) scale(.7)" xlink:href="#radial-gradient-53"/>
    <radialGradient id="radial-gradient-61" cx="733.25" cy="264.63" fx="733.25" fy="264.63" r="1.15" gradientTransform="translate(86.7 56.86) scale(.7)" xlink:href="#radial-gradient-53"/>
    <radialGradient id="radial-gradient-62" cx="833.74" cy="263.86" fx="833.74" fy="263.86" r="1.15" gradientTransform="translate(86.7 56.86) scale(.7)" xlink:href="#radial-gradient-53"/>
    <radialGradient id="radial-gradient-63" cx="394.8" cy="314.06" fx="394.8" fy="314.06" r="1.44" gradientUnits="userSpaceOnUse">
      <stop offset=".45" stop-color="#fff"/>
      <stop offset=".65" stop-color="#57c5f1"/>
      <stop offset="1" stop-color="#57c5f1" stop-opacity="0"/>
    </radialGradient>
    <radialGradient id="radial-gradient-64" cx="554.94" cy="390.54" fx="554.94" fy="390.54" r="1.44" gradientTransform="translate(139.36 96.61) scale(.5)" gradientUnits="userSpaceOnUse">
      <stop offset=".21" stop-color="#57c4f1" stop-opacity=".55"/>
      <stop offset="1" stop-color="#57c5f1" stop-opacity="0"/>
    </radialGradient>
    <radialGradient id="radial-gradient-65" cx="486.03" cy="267" fx="486.03" fy="267" xlink:href="#radial-gradient-63"/>
    <radialGradient id="radial-gradient-66" cx="501.67" cy="272.28" fx="501.67" fy="272.28" xlink:href="#radial-gradient-63"/>
  </defs>
  <g class="cls-94">
    <g id="Background">
      <rect class="cls-89" width="892" height="512"/>
    </g>
    <g id="Sunburst">
      <g id="Background_shine" data-name="Background shine">
        <ellipse class="cls-6" cx="464.79" cy="10.14" rx="227.7" ry="262.18"/>
      </g>
      <g id="Sun">
        <g id="Sun_circle" data-name="Sun circle">
          <circle class="cls-70" cx="464.26" cy="103.02" r="76.82"/>
        </g>
        <g id="Shine">
          <path id="Shine_glow" data-name="Shine glow" class="cls-71" d="M464.26,40.87c-37.27,0-67.48,30.21-67.48,67.48h134.97c0-37.27-30.21-67.48-67.48-67.48Z"/>
          <g id="Shine-2" data-name="Shine">
            <path class="cls-88" d="M464.79,35.76c-35.95,0-65.22,28.49-66.53,64.11,4.28-32.94,32.42-58.4,66.53-58.4s62.25,25.45,66.53,58.4c-1.31-35.63-30.58-64.11-66.53-64.11Z"/>
          </g>
        </g>
      </g>
    </g>
    <g id="Background_sticker" data-name="Background sticker">
      <path class="cls-66" d="M686.88,288.83c.25-7.01-1.12-13.98-3.73-20.48-2.08-6.66-8.29-13.38-8.9-20.05-.09-3.08,2.21-6.43,5.07-8.03,4.62-2.58,7.76-4.86,9.79-6.9,2.69-2.16,4.36-5.18,4.36-8.52,0-5.45-4.45-10.04-10.51-11.44-1.61-5.11-7.23-8.9-13.93-8.9-.51,0-1.02.02-1.52.07-.51-6.99-4.83-12.73-10.58-14.51-.68-3.26-2.2-6.15-4.29-8.34.33-1.38.52-2.83.52-4.34,0-9.11-6.45-16.49-14.41-16.49-1.54,0-3.02.28-4.41.79-3.56-8.04-11.6-13.65-20.95-13.65-2.14,0-4.21.32-6.18.87-.65-14.91-11.28-26.78-24.34-26.78-1.32,0-2.6.15-3.86.39-4.01-4.07-9.16-6.53-14.79-6.53,0-16.35-14.35-29.61-32.05-29.61-8.84,0-16.84,3.31-22.64,8.65-3.65-1.6-7.67-2.51-11.91-2.51-11.55,0-21.54,6.63-26.42,16.28-3.97-2.09-8.48-3.29-13.27-3.29-4.46,0-8.66,1.05-12.41,2.87-3.04-2.7-6.58-4.39-10.45-4.75-4.09-.38-8.09.78-11.73,3.12-5.13-9.66-15.27-16.24-26.97-16.24-16.01,0-29.11,12.33-30.4,28-.48-.05-.97-.08-1.46-.08-3.77,0-7.19,1.54-9.78,4.04-4.59-3.16-10.15-5.01-16.14-5.01-15.46,0-28.02,12.31-28.49,27.66-1.02-.18-2.06-.3-3.12-.3-10.53,0-19.21,9.04-20.69,20.79-1.02-.38-2.08-.61-3.18-.61-7.27,0-13.17,8.93-13.17,19.94,0,1.87.18,3.67.5,5.38-7.22.51-12.92,6.51-12.92,13.85-7.1,0-12.95,5.33-13.79,12.21-5.81,1.66-10.07,7.01-10.07,13.36,0,1.6.28,3.12.78,4.55.46,4.11,3.8,8.5,9.79,11.67,8.43,4.46,17.56,3.8,27.32,4.04,9.72.46,27.42-2.56,18.88,11.13-4.61,7.49-9.55,15.13-13.1,23.25-4.24,9.3-7.05,18.84-10.64,29.03-3.66,10.74-7.78,21.83-10.99,32.64-4.48,14.62-3.62,30.8-4.15,45.72-.18,8.06-.35,15.73-.54,23.92-.2,8.74-.47,21.03-.67,29.76-.16,5.79-.51,14.32,2.7,18,7.22,7.86,20.4,3.07,29.61,1.21,23.62-5.37,47.97-10.98,73.97-16.93,5.34-1.22,10.77-2.47,16.04-3.68,7.17-1.18,17.22-5.86,21.58,2.03,2.81,5.49,3.47,12.66,6.5,18.23,3.61,7.27,9.12,13.31,15.05,18.79,19.71,19.06,42.73,19.64,66.62,8.07,23.85-10.86,40.32-36.1,40.76-62.16.24-6.09-1.69-13.29-1.28-19.08.15-5.2,5.89-7.73,10.57-9.02,6.76-1.93,16.45-4.29,24.06-6.3,35.35-9.08,97.44-25.15,121.69-31.39,7.47-1.6,13.89-5.74,14.59-14.38l.03-.24c1.26-12.7-8.96-23.95-8.68-36.69-.23-7.46,2.53-15.31,2.73-23.11Z"/>
    </g>
    <g id="Blue_center_burst" data-name="Blue center burst">
      <ellipse class="cls-1" cx="454.79" cy="303.26" rx="182.66" ry="210.32"/>
    </g>
    <g id="Lightning_logo_hit_bursts" data-name="Lightning logo hit bursts">
      <ellipse cx="622.86" cy="262.16" rx="25.44" ry="14.51" fill="url(#radial-gradient-logo-hit-burst-1)" transform="translate(-39.9 130.15) rotate(-11.56)"/>
      <ellipse cx="568.32" cy="277.44" rx="20.14" ry="14.51" fill="url(#radial-gradient-logo-hit-burst-2)" transform="translate(-44.07 119.53) rotate(-11.56)"/>
      <ellipse cx="282.38" cy="353.86" rx="14.51" ry="25.44" fill="url(#radial-gradient-logo-hit-burst-3)" transform="translate(-12.53 10.37) rotate(-2.06)"/>
    </g>
    <g id="Donner">
      <path class="cls-5" d="M302.82,346.89c-12.62,3.25-31.41,8.1-31.41,8.1v78.51s21.1-4.66,30.67-6.87c9.57-2.21,29.93-11.53,29.69-35.33l-.25-23.8c0-16.44-16.09-23.86-28.71-20.61ZM312.81,396.98c.09,8.65-7.31,12.04-10.79,12.84-3.48.8-11.14,2.5-11.14,2.5v-44.9s6.83-1.76,11.41-2.94c4.58-1.18,10.43,1.52,10.43,7.49l.09,8.65c.02,1.71-.09,6.53-.09,7.73,0,5.97.09-6.86.09,8.65Z"/>
      <path class="cls-82" d="M369.92,328.61c-16.49,1.56-32.05,17.64-32.05,35.58v24.06c0,10.99,8.4,21.88,20.22,21.88s38.27-5.6,38.27-31.43v-29.25c0-13.38-9.96-22.4-26.45-20.85ZM377.7,380.26c0,10.27-9.02,12.45-13.38,12.45s-6.53-.62-6.53-8.09v-27.07c0-8.09,6.53-12.13,9.96-12.13s9.96-.62,9.96,8.4v26.45Z"/>
      <polygon class="cls-83" points="445.92 353.8 422 315.1 403.82 320.04 403.82 397.76 422.76 392.71 422.76 351.09 445.93 387.97 465.77 382.96 465.77 303.02 445.92 307.81 445.92 353.8"/>
      <polygon class="cls-81" points="516.12 333.81 492.29 295.91 474.02 300.05 474.02 380.86 492.96 375.74 492.96 331.11 516.12 367.98 535.96 362.97 535.96 283.04 516.12 287.82 516.12 333.81"/>
      <polygon class="cls-85" points="544.19 361.38 592.45 349.05 592.45 331.95 563 339.71 563 325.05 585.83 318.96 585.83 304.17 563 310 563 293.4 592.45 285.87 592.45 267.97 544.19 280.43 544.19 361.38"/>
      <path class="cls-86" d="M642.78,304.04c10.77-9.08,12.45-15.96,12.45-23.35s-5.32-22.7-24.65-22.7c-8.3,0-32.82,8.3-32.82,8.3v81.21l19.2-5.19v-28.67c4.28.13,7.14-1.3,8.43-2.21l15.05,25.3,18.81-5.19-16.48-27.5ZM629.52,295.66c-3.87,1.82-12.32,3.24-12.32,3.24v-19.82s7.66-2.68,11.69-2.76c4.03-.08,7.42,2.45,7.42,8.21s-2.92,9.32-6.79,11.13Z"/>
    </g>
    <g id="Donner_line" data-name="Donner line">
      <path class="cls-91" d="M271.06,450.74s36.52-9.97,46.18-12.56,21.75-14.05,24.02-21.6c5.05,3.8,10.58,8.63,22.21,8.65,14.02,0,28.81-7.29,37.62-17.23,2.71,3.67,4.43,4.85,7.08,4.85s14.65-3.25,19.76-5.15c7.83-3.46,8.02-12.54,8.51-17.55,3.07,3.35,6.59,11.14,17.77,9.05s33.15-5.3,42.43-7.96c10.51-2.85,10.46-18.22,10.44-21.02,2.19,2.19,9.51,16.41,19.57,12.38,5.41-1.76,92.26-23.83,97.48-25.46s7.09-16.42,7.1-20.41c7.79,8.3,10.12,17.17,19.65,13.95,9.66-2.08,17.95-4.52,17.95-4.52,6.25-1.89,2.08-9.85,0-12.31s-13.07-18.19-13.07-18.19c0,0,10.61-9.09,10.04-22.92s-5.3-22.16-8.9-26.9"/>
    </g>
    <g id="Lightning_glow_dark" data-name="Lightning glow dark" filter="url(#lightning_glow_dark_blur)">
      <path class="cls-80" d="M499.7,412.62c-2.06-13.92-10.95-25.51-21.46-34.45-6.22-5.29-13.09-4.9-19.56-2.15-2.47.75-4.57,2.08-6.63,3.64-2.96,1.96-5.73,4.2-8.2,6.35-.05.04-.09.09-.14.14-5.15,2.79-8.46,7.21-9.93,13.01-1.75,6.94-2.24,13.81-4.75,20.64-1.23,3.36-2.41,7.23-4.28,10.28-1.81,2.96-4.52,4.88-5.95,8.11-1.09,2.47-.8,4.85.24,6.77.34,1.13.91,2.15,1.76,2.86,2.08,1.74,3.88,3.06,6.56,3.74,2.7.69,5.76.18,8.3,1.51,6.34,3.3,1.78,8.86,3.61,14.06,1.19,3.39,3.61,4.93,7.04,5.36,1.72.21,5.41-1.56,6.04-.41,3.32,6.13,14.22,3.63,13.6-3.68-.08-.93-.19-1.8-.34-2.64,2.89-2.48,5.39-5.34,8.63-7.53,5.15-3.48,11.15-3.92,15.82-8.5,9.14-8.97,11.42-24.99,9.63-37.13Z"/>
    </g>
    <g id="Lightning_glow_bright" data-name="Lightning glow bright" filter="url(#lightning_glow_bright_blur)">
      <g class="cls-92">
        <path class="cls-67" d="M438.4,434.39c1.03-1.25,2.03-2.54,2.87-3.93.65-1.08,1.21-2.25,1.63-3.45.22.08.47.13.75.13,2.8,0,2.82-4.33.04-4.38.01-.54,0-1.08-.06-1.62-.14-1.17-.91-2.19-2.19-2.19-1.08,0-2.33,1.01-2.19,2.19.32,2.71-.54,5.17-1.98,7.45-.7,1.12-1.51,2.16-2.36,3.17-.83.99-1.66,2.19-2.7,2.97-.93.69-2.2.9-3.27,1.28-1.34.48-2.66,1.04-3.94,1.68-1.2.6-2.45,1.27-3.34,2.3-.39.45-.7.94-1.02,1.43-.06.09-.39.66-.4.67-1.1.44-1.87,1.47-1.53,2.69.29,1.05,1.59,1.97,2.69,1.53,1.4-.55,2.21-1.44,3.02-2.68.75-1.14,1.76-1.65,2.98-2.25,2.66-1.31,5.88-1.7,8.12-3.74,1.06-.97,1.97-2.15,2.88-3.26Z"/>
        <path class="cls-67" d="M500.84,431.35c-1.35-1.31-2.34-2.6-3-4.39-1.48-4.03-2-8.45-1.42-12.72.06-.41,0-.81-.09-1.18.63-.82.91-1.89.53-3.01-2.3-6.83-8.31-11.42-13.4-16.17-2.77-2.59-5.5-5.45-9.11-6.84-.06-.02-.12-.04-.18-.06-1.86-1.61-3.75-3.19-5.68-4.72-2.47-1.95-5.35-4.25-8.74-3.3-2.98.83-4.19,3.39-4.98,6.11-.54,1.87-1.84,2.87-3.42,4.17-1.58,1.3-3.1,2.7-4.08,4.5-2.37-.27-4.91-.31-6.22,1.94-.92,1.57-.89,3.16-.58,4.88.04.23.08.47.14.7,0,.01,0,.01,0,.03,0,.03,0,.06,0,.09.03.5.02,1-.01,1.5,0,.07-.05.4-.06.5-.01.07-.03.14-.03.16-.1.55-.23,1.1-.36,1.64-.24,1-.52,1.99-.74,3-.52,2.43-.74,4.88-.08,7.31.5,1.84,2.62,3.16,4.49,2.55,1.88-.61,3.09-2.52,2.55-4.49-.05-.2-.09-.41-.15-.6-.01-.36-.04-.72-.03-1.09,0-.22.04-.45.05-.67,0,0,0,0,0,0,.07-.4.15-.79.23-1.19.37-1.69.89-3.34,1.16-5.05.16-1.04.32-2.1.29-3.15,0-.21-.02-.42-.05-.63l1.62.15c1.66.15,3.26-1.33,3.59-2.94.41-.38.86-.68,1.33-.92.17.32.39.64.7.93.67.64,1.09,1.31,1.3,2.06.03.76.08,1.51.14,2.25.12,1.46.81,2.45,1.72,3.01,0,.02,0,.03,0,.05.06,3.32,0,6.64-.09,9.96-.2,6.91-.7,13.8-1.46,20.67,0,.07,0,.13,0,.19-1.18,2.15-1.59,4.57-1.9,7.09-.38,3.05-.78,5.68-3.24,7.75-1.35,1.13-2.62,2.18-3.56,3.69-.79,1.27-1.29,2.75-2.21,3.94-1.04,1.34-2.75,1.29-4.29,1.53-1.94.31-3.69,1.16-5.42,2.06-2.5,1.31-.29,5.09,2.21,3.78,1.68-.88,3.23-1.47,5.11-1.72,1.85-.25,3.57-.71,4.97-2.02,1.18-1.11,1.9-2.57,2.64-3.99.86-1.64,1.86-2.72,3.29-3.89,1.19-.98,2.1-2.06,2.8-3.26-.35,3.79-.71,7.58-1.06,11.37-.18,1.97,1.81,3.65,3.65,3.65,2.13,0,3.47-1.68,3.65-3.65l1.95-20.87c.19-2.05.39-4.1.58-6.14.21-1.34.32-2.69.38-4.06.02-.19.03-.37.05-.56.25-2.47.43-5.08,1.61-7.29.16.1.33.19.48.3,1.13.84,1.43,1.1,1.69,2.32.64,2.92,1.9,5.43,3.57,7.87,0,.17-.01.34-.03.51-.01-.04-.11.51-.13.59-.01.05-.02.08-.03.11-.02.02-.04.05-.08.11-.14.22-.26.47-.38.7-.67,1.32-.86,2.65-.61,4.11.2,1.19.73,2.32,1.27,3.39.52,1.02,2.04,1.4,3,.79,1.05-.67,1.34-1.9.79-3-.13-.26-.26-.52-.38-.79-.03-.06-.05-.1-.06-.13-.01-.04-.03-.09-.05-.16-.09-.28-.16-.56-.25-.84-.01-.07-.03-.13-.04-.2,0-.02,0-.04,0-.06,0-.14-.01-.28,0-.42,0-.02,0-.03,0-.05.02-.08.12-.36.12-.39.1-.2.2-.4.31-.6.77.45,1.53.66,2.31.8.2.12.38.25.58.37-.13,1.28-.16,2.57.21,3.82.28.92.72,1.7,1.33,2.44.55.66,1.33,1.13,2.07,1.56,1,.56,2.44.27,3-.79.55-1.04.28-2.39-.79-3-.28-.16-.55-.34-.82-.52-.09-.08-.17-.17-.26-.26-.09-.14-.17-.28-.24-.42-.05-.15-.1-.3-.14-.45,1.45.74,2.91,1.47,4.31,2.22.41.22.83.35,1.24.4.21.63.42,1.26.63,1.89.38,1.12,1.51,1.86,2.69,1.53,1.09-.3,1.91-1.57,1.53-2.69-.32-.96-.63-1.93-.94-2.9.61-1.23.55-2.75-.73-3.97-.33-.31-.66-.62-1-.93-.54-1.23-1.37-2.3-2.73-2.7-.24-.07-.47-.1-.71-.12-.61-.41-1.24-.8-1.9-1.12-1.33-.64-2.66-1.06-4.12-1.26-.21-.03-.4-.04-.59-.05-.28-.18-.56-.38-.81-.59-1.02-.88-1.6-2.13-2.19-3.31-1.27-2.5-2.32-4.9-2.67-7.7-.44-3.49-1.76-5.73-3.93-8.44-.86-1.08-1.66-2.2-2.43-3.34-.7-1.03-2.03-2.5-2.29-3.74-.24-1.16.34-2.68.39-3.88.06-1.64-.17-3.36.1-4.98.33-1.98,1.29-2.54,2.47-2.38,2.92,2.55,5.81,5.13,8.7,7.71,2.04,1.82,4.15,3.6,5.97,5.65,1.87,2.13,3.49,4.46,5.37,6.58.38.42.81.7,1.28.87-.42,4.21-.1,8.45,1.18,12.51.66,2.09,1.52,4.11,2.9,5.82.75.93,2.79,2.18,2.75,3.34-.09,2.82,4.29,2.82,4.38,0,.06-1.97-1.08-3.48-2.43-4.78Z"/>
        <path class="cls-67" d="M424.65,422.12c2.82,0,2.82-4.38,0-4.38s-2.82,4.38,0,4.38Z"/>
      </g>
    </g>
    <g id="Lightning_white" data-name="Lightning white">
      <circle class="cls-88" cx="424.46" cy="420.05" r=".92"/>
      <circle class="cls-88" cx="444.27" cy="424.59" r=".55"/>
      <path class="cls-88" d="M439.56,436.52c0,.43-.31.91-.78,1.57-.43,0-.78-.76-.78-1.57,0-.43.35-.78.78-.78s.78.35.78.78Z"/>
      <path class="cls-88" d="M459.14,483.67c.14.78.26,1.37.26,1.37,0-.4-.11-.87-.26-1.37Z"/>
      <path class="cls-88" d="M402.47,455.89c-.06.02-.11.04-.17.07,0,0,.06-.02.17-.07Z"/>
      <path class="cls-88" d="M502.51,467.63c.14.31.22.46.22.46,0,0-.09-.17-.22-.46Z"/>
      <path class="cls-88" d="M501.05,460.04c-.32-5.73-3.41-9.3-3.41-9.3,0,0-5.78-3.35-6.14-7.58-.36-4.23-2.91-5.96-4.37-5.96s-2.28,1.05-4.19,1.09-5.69-6.64-5.83-9.06c-.14-2.41-2.87-5.19-3.14-6.74-.27-1.55-.16-4.39-.8-6.7s-5.59-7.39-6.81-8.23c-1.22-.84-3-2.89-3-4.56v-14.65s.02-2.22,0-3.51c-.02-1.29.81-1.19.81-1.19l3.48,3.08.89-1.49c-2.48-1.89-5.66-8.64-8.44-2.98s-5.16,8.44-8.64,10.53c-3.48,2.09-8.44,6.16-9.34,10.23s1.69,6.46.89,8.94c-.79,2.48-2.78,4.57-3.08,10.83-.3,6.26-4.57,10.33-5.76,12.12s-2.38,1.79-4.17,1.8c-1.79.01-2.98.19-6.36,2.87-3.38,2.68-1.79,4.14-5.86,6.26-4.07,2.12-7.15,1.09-8.74,3.08,0,0-8.01,2.4-10.59,4.39,0,0,6.08-2.79,10.18-3.78-3.33,4.9-5.57,6.12-6.17,6.38,2.06-.76,3-1.33,6.28-5.1,3.38-3.87,10.23-1.99,11.52-4.57,1.29-2.58,2.58-3.77,5.76-6.46,2.54-2.14,4.44-1.37,6.07-1.43,0,0,1.98,2.76-1.04,4.63-3.02,1.87-4.9,4.03-4.9,4.58.59-.47,1.02-1.49,4.96-4.11,3.13-1.4,2.42-4.27,1.61-5.1h-.63c.41-.01.8-.08,1.18-.26,1.89-.89,1.69-1.89,5.26-5.96,3.58-4.07,3.18-8.44,3.18-10.93s3.08-6.95,3.18-9.04c.1-2.09-.99-4.27-1.17-7.35-.17-3.08,4.44-7.45,6.53-8.34,2.09-.89,6.65-2.98,9.37-8.11l.39,43.89s0,2.29-1.66,4.26c-1.66,1.97-4.66,6.63-4.58,9.87.08,3.24,0,2.76,0,2.76,0,1.82-.95,2.53-3.31,3.47-2.37.95-2.76,5.21-2.92,6.31-.16,1.11-1.97,2.92-4.03,3.16-2.05.24-3.32-.24-5.13.39-1.82.63-2.84,1.26-4.5,5.21-1.66,3.95-1.66,6.16-4.66,7.97-3,1.82-4.58,4.26-5.13,7.74,0,0,1.58-4.81,5.68-6.95,4.1-2.13,4.1-5.37,5.21-8.37,1.11-3,1.34-3.95,6.39-4.18,5.05-.24,7.34-3.16,8.21-5.92s2.13-4.26,3.71-5.05c1.58-.79,1.97-2.45,2.29-6.87.32-4.42,4.42-8.92,4.42-8.92v11.05c0,2.76-2.37,7.34-3.16,8.92-.79,1.58-2.76,1.82-2.45,6.87,0,0,.24-3.47,2.13-4.89,1.89-1.42,1.42-4.34,3-5.45,0,0-.08,4.1-.08,6.71s-.55,3.08-.32,4.66c.24,1.58,1.74,4.5,1.74,6.39s-2.92,6.95-2.92,8.37c0,1.04.75,2.58,1.16,3.92-.19-1.08-.42-2.52-.42-3.33,0-1.39,3.09-6.95,3.09-8.84s-1.78-4.87-1.78-7.45.39-10.08,1.31-11.7c.93-1.62,1.27-4.75,1.27-8.34s.73-36.18.73-36.18c5.4,2.81,8.8,9.85,8.61,13.3-.09,1.68-.09,2.69,2.33,5.51,1.13,1.63,1.48,3,2.09,4.73.29.84,3.19,7.44,6.43,8.14h-.09c.65,3.61,3.67,17.13,8.42,17.94,2.22.37,4.67,2.61,4.67,2.61-1.33-1.63-3.13-2.96-4.71-3.29-2.05-.54-5.48-6.02-7.44-17.2.86-.81,1.87-.82,3.05-.82s2.55.41,2.87,2.46,1.73,6.42,4.05,7.65,4.05,3.55,5.23,5.37c1.18,1.82,1.55,4.14,1.55,6.69,0,2.06,1.52,5.49,2.1,6.73-.4-.93-1.22-3.3-1.46-7.59Z"/>
      <path class="cls-88" d="M475.37,428.56s.51,3.52-.82,5.25c-1.32,1.74-1.57,6.62,2.07,11.99,0,0-2.15-6.51-2.15-7.72s1.92-4.58,1.92-6.72-1.02-2.81-1.02-2.81Z"/>
      <path class="cls-88" d="M461.05,474.22s1.45,3.6,1.75,4.04,3.02,1.93,3.17,4.76.89,8.38,1.64,9.37c0,0-.59-4.31-.69-6.59s0-4.41-1.09-5.45-2.33-2.23-2.73-3.17-.41-2.63-1.67-3.99-.38,1.04-.38,1.04Z"/>
      <path class="cls-88" d="M443.14,463.68s-.56,2.88-1.01,4.02-2.23,2.92-2.23,4.36.94,2.97.94,2.97c0,0-.55-1.89-.15-3.38s1.98-3.11,2.73-5.19c.74-2.08.78-3.05.78-3.05l-1.06.27Z"/>
      <path class="cls-88" d="M467.65,386.73s9.74,8.56,11.52,10.16,5.28,1.84,7.12,4.75,4.16,6.11,5.82,7.18.36,4.87,0,7.24,4.22,11.4,4.22,11.4c2.26,2.67-.3,3.15,1.78,6,2.08,2.85,17.28,14.25,17.28,14.25,0,0-15.5-13-16.45-14.78s0-3.62-1.78-6.47c-1.78-2.85-4.22-9.44-2.85-12.35s.23-6.53-2.79-8.43-2.14-3.68-4.45-5.88-18.52-14.56-18.52-14.56l-.89,1.49Z"/>
      <circle class="cls-88" cx="510.9" cy="427.02" r="1.22"/>
      <circle class="cls-88" cx="505.5" cy="404.16" r=".62"/>
      <ellipse class="cls-88" cx="468.72" cy="392.35" rx="1.54" ry=".62" transform="translate(-97.67 162.48) rotate(-17.84)"/>
      <path class="cls-88" d="M488.25,406.51s-3.09,1.25-2.85,4.22,2.26,7.24,2.26,7.24c0,0-1.84-5.64-1.72-7.24s.48-2.22,2.32-4.22Z"/>
      <path class="cls-88" d="M466.7,415.53c-.65-.71-.56-.77-.93-.53s-.46,1.13,0,1.13.4.89.63.95.83.1.89-.6-.59-.94-.59-.94Z"/>
      <circle class="cls-88" cx="424.46" cy="420.05" r=".92"/>
      <circle class="cls-88" cx="444.27" cy="424.59" r=".55"/>
      <path class="cls-88" d="M439.56,436.52c0,.43-.31.91-.78,1.57-.43,0-.78-.76-.78-1.57,0-.43.35-.78.78-.78s.78.35.78.78Z"/>
      <path class="cls-88" d="M459.14,483.67c.14.78.26,1.37.26,1.37,0-.4-.11-.87-.26-1.37Z"/>
      <path class="cls-88" d="M402.47,455.89c-.06.02-.11.04-.17.07,0,0,.06-.02.17-.07Z"/>
      <path class="cls-88" d="M502.51,467.63c.14.31.22.46.22.46,0,0-.09-.17-.22-.46Z"/>
      <path class="cls-88" d="M475.37,428.56s.51,3.52-.82,5.25c-1.32,1.74-1.57,6.62,2.07,11.99,0,0-2.15-6.51-2.15-7.72s1.92-4.58,1.92-6.72-1.02-2.81-1.02-2.81Z"/>
      <path class="cls-88" d="M461.05,474.22s1.45,3.6,1.75,4.04,3.02,1.93,3.17,4.76.89,8.38,1.64,9.37c0,0-.59-4.31-.69-6.59s0-4.41-1.09-5.45-2.33-2.23-2.73-3.17-.41-2.63-1.67-3.99-.38,1.04-.38,1.04Z"/>
      <path class="cls-88" d="M443.14,463.68s-.56,2.88-1.01,4.02-2.23,2.92-2.23,4.36.94,2.97.94,2.97c0,0-.55-1.89-.15-3.38s1.98-3.11,2.73-5.19c.74-2.08.78-3.05.78-3.05l-1.06.27Z"/>
      <path class="cls-88" d="M467.65,386.73s9.74,8.56,11.52,10.16,5.28,1.84,7.12,4.75,4.16,6.11,5.82,7.18.36,4.87,0,7.24,4.22,11.4,4.22,11.4c2.26,2.67-.3,3.15,1.78,6,2.08,2.85,17.28,14.25,17.28,14.25,0,0-15.5-13-16.45-14.78s0-3.62-1.78-6.47c-1.78-2.85-4.22-9.44-2.85-12.35s.23-6.53-2.79-8.43-2.14-3.68-4.45-5.88-18.52-14.56-18.52-14.56l-.89,1.49Z"/>
      <circle class="cls-88" cx="510.9" cy="427.02" r="1.22"/>
      <circle class="cls-88" cx="505.5" cy="404.16" r=".62"/>
      <ellipse class="cls-88" cx="468.72" cy="392.35" rx="1.54" ry=".62" transform="translate(-97.67 162.48) rotate(-17.84)"/>
      <path class="cls-88" d="M466.7,415.53c-.65-.71-.56-.77-.93-.53s-.46,1.13,0,1.13.4.89.63.95.83.1.89-.6-.59-.94-.59-.94Z"/>
    </g>
    <g id="Clouds_with_gradients" data-name="Clouds with gradients">
      <circle class="cls-74" cx="257.52" cy="218.1" r="13.9"/>
      <circle class="cls-73" cx="271.42" cy="204.2" r="13.9"/>
      <ellipse class="cls-56" cx="283.11" cy="184.97" rx="13.17" ry="19.94"/>
      <ellipse class="cls-52" cx="306.98" cy="169.18" rx="20.94" ry="24.33"/>
      <ellipse class="cls-49" cx="564.21" cy="144.22" rx="23.13" ry="28.23"/>
      <ellipse class="cls-48" cx="638.75" cy="177.4" rx="14.41" ry="16.49"/>
      <ellipse class="cls-65" cx="364.51" cy="134.06" rx="14.61" ry="15.6"/>
      <circle class="cls-64" cx="396.07" cy="120.77" r="30.52"/>
      <circle class="cls-47" cx="338.59" cy="146.01" r="28.53"/>
      <circle class="cls-50" cx="338.59" cy="146.01" r="28.53"/>
      <ellipse class="cls-51" cx="532.17" cy="116" rx="32.05" ry="29.61"/>
      <ellipse class="cls-55" cx="582.86" cy="150.37" rx="24.4" ry="28.23"/>
      <ellipse class="cls-54" cx="393.81" cy="140.59" rx="30.52" ry="16" transform="translate(137.13 470.69) rotate(-71.78)"/>
      <ellipse class="cls-53" cx="407.05" cy="151.75" rx="30.52" ry="16" transform="translate(218.52 543.13) rotate(-84.73)"/>
      <ellipse class="cls-43" cx="431.65" cy="140.64" rx="37.14" ry="24.7" transform="translate(251.93 557.53) rotate(-84.73)"/>
      <circle class="cls-44" cx="282.38" cy="204.91" r="13.9"/>
      <circle class="cls-17" cx="247.56" cy="229.77" r="13.9"/>
      <ellipse class="cls-11" cx="365.84" cy="153.33" rx="19.86" ry="21.22"/>
      <ellipse class="cls-9" cx="344.8" cy="180.03" rx="20.84" ry="17.15" transform="translate(-15.55 326.48) rotate(-49.69)"/>
      <ellipse class="cls-37" cx="370.83" cy="165.03" rx="16.17" ry="17.1"/>
      <ellipse class="cls-15" cx="314.92" cy="182.21" rx="17.26" ry="19.4"/>
      <circle class="cls-16" cx="613.38" cy="170.98" r="22.92"/>
      <ellipse class="cls-10" cx="653.16" cy="205.98" rx="14.41" ry="16.49"/>
      <circle class="cls-12" cx="590.46" cy="189.91" r="13.09"/>
      <circle class="cls-24" cx="569.99" cy="168.86" r="10.61"/>
      <ellipse class="cls-21" cx="552.86" cy="162.59" rx="13.14" ry="12.6"/>
      <ellipse class="cls-19" cx="539.72" cy="142.58" rx="16.9" ry="18.25"/>
      <path class="cls-77" d="M470.1,114.58s9.92-3.21,21.15,1.42c12.81,5.1,18.39,16.68,36.69,18.06l-57.1-2.71-.73-16.77Z"/>
      <g class="cls-90">
        <ellipse class="cls-20" cx="679.06" cy="224.86" rx="14.41" ry="11.89"/>
      </g>
      <g class="cls-93">
        <ellipse class="cls-7" cx="669.03" cy="216.41" rx="14.41" ry="11.89"/>
      </g>
      <circle class="cls-8" cx="497.62" cy="122.14" r="29.61"/>
      <ellipse class="cls-14" cx="642.92" cy="193.9" rx="14.41" ry="16.49"/>
      <ellipse class="cls-18" cx="541.08" cy="153.24" rx="13.14" ry="12.6"/>
      <ellipse class="cls-22" cx="334.24" cy="196.04" rx="19.05" ry="13.9"/>
      <ellipse class="cls-13" cx="298.32" cy="191.68" rx="12.27" ry="13.23"/>
    </g>
    <g id="Big_lightning_glow" data-name="Big lightning glow" filter="url(#big_lightning_glow_blur)">
      <path class="cls-79" d="M492.12,168.91c-7.37-7.33-21.13,5.16-28.1,8.87-13.94,8.13-24.71,13.71-10.21-6.63,7.49-12.26,14.45-25.21,21.18-37.73,9.88-16.8,8.41-25.12-10.51-28.59-16.54-2.66-24.37,4.4-30.68,18.8-6.51,12.4-10.43,25.87-14.47,39.24-6.04,17.02-11.46,34.28-17.21,51.38-5.06,12.78-3.1,21.22,11.76,13.71,11.28-5.93,21.27-15.43,33.68-18.79,8.73-1.61,2.21,11.07,1.56,15.3-2.22,7.84-2.91,16.59-4.55,24.85-1.13,6.39-3.72,15.06-1.74,20.4,2.34,6.99,18.4,14.34,24.28,9.08,3.94-3.85,4.74-10.04,6.47-15.12,1.64-5.46,3.84-12.66.46-15.88-3.43-3.49-11.43-3.39-9.81-10.06,2.2-8.28,7.67-15.46,12.19-22.84,5.26-8.41,10.55-16.82,14.01-26.27,2.08-5.94,5.5-13.91,1.8-19.57l-.11-.14Z"/>
      <path class="cls-68" d="M492.12,168.91c-7.37-7.33-21.13,5.16-28.1,8.87-13.94,8.13-24.71,13.71-10.21-6.63,7.49-12.26,14.45-25.21,21.18-37.73,9.88-16.8,8.41-25.12-10.51-28.59-16.54-2.66-24.37,4.4-30.68,18.8-6.51,12.4-10.43,25.87-14.47,39.24-6.04,17.02-11.46,34.28-17.21,51.38-5.06,12.78-3.1,21.22,11.76,13.71,11.28-5.93,21.27-15.43,33.68-18.79,8.73-1.61,2.21,11.07,1.56,15.3-2.22,7.84-2.91,16.59-4.55,24.85-1.13,6.39-3.72,15.06-1.74,20.4,2.34,6.99,18.4,14.34,24.28,9.08,3.94-3.85,4.74-10.04,6.47-15.12,1.64-5.46,3.84-12.66.46-15.88-3.43-3.49-11.43-3.39-9.81-10.06,2.2-8.28,7.67-15.46,12.19-22.84,5.26-8.41,10.55-16.82,14.01-26.27,2.08-5.94,5.5-13.91,1.8-19.57l-.11-.14Z"/>
    </g>
    <g id="Big_lightning" data-name="Big lightning">
      <path class="cls-2" d="M444.41,108.31l-44.49,129.56,57.08-40.57-16.51,87.31,8.39-18.59,13.16-10.38-4.2,36.25,20.71-53.17-25.46,18.47,39.74-93.46-54.57,32.74,41.97-77.79c-4.76-10.63-20.99-17.91-35.82-10.35Z"/>
    </g>
    <g id="Big_lightning_highlights" data-name="Big lightning highlights">
      <polygon class="cls-84" points="461.39 109.95 447.73 111.27 408.4 225.9 423.62 210.55 461.39 109.95"/>
      <polygon class="cls-69" points="471.35 115.11 461.39 109.95 423.62 210.55 430.1 204.44 471.35 115.11"/>
      <polygon class="cls-69" points="423.62 210.55 408.4 225.9 421.4 222.22 426.46 219.01 457 197.3 453.02 218.35 449.27 262.16 463.8 186.35 423.62 210.55"/>
      <polygon class="cls-69" points="485.54 172.43 480.46 175.68 451.06 259.05 485.54 172.43"/>
      <polygon class="cls-87" points="459.01 281.8 470.7 248.07 444.06 265.74 443.2 270.3 445.49 273.52 448.88 266.01 462.04 255.63 459.01 281.8"/>
      <polygon class="cls-4" points="472.99 120.3 430.1 204.44 439.22 194.66 477.81 123.15 472.99 120.3"/>
    </g>
    <g id="Mid_yellow_lightning" data-name="Mid yellow lightning">
      <path class="cls-78" d="M407.8,154.93s-3.3,4.91-5.91,7.44c-1.95,1.89-7.94,5.18-12.39,9.1,0,0,0,0,0,0-5.66-.88-14.8-6.44-14.8-6.44,1.44,3.75,12.29,8.94,12.29,8.94,0,0,.01,0,.01,0-.49.57-.94,1.14-1.31,1.72-3.65,5.72-5.27,9.48-6.59,12.59-.64,1.52-2.76,6.49-2.76,6.49,0,0-4.33,2.73-11.85,4.96-5.22,1.54-9.18,4.01-12.35,6.83,0,0,0-.01,0-.02-.99-2.27-6.18-6.98-6.18-6.98,3.89,4.45,5.19,7.89,5.19,7.89,0,0,.01,0,.02,0-5.17,4.98-8.1,10.88-10.99,15-1.89,2.7-3.69,6.97-4.65,12.45v-.06c-5.66,27.83-23.63,33.51-33.92,39.9l-2.48,6.84-6.99,3.31,6.84-2.18-.9,16.68-2.53,4.68h0c-3.89,3.81-7.52,22.68-7.52,22.68,0,0-12.27,19.42-12.27,27.12l3.74-.96c-.22-6.54,7.3-17.82,10.57-23.54,3.27-5.72,5.39-19.62,7.03-21.91,1.63-2.29,5.56-4.27,10.79-4.74,3.64-.33,9.65-2.43,14.13-6.48l.11-.09s2.24,7.64-4.5,13.66c0,0,5.42-3.37,6.26-8.43.84-5.06-.78-6.19-.78-6.19l-.03.03c1.49-1.55,2.76-3.36,3.6-5.42,2.86-3.12-1.63-13.24-1.63-13.24,1.15-4.95,12.79-19.13,12.79-19.13-.16-1.14-.94-15.04,0-21.58s7.33-16.23,13.49-24.94c.77-1.09,1.67-2.04,2.66-2.91l4.91-.55-3.52-.54c7.73-5.66,19.76-6.76,24.88-12.19,0,0,2.04-9.85,10.83-20.17,5.56-5.28,10.35-6.68,13.29-9.96,2.21-4.33,12.13-15.87,12.13-15.87l3.76-6.05-12.5,12.26ZM335.28,256.91s-7.5,8.23-9.3,11.15c0,0-5.94,5.92-1.31,16.51.76,12.66-14.61,15.53-14.61,15.53,0,0-8.74,1.34-13.15,3.16h.02s2.53-3.73,2.53-3.73l.73-17.14c2.22-2.39,1.71-6.65,1.71-6.65l14.5-8.02c14.5-8.02,18.45-24.91,18.45-24.91v-.05c-.02,1.96.07,4.02.28,6.17.35,3.49.14,7.98.14,7.98Z"/>
      <g>
        <path class="cls-78" d="M518.8,227.68c-.27-.28-.43-.48-.43-.48.07.16.23.32.43.48Z"/>
        <path class="cls-78" d="M627.56,223.75l-4.93,1.95-19.79-4.42c-.32-3.05-.1-10.28-2.46-13.5-4.25-7.22-12.65-10.45-12.65-10.45,0,0,3.65-3.65.68-11.72-2.97-8.07-12.82-9.77-12.82-9.77,2.55-4.5,9.68-7.73,9.68-7.73-5.94,1.02-12.65,7.47-12.65,7.47-6.73,1.72-17.38,2.11-26.5,0-5.45-1.26-14.44-5.69-20.88-13.01-4.74-3.44-8.19-5.07-8.08-5.17,9.77.51,18.68-9.6,18.68-9.6-3.44,2.84-13.45,8.35-23.95,5.61l-21.4-21.4-3.31-.59,19.96,23.01-7.9.34c11.21,1.87,12.23,3.82,16.48,5.44,2.16.82,5.93,3.72,9.12,6.37.01.02,7.39,12.01,6.77,24.81l7.61,6.67s.83,6.41-2.14,11.31c-2.97,4.9-5.84,10.94-6.77,14.17s-1.72,6.3-4.12,6.3c-2.08,0-6.01-1.1-7.38-2.18.71.75,2.24,2.18,3.94,2.59,2.34.57,5.57.89,7.03-2.08,1.46-2.97,1.98-6.56,2.6-8.02.63-1.46,2.97-6.1,5.16-8.65,2.19-2.55,2.71-5.68,2.71-5.68l10.52,12.56c-.05,5.42-.83,12.35-.83,15.32s-.05,3.59-.05,3.59c1.67,4.5,10.68,9.57,14.43,10.87,3.86,1.35,5.89,9.91,5.89,12.47s-3.86,4.58-3.59,9.07c.26,4.48.75,4.73.75,4.73l2.4-.62s-.91-1.82-.86-3.85c.05-2.03,4.12-6.93,4.17-8.96.05-2.03-3.86-13.69-7.24-14.48s-13.02-6.36-13.65-13.03c-.35-3.76-.06-7.43.26-10.36,0,0,5.19,1.93,8.01,4.82,0,0-4.63-4.69-7.84-6.24.19-1.61.36-2.91.36-3.75,0,0-9.64-11.93-11.88-13.23,0,0,.73-3.65.63-5.78s0-2.29-7.61-8.39c0,0,1-9.92-3.61-19.05l-5.63-4.9c3.09,2.57,5.63,4.9,5.63,4.9-.81-1.07,11.89,8.58,26.12,9.26,10.87-1.35,15.63-2.88,21.35-.42,4.5,1.93,9.17,6.54,9.38,10.36s-4.48,8.92-4.48,8.92c4.73-.51,8.26,1.95,12.34,6.54,6.21,5.82,5.65,17.54,5.61,17.32,0,0,.89.78,2.07,2.07,0,.02.38,6.72-2.95,11.68,0,0,3.09-2.91,3.62-10.91,2.63,3.07,6.02,8.16,4.69,12.99,0,0,3.08-5.32-6.1-15.53l19.14,4.21c1.44,2.46,2.55,5.69,3.06,12.8.51,7.11-2.46,9.96-2.04,18.52l2.88-.7c0-5.22,1.28-7.95,1.96-16.22.68-8.27-3.4-15.42-3.4-15.42l3.82-3.23ZM552.45,223.13c.05-.47.1-.92.16-1.36l-.16,1.36Z"/>
      </g>
    </g>
    <g id="Mid_blue_lightning" data-name="Mid blue lightning">
      <path class="cls-88" d="M443.72,222.44l-1.8,13.29s-2.13,4.75-11.82,3.13c0,0-4.35,5.55-11.99,10.41l2.19,11.17-5.03,9.02-13.65,10.29,3.31,18.62s-2.75,1.81-6.68,3.56c-.37-11.35-2.17-14.06-4.1-14.06s-5.44-3.02-5.44-3.02c0,0-6.05,2.3-8.71,2.66-2.66.36-6.17-2.9-6.17-2.9l-6.08,6.59s-1.78-1.63-2.99-4.05c-1.21-2.42-7.74-7.26-7.74-7.26,0,0,3.27,2.78,6.53,7.86,3.27,5.08,5.08,5.46,5.08,5.46l5.69-6.79c1.81,2.18,5.69,2.52,5.69,2.52l8.95-2.52s2.06,2.66,5.2,2.9c3.14.24,2.74,13.17,2.74,13.19-1.41.58-2.93,1.12-4.51,1.56-6.76,1.88-7.11,3.28-9.52,8.56-1.1,2.42-13.17,12.22-13.69,16.08h1.27s4.55-6.34,10.34-10.48c0,0,4.14-4.14,5.79-7.31,1.66-3.17,2.71-3.03,9.29-5.66,6.58-2.62,10.02-4.55,11.54-5.93l-3.03-18.75s10.83-8.01,12.45-9.39c1.62-1.38,5.9-9.03,5.9-9.03l-1.79-11.8,10.62-8.28,6.62-1.1s4.69-.14,6.21-6.34c1.52-6.21,1.99-12.2,1.99-12.2h-2.65Z"/>
      <path class="cls-88" d="M372.85,229.17s-8.95-.36-13.07,9.92,6.53,23.06,6.53,23.06c0,0-10.41-10.11-8.59-20.76s11.13-11.98,15.12-12.22Z"/>
      <path class="cls-88" d="M439.76,285.56s-1.02,5.85,4.48,7.04c2.95.64,3.79,3.87,3.89,4.96,0,1.52,4.57,5.47,4.57,5.47.14.03-3.3-2.6-3.99-5.76-.6-2.69-2.49-4.58-3.46-4.76-.91-.17-5.17-.15-5.49-6.95Z"/>
      <path class="cls-88" d="M522.59,286.26s.22-4.4-7.82-7.66c-8.05-3.26-9.07-3.04-9.07-3.04l-2.58-4.73,2.89,3.61s8.05,2.12,10.9,3.55,6.32,4.62,6.83,8.27h-1.14Z"/>
      <path class="cls-88" d="M458.78,304.71s-3.09-1.19-2.49-8.41c.21-2.55,2.19-5.14,2.19-5.14,0,0-3.04,1.61-3.61,5.64-.57,4.03,2.08,8.35,2.08,8.35l1.83-.44Z"/>
      <path class="cls-88" d="M464.12,303.42s-1.32-19.29-2.17-22.12-3.17,6.72-3.17,6.72v16.69l5.34-1.29Z"/>
      <path class="cls-88" d="M465.77,301.75s-.42-3.57,2.53-6.79c1.29-1.42,1.28-5.02,3.3-6.3s2.45-2.39,6.27-2.4c0,0,.6-3.85,5.73-6.73,2.26-1.27.07-5.16,0-7.25s-.28-4.57,1.42-5.84c0,0-2.62,1.56-2.62,4.81s1.38,3.04,1.27,6.23c-.07,2.05-4.81,3.54-6.3,7.5,0,0-5.8,1.27-7.78,4.03-.55.73-.54,2.14-1.7,4.67-2.26,3.54-2.69,5.02-2.12,8.07Z"/>
      <path class="cls-88" d="M528.57,277.04c-1.2-1.35-3.99-2.03-4.43-5.78-.44-3.75-1.05-6-3.38-7.2s-6.98-3.98-6.98-3.98l5.85-13.58-13.64-9.49c.33-1.1,1.54-5.26,2.39-8.82,1.28-5.4-.3-13.06-2.18-13.13-.34-.01-.84-.17-1.43-.43v-7l-1.1,6.48c-2.62-1.41-6.08-4.13-6.56-6.33-.68-3.08-2.63-8.7-5.48-9.68-7.09-2.43-10.4-7.16-10.4-7.16l-.63,1.49s4.66,4.92,8.86,6.12c4.2,1.19,4.43,3.98,6.38,9.61.24.7.52,1.31.84,1.87.04.08-.23.54-.23.54,0,0-2.1,4.13-4.5,4.13s-4.99-.01-7.73,2.85c-1.65,1.73-2.97,1.2-2.97,1.2,0,0,.42,1.02,4.29-1.35,1.84-1.13,2.36-1.93,6.34-1.64,3.98.29,5.51-4.63,5.51-4.63h0c1.83,2.48,4.4,3.51,6.79,4.76.03.02.06.04.09.05l-5.04,14.96c-1.88,4.28,1.95,5.7,1.95,5.7l15.16,10.81-5.4,12.61s-.9.75,3.6,2.85,6.98,3.23,7.65,6.38c0,0,.38,4.65,3.98,7.28,3.6,2.63,4.18,7.88,4.18,7.88l1.36-.33s-1.94-5.68-3.14-7.03ZM500.23,232.99l5.53-16.21c3.46,2.21,1.65,12.44-.53,19.22-.02.06-.08.22-.14.37l-4.86-3.38Z"/>
    </g>
    <g id="Top_cloud_blue_lightning" data-name="Top cloud blue lightning">
      <polygon class="cls-88" points="295.23 149.72 284.96 140.21 281.39 140.21 276.42 130.44 280.55 140.49 277.83 140.49 271.63 134.85 277.83 141.61 284.49 141.24 294.32 150.42 295.23 149.72"/>
      <path class="cls-88" d="M342.49,118.46l-4.57-4.34s-4.38-4.09-10-.48c-5.62,3.62-8.47,4.65-12.09,1.66s-4.48-2.33-4.29-10.61-.02-11.05-.02-11.05c0,0,3.5-1.9-13.4-7.33-16.9-5.43.79.26.79.26l12.21,3.74s2.38-1.24,2.1,5.43c-.29,6.67-.76,13.9-.76,13.9.04,2.73,3.62,3.9,3.62,3.9,0,0,3.71,4.19,8.19.57s10.95-4.95,16,.19l5.05,5.14-2.81-.99Z"/>
      <path class="cls-88" d="M348.73,120.12l.48-5.14-2.57-6.09s.1-2.95-2.19-4.38c0,0,.57-.76,2.29,1.43s1.33,4.86,2.48,6.76.7,8.08.7,8.08l-1.18-.65Z"/>
      <path class="cls-88" d="M359.68,120.31l-2.1-8.19c-1.14-3.81-.19-6.57,1.05-8.86l-5.81-9.05s-3.43-2.38.57-6.09,12.45-11.24,12.45-11.24c.69-3.71,7.93-8.67,8.88-10.95l-7.61,11.14s-8.49,8.48-11.53,11.24c-3.05,2.76.57,8,.57,8l4.76,6.57s-2.67,3.43-1.52,8.48c1.14,5.05,1.81,8.09,1.81,8.09l-1.52.86Z"/>
      <path class="cls-88" d="M560.31,104l7.71-3.76s3.36,2.17,9.29,1.88c0,0,5.04-5.93,12.56-10.38l1.09-12.06,7.71-6.62-8.8,5.73-1.09,12.16-11.76,9.59s-6.33.4-8.01-1.48l4.05-9.1s2.08-3.66-.2-7.41c-2.27-3.76-2.77-3.26-2.77-3.26,1.78,4.65,3.16,7.61.49,12.36-2.67,4.75-3.76,7.12-3.76,7.12l-7.51,3.56.99,1.68Z"/>
      <path class="cls-88" d="M576.23,120.9c.1-4.55.1-9.29,8.01-9.89,0,0-.99-1.19-4.45-.59s-5.64,6.52-5.24,10.48,1.68,0,1.68,0Z"/>
      <path class="cls-88" d="M581.17,123.67s-1.56-1.88,1.69-3.95,3.35-3.86,5.13-4.84,5.44-4.78,7.12-4.61,4.35,2.24,6.52,2.14,1.97-3.16,5.63-3.16,6.63,2.87,11.17,2.47,6.82-3.16,8.6-5.24,4.25-3.86,7.41,0c0,0-4.28-2.37-5.94.3s-5.33,6.23-8.29,6.23-10.16-2.17-12.59-2.17-2.83,2.57-5.79,2.57-5.54-1.38-7.22-1.19-6.82,3.86-8.11,5.44-4.94,3.86-5.34,6.03Z"/>
      <path class="cls-88" d="M611.88,148.67l-.33-.17c.14-.28,3.54-6.81,6.95-7.41,3.26-.57,11.37-10.61,11.46-10.71l.13-.16.14.15s1,1.04,2.73.89c1.61-.14,4.21-1.35,7.46-6.3l.31.2c-2.68,4.08-5.29,6.26-7.74,6.47-1.53.13-2.51-.56-2.87-.86-1.08,1.32-8.35,10.12-11.55,10.69-3.23.57-6.66,7.15-6.69,7.22Z"/>
    </g>
    <g id="Sparks">
      <circle class="cls-23" cx="314.47" cy="221.05" r="3.88"/>
      <circle class="cls-33" cx="261.46" cy="171.57" r="2.39"/>
      <ellipse class="cls-34" cx="237.53" cy="176.95" rx="3.84" ry="3.56"/>
      <ellipse class="cls-29" cx="217.69" cy="193.86" rx="1.92" ry="1.78"/>
      <ellipse class="cls-30" cx="261.03" cy="231.3" rx="6.05" ry="6.61"/>
      <circle class="cls-26" cx="276.9" cy="234.2" r="1.52"/>
      <circle class="cls-25" cx="301.93" cy="276.38" r="5.38"/>
      <circle class="cls-45" cx="350.77" cy="293.2" r="4.27"/>
      <circle class="cls-46" cx="651.98" cy="144.86" r="3.19"/>
      <ellipse class="cls-31" cx="684.65" cy="166.98" rx="6.46" ry="6.07"/>
      <ellipse class="cls-35" cx="642.92" cy="216.19" rx="7.28" ry="6.9"/>
      <ellipse class="cls-42" cx="340.85" cy="324.68" rx="2.43" ry="2.66"/>
      <ellipse class="cls-41" cx="306.88" cy="323.57" rx="2.25" ry="2.6"/>
      <circle class="cls-40" cx="396.53" cy="252.96" r="1.72"/>
      <circle class="cls-38" cx="395.87" cy="262.16" r="1.72"/>
      <circle class="cls-32" cx="434.89" cy="264.55" r="1.2"/>
      <circle class="cls-36" cx="435.37" cy="295.82" r="1.44"/>
      <ellipse class="cls-27" cx="482.05" cy="255.13" rx=".8" ry="1.2"/>
      <circle class="cls-28" cx="531.3" cy="250.28" r="2.1"/>
      <circle class="cls-39" cx="555.31" cy="258.11" r="1.2"/>
      <circle class="cls-60" cx="575.73" cy="247.74" r="1.2"/>
      <circle class="cls-58" cx="598.57" cy="241.59" r=".8"/>
      <circle class="cls-57" cx="668.72" cy="241.06" r=".8"/>
      <circle class="cls-61" cx="394.8" cy="314.06" r="1.44"/>
      <circle class="cls-62" cx="416.83" cy="291.88" r=".72"/>
      <circle class="cls-59" cx="486.03" cy="267" r="1.44"/>
      <circle class="cls-63" cx="501.67" cy="272.28" r="1.44"/>
    </g>
  </g>
</svg>
