<?xml version="1.0" encoding="UTF-8"?>
<svg xmlns="http://www.w3.org/2000/svg" width="256" height="256" xmlns:xlink="http://www.w3.org/1999/xlink" viewBox="0 0 256 256">
  <defs>
    <style>
      .cls-1 {
        fill: #9bfbfb;
      }

      .cls-1, .cls-2, .cls-3, .cls-4, .cls-5, .cls-6, .cls-7, .cls-8, .cls-9, .cls-10, .cls-11, .cls-12, .cls-13, .cls-14, .cls-15, .cls-16, .cls-17, .cls-18, .cls-19, .cls-20, .cls-21, .cls-22 {
        stroke-width: 0px;
      }

      .cls-2 {
        fill: url(#radial-gradient);
      }

      .cls-3 {
        fill: #ffd736;
      }

      .cls-4 {
        fill: #fffdb8;
      }

      .cls-5 {
        fill: url(#linear-gradient-11);
      }

      .cls-6 {
        fill: url(#linear-gradient-12);
      }

      .cls-7 {
        fill: url(#linear-gradient-10);
      }

      .cls-23 {
        stroke: url(#linear-gradient-5);
      }

      .cls-23, .cls-24, .cls-25, .cls-26, .cls-27 {
        fill: none;
        stroke-linecap: round;
        stroke-miterlimit: 10;
        stroke-width: 3.66px;
      }

      .cls-24 {
        stroke: url(#linear-gradient-2);
      }

      .cls-25 {
        stroke: url(#linear-gradient-3);
      }

      .cls-26 {
        stroke: url(#linear-gradient-4);
      }

      .cls-27 {
        stroke: url(#linear-gradient);
      }

      .cls-8 {
        fill: #104473;
      }

      .cls-9, .cls-17 {
        fill: #000;
      }

      .cls-10 {
        fill: url(#radial-gradient-2);
      }

      .cls-11 {
        fill: url(#radial-gradient-3);
      }

      .cls-12 {
        fill: url(#radial-gradient-4);
      }

      .cls-13 {
        fill: url(#radial-gradient-6);
      }

      .cls-14 {
        fill: url(#radial-gradient-8);
      }

      .cls-15 {
        fill: url(#radial-gradient-5);
      }

      .cls-16 {
        fill: url(#radial-gradient-7);
      }

      .cls-17 {
        opacity: .5;
      }

      .cls-18 {
        fill: url(#linear-gradient-8);
      }

      .cls-19 {
        fill: url(#linear-gradient-9);
      }

      .cls-20 {
        fill: url(#linear-gradient-7);
      }

      .cls-21 {
        fill: url(#linear-gradient-6);
      }

      .cls-22 {
        fill: #231f20;
      }
    </style>
    <radialGradient id="radial-gradient" cx="129.6" cy="115.19" fx="129.6" fy="115.19" r="126.82" gradientUnits="userSpaceOnUse">
      <stop offset=".22" stop-color="#063a9a"/>
      <stop offset=".94" stop-color="#063a64" stop-opacity="0"/>
    </radialGradient>
    <linearGradient id="linear-gradient" x1="162.53" y1="130.46" x2="162.53" y2="223.89" gradientUnits="userSpaceOnUse">
      <stop offset="0" stop-color="#8f2217"/>
      <stop offset=".51" stop-color="#fca426"/>
      <stop offset="1" stop-color="#f2ca31"/>
    </linearGradient>
    <linearGradient id="linear-gradient-2" x1="180.9" y1="136.7" x2="180.9" y2="224.32" xlink:href="#linear-gradient"/>
    <linearGradient id="linear-gradient-3" x1="191.84" y1="136.7" x2="191.84" y2="218.2" xlink:href="#linear-gradient"/>
    <linearGradient id="linear-gradient-4" x1="58.35" y1="130.9" x2="58.35" y2="206.43" gradientUnits="userSpaceOnUse">
      <stop offset="0" stop-color="#3d94e6"/>
      <stop offset="1" stop-color="#7cebfe"/>
    </linearGradient>
    <linearGradient id="linear-gradient-5" x1="70.13" y1="130.46" x2="70.13" y2="192.23" gradientUnits="userSpaceOnUse">
      <stop offset="0" stop-color="#0c3254"/>
      <stop offset="1" stop-color="#2d8ab6"/>
    </linearGradient>
    <radialGradient id="radial-gradient-2" cx="137.34" cy="93.64" fx="137.34" fy="93.64" r="51.19" gradientUnits="userSpaceOnUse">
      <stop offset=".41" stop-color="#096cb4"/>
      <stop offset=".82" stop-color="#f7fdc9"/>
      <stop offset="1" stop-color="#fffde7"/>
    </radialGradient>
    <radialGradient id="radial-gradient-3" cx="98.46" cy="112.03" fx="98.46" fy="112.03" r="42.69" gradientUnits="userSpaceOnUse">
      <stop offset=".21" stop-color="#032748"/>
      <stop offset=".48" stop-color="#096cb4"/>
      <stop offset=".86" stop-color="#f7fdc9"/>
      <stop offset="1" stop-color="#fffde7"/>
    </radialGradient>
    <radialGradient id="radial-gradient-4" cx="77.79" cy="120.78" fx="77.79" fy="120.78" r="29.45" gradientUnits="userSpaceOnUse">
      <stop offset=".21" stop-color="#032748"/>
      <stop offset=".48" stop-color="#096cb4"/>
      <stop offset=".88" stop-color="#f7fdc9"/>
      <stop offset="1" stop-color="#fffde7"/>
    </radialGradient>
    <linearGradient id="linear-gradient-6" x1="33.36" y1="130.25" x2="51.24" y2="130.25" gradientUnits="userSpaceOnUse">
      <stop offset="0" stop-color="#8fecff"/>
      <stop offset=".12" stop-color="#8ae5f9"/>
      <stop offset=".28" stop-color="#7cd4ea"/>
      <stop offset=".46" stop-color="#65b7d2"/>
      <stop offset=".67" stop-color="#458eb0"/>
      <stop offset=".88" stop-color="#1d5b86"/>
      <stop offset=".94" stop-color="#114c79"/>
    </linearGradient>
    <linearGradient id="linear-gradient-7" x1="70.62" y1="109.93" x2="73.2" y2="131.77" xlink:href="#linear-gradient-6"/>
    <linearGradient id="linear-gradient-8" x1="85.57" y1="120.44" x2="105.13" y2="120.44" gradientUnits="userSpaceOnUse">
      <stop offset="0" stop-color="#2b82b0"/>
      <stop offset=".15" stop-color="#297ca9"/>
      <stop offset=".35" stop-color="#236d98"/>
      <stop offset=".58" stop-color="#1b547b"/>
      <stop offset=".83" stop-color="#0f3153"/>
      <stop offset="1" stop-color="#061734"/>
    </linearGradient>
    <radialGradient id="radial-gradient-5" cx="168.27" cy="133.54" fx="168.27" fy="133.54" r="60.66" gradientUnits="userSpaceOnUse">
      <stop offset=".5" stop-color="#052142"/>
      <stop offset=".71" stop-color="#3095cc"/>
      <stop offset=".78" stop-color="#6accf6"/>
    </radialGradient>
    <radialGradient id="radial-gradient-6" cx="198.36" cy="96.08" fx="198.36" fy="96.08" r="33.17" gradientUnits="userSpaceOnUse">
      <stop offset=".29" stop-color="#ebfad3"/>
      <stop offset=".68" stop-color="#e9f9d3"/>
      <stop offset=".72" stop-color="#dbf1d1"/>
      <stop offset=".8" stop-color="#b9dfcd"/>
      <stop offset=".9" stop-color="#81c0c6"/>
      <stop offset="1" stop-color="#419ebe"/>
    </radialGradient>
    <radialGradient id="radial-gradient-7" cx="198.13" fx="198.13" r="33.26" xlink:href="#radial-gradient-6"/>
    <linearGradient id="linear-gradient-9" x1="191.78" y1="130.53" x2="225.42" y2="130.53" gradientUnits="userSpaceOnUse">
      <stop offset="0" stop-color="#052142"/>
      <stop offset=".19" stop-color="#08284a"/>
      <stop offset=".52" stop-color="#3095cc"/>
      <stop offset="1" stop-color="#6accf6"/>
    </linearGradient>
    <linearGradient id="linear-gradient-10" x1="197.65" y1="132.72" x2="219.55" y2="132.72" gradientUnits="userSpaceOnUse">
      <stop offset="0" stop-color="#041f3f"/>
      <stop offset="1" stop-color="#196798"/>
    </linearGradient>
    <radialGradient id="radial-gradient-8" cx="143.23" cy="93.57" fx="143.23" fy="93.57" r="62.46" gradientUnits="userSpaceOnUse">
      <stop offset=".24" stop-color="#e9f9d3"/>
      <stop offset=".29" stop-color="#dbf6d8"/>
      <stop offset=".38" stop-color="#b9f1e8"/>
      <stop offset=".42" stop-color="#aaeff0"/>
      <stop offset=".84" stop-color="#89eaff"/>
      <stop offset="1" stop-color="#073c68"/>
    </radialGradient>
    <linearGradient id="linear-gradient-11" x1="158" y1="113.71" x2="65.75" y2="232.25" gradientUnits="userSpaceOnUse">
      <stop offset="0" stop-color="#de5c1e"/>
      <stop offset=".18" stop-color="#fd9f28"/>
      <stop offset=".39" stop-color="#c62a16"/>
      <stop offset=".57" stop-color="#fd9f28"/>
      <stop offset="1" stop-color="#db6b27"/>
    </linearGradient>
    <linearGradient id="linear-gradient-12" x1="158.81" y1="134.51" x2="75.86" y2="211.93" gradientUnits="userSpaceOnUse">
      <stop offset="0" stop-color="#ffb"/>
      <stop offset=".32" stop-color="#ffc52a"/>
      <stop offset=".76" stop-color="#fc9922"/>
    </linearGradient>
  </defs>
  <g id="Bg_glow" data-name="Bg glow">
    <path class="cls-2" d="M232.45,134.83c5.31-13.08,8.24-27.37,8.24-42.36,0-62.24-50.45-112.69-112.69-112.69S15.31,30.23,15.31,92.47c0,14.98,2.93,29.28,8.24,42.36h208.9Z"/>
  </g>
  <g id="Lines">
    <line class="cls-27" x1="162.53" y1="132.3" x2="162.53" y2="222.05"/>
    <line class="cls-24" x1="180.9" y1="138.54" x2="180.9" y2="222.48"/>
    <line class="cls-25" x1="191.84" y1="138.54" x2="191.84" y2="216.37"/>
    <line class="cls-26" x1="58.35" y1="132.73" x2="58.35" y2="204.6"/>
    <line class="cls-23" x1="70.13" y1="132.3" x2="70.13" y2="190.4"/>
  </g>
  <g id="Sparks_outline" data-name="Sparks outline">
    <g>
      <path class="cls-17" d="M94.79,59.23c-.09-1.65-1.28-3.04-2.9-3.38-1.85-.39-2.71-1.24-3.06-3.02-.34-1.69-1.81-2.92-3.53-2.95-.02,0-.04,0-.06,0-1.7,0-3.18,1.17-3.57,2.83-.29,1.24-1.01,2.79-4.04,3.8-.87.29-1.55.88-1.99,1.63-.97-.84-2.23-1.37-3.61-1.37-3.07,0-5.56,2.49-5.56,5.56s2.49,5.56,5.56,5.56c2.7,0,4.95-1.94,5.45-4.5.16.06.32.12.48.15,2.24.52,2.87,1.56,3.11,2.96.3,1.71,1.76,2.97,3.49,3.02.04,0,.08,0,.12,0,1.68,0,3.16-1.15,3.56-2.79.31-1.27,1.05-2.86,4.04-3.84,1.57-.52,2.61-2.03,2.52-3.68Z"/>
      <path class="cls-17" d="M212.12,162.58c-1.71-.36-2.46-1.11-2.79-2.75-.33-1.69-1.81-2.92-3.53-2.95-.02,0-.04,0-.06,0-1.7,0-3.18,1.17-3.57,2.83-.26,1.14-.93,2.57-3.75,3.51-1.56.52-2.58,2.01-2.5,3.65s1.24,3.03,2.83,3.39c2.06.48,2.61,1.38,2.84,2.69.3,1.71,1.76,2.97,3.49,3.03.04,0,.08,0,.12,0,1.68,0,3.16-1.15,3.56-2.79.29-1.17.97-2.64,3.74-3.55,1.57-.52,2.61-2.03,2.52-3.68-.09-1.66-1.28-3.04-2.9-3.38Z"/>
      <path class="cls-17" d="M147.57,202.69c-.88-.19-1.07-.44-1.21-1.18-.33-1.69-1.81-2.92-3.53-2.95-.02,0-.04,0-.06,0-1.7,0-3.18,1.17-3.57,2.83-.1.42-.28,1.2-2.02,1.79-1.56.52-2.58,2.01-2.5,3.65.08,1.64,1.24,3.03,2.84,3.39,1.12.26,1.18.62,1.27,1.12.3,1.71,1.76,2.97,3.49,3.03.04,0,.08,0,.12,0,1.68,0,3.16-1.15,3.56-2.79.16-.66.52-1.33,2.02-1.82,1.57-.52,2.61-2.03,2.52-3.68-.09-1.66-1.28-3.04-2.9-3.38Z"/>
      <path class="cls-17" d="M53.21,88.69c-1-.21-1.23-.54-1.39-1.36-.34-1.69-1.81-2.92-3.53-2.95-.02,0-.04,0-.06,0-1.7,0-3.18,1.17-3.57,2.84-.11.47-.31,1.35-2.22,1.98-1.56.52-2.58,2.01-2.5,3.65.08,1.64,1.24,3.03,2.83,3.4,1.19.27,1.34.67,1.45,1.3.3,1.71,1.76,2.97,3.49,3.02.04,0,.08,0,.12,0,1.68,0,3.16-1.15,3.56-2.79.18-.73.57-1.48,2.21-2.02,1.57-.52,2.61-2.03,2.52-3.68s-1.28-3.04-2.9-3.38Z"/>
      <path class="cls-17" d="M56.52,74.58c-3.03,0-5.5,2.47-5.5,5.5s2.47,5.5,5.5,5.5,5.5-2.47,5.5-5.5-2.47-5.5-5.5-5.5Z"/>
      <circle class="cls-17" cx="39.22" cy="112.29" r="5.66"/>
      <path class="cls-17" d="M44.76,158.4c3.04,0,5.52-2.48,5.52-5.52s-2.48-5.52-5.52-5.52-5.52,2.48-5.52,5.52,2.48,5.52,5.52,5.52Z"/>
      <path class="cls-17" d="M45.62,159.82c-3.37,0-6.11,2.74-6.11,6.11s2.74,6.11,6.11,6.11,6.11-2.74,6.11-6.11-2.74-6.11-6.11-6.11Z"/>
      <circle class="cls-17" cx="95.72" cy="185.16" r="5.55"/>
      <path class="cls-17" d="M80.1,206.13c-3.17,0-5.74,2.58-5.74,5.74s2.58,5.75,5.74,5.75,5.75-2.58,5.75-5.75-2.58-5.74-5.75-5.74Z"/>
      <path class="cls-17" d="M130.23,229.12c-3.25,0-5.89,2.64-5.89,5.89s2.64,5.9,5.89,5.9,5.89-2.64,5.89-5.9-2.64-5.89-5.89-5.89Z"/>
      <circle class="cls-17" cx="129.36" cy="219.76" r="7.57"/>
      <path class="cls-17" d="M197.24,146.56c0,3.19,2.6,5.79,5.79,5.79s5.79-2.6,5.79-5.79-2.6-5.79-5.79-5.79-5.79,2.6-5.79,5.79Z"/>
      <path class="cls-17" d="M218.38,103.27c-3.08,0-5.58,2.5-5.58,5.58s2.5,5.58,5.58,5.58,5.58-2.5,5.58-5.58-2.5-5.58-5.58-5.58Z"/>
      <path class="cls-17" d="M200.48,95.28c2.99,0,5.43-2.44,5.43-5.43s-2.44-5.43-5.43-5.43-5.43,2.44-5.43,5.43,2.44,5.43,5.43,5.43Z"/>
      <path class="cls-17" d="M197.39,82.53c0-3.07-2.5-5.57-5.57-5.57-.27,0-.52.04-.78.08.11-.39.16-.79.14-1.21-.09-1.65-1.28-3.04-2.9-3.38-1.06-.22-1.3-.61-1.47-1.43-.33-1.69-1.81-2.92-3.53-2.95-.02,0-.04,0-.06,0-1.7,0-3.18,1.17-3.57,2.84-.17.73-.56,1.48-2.3,2.06-1.56.52-2.58,2.01-2.5,3.65.08,1.64,1.24,3.03,2.83,3.39,1.24.29,1.41.73,1.52,1.37.3,1.71,1.76,2.97,3.49,3.02.04,0,.08,0,.12,0,1.64,0,3.07-1.1,3.52-2.68-.04.27-.08.53-.08.81,0,3.07,2.5,5.57,5.57,5.57s5.57-2.5,5.57-5.57Z"/>
      <circle class="cls-17" cx="185.95" cy="62.77" r="5.61"/>
      <circle class="cls-17" cx="81.81" cy="148.38" r="5.53"/>
      <circle class="cls-17" cx="79.94" cy="198.46" r="5.46"/>
      <path class="cls-17" d="M213.15,146.31c-3.1,0-5.62,2.52-5.62,5.62s2.52,5.62,5.62,5.62,5.62-2.52,5.62-5.62-2.52-5.62-5.62-5.62Z"/>
    </g>
  </g>
  <g id="Black_outline" data-name="Black outline">
    <path class="cls-9" d="M83.67,244.22c-1.41,0-2.83-.4-4.07-1.24-3.06-2.05-4.12-6.04-2.49-9.34l29.37-59.3h-21.3c-2.58,0-4.96-1.35-6.29-3.56s-1.39-4.95-.17-7.23l33.1-61.69c1.28-2.38,3.76-3.86,6.46-3.86h33.34c2.62,0,5.03,1.4,6.34,3.66,1.31,2.27,1.31,5.06,0,7.33l-12.83,22.23h24.87c2.88,0,5.49,1.68,6.67,4.3,1.19,2.62.73,5.69-1.17,7.86l-86.34,98.36c-1.44,1.64-3.46,2.49-5.51,2.49Z"/>
    <path class="cls-22" d="M191.78,142.15c-.48,0-.95-.05-1.4-.14-.46.09-.93.14-1.4.14H33.36c-2.71,0-5.19-1.49-6.47-3.88-1.27-2.39-1.12-5.29.39-7.53,3.37-5.01,8.11-8.7,13.58-10.71-.01-.36-.02-.73-.02-1.09,0-11.2,6.53-21.05,16.4-25.55,2.66-16.48,17.02-29.14,34.22-29.14.51,0,1.02.01,1.53.03,6.27-16.8,22.51-28.4,40.92-28.4,24.08,0,43.66,19.59,43.66,43.66,0,.93-.03,1.85-.09,2.78,8.5.6,16.2,5,21.04,11.95,11.82,3.37,20.12,14.02,20.3,26.57,4.96,1.94,9.34,5.29,12.54,9.68,1.62,2.23,1.85,5.18.6,7.63-1.25,2.46-3.77,4-6.53,4h-33.64Z"/>
    <path class="cls-9" d="M84.68,65.89c-.56-3.19-2.56-5.13-5.9-5.9,3.52-1.17,5.72-3.29,6.45-6.45.64,3.24,2.61,5.2,5.9,5.9-3.59,1.18-5.7,3.36-6.45,6.45Z"/>
    <path class="cls-9" d="M182.81,80.74c-.41-2.33-1.87-3.74-4.3-4.3,2.57-.86,4.17-2.4,4.71-4.71.47,2.36,1.9,3.8,4.3,4.3-2.62.86-4.16,2.45-4.71,4.71Z"/>
    <path class="cls-9" d="M205.2,172.32c-.54-3.04-2.44-4.89-5.63-5.63,3.36-1.12,5.46-3.14,6.16-6.16.61,3.09,2.49,4.97,5.63,5.63-3.43,1.13-5.44,3.21-6.16,6.16Z"/>
    <path class="cls-9" d="M142.39,210.71c-.39-2.19-1.76-3.52-4.05-4.05,2.42-.81,3.93-2.26,4.43-4.43.44,2.23,1.79,3.57,4.05,4.05-2.47.81-3.91,2.31-4.43,4.43Z"/>
    <path class="cls-9" d="M47.83,96.9c-.4-2.29-1.84-3.68-4.23-4.23,2.52-.84,4.1-2.36,4.63-4.63.46,2.32,1.87,3.73,4.23,4.23-2.58.85-4.09,2.41-4.63,4.63Z"/>
    <circle class="cls-9" cx="56.52" cy="80.08" r="1.83"/>
    <circle class="cls-9" cx="39.22" cy="112.29" r="1.99"/>
    <circle class="cls-9" cx="44.76" cy="152.88" r="1.86"/>
    <circle class="cls-9" cx="45.62" cy="165.93" r="2.45"/>
    <circle class="cls-9" cx="95.72" cy="185.16" r="1.88"/>
    <circle class="cls-9" cx="80.1" cy="211.88" r="2.08"/>
    <circle class="cls-9" cx="130.23" cy="235.01" r="2.23"/>
    <circle class="cls-9" cx="129.36" cy="219.76" r="3.91"/>
    <circle class="cls-9" cx="203.04" cy="146.56" r="2.13"/>
    <circle class="cls-9" cx="218.38" cy="108.85" r="1.92"/>
    <circle class="cls-9" cx="200.48" cy="89.85" r="1.77"/>
    <circle class="cls-9" cx="191.82" cy="82.53" r="1.91"/>
    <circle class="cls-9" cx="185.95" cy="62.77" r="1.94"/>
    <circle class="cls-9" cx="72.03" cy="62.34" r="1.9"/>
    <circle class="cls-9" cx="81.81" cy="148.38" r="1.87"/>
    <circle class="cls-9" cx="79.94" cy="198.46" r="1.8"/>
    <circle class="cls-9" cx="213.15" cy="151.93" r="1.96"/>
  </g>
  <g id="Clouds">
    <circle class="cls-10" cx="133.89" cy="79.54" r="36.34"/>
    <circle class="cls-11" cx="91.45" cy="98.9" r="27.33"/>
    <path class="cls-12" d="M55.57,134.83h26.73c2.74-2.32,4.88-5.33,6.14-8.76-1.21-4.19-2.53-20.48-24.32-27.16-.05-.02,0-.11,0-.17-9.15,2.18-15.96,10.38-15.96,20.2,0,6.38,2.88,12.08,7.41,15.89Z"/>
    <path class="cls-8" d="M51.23,129.77s0,.02-.02.02c-4.7.29-8.97,2.14-12.31,5.04h16.67c-1.71-1.44-3.16-3.15-4.34-5.06Z"/>
    <path class="cls-21" d="M49.3,125.67c-6.64.41-12.44,3.95-15.94,9.16h5.55c3.34-2.9,7.62-4.75,12.31-5.04,0,0,.01-.01.02-.01-.79-1.28-1.44-2.66-1.94-4.1Z"/>
    <path class="cls-20" d="M89.02,123.39c-2.06-6.97-8.49-12.05-16.12-12.05-9.29,0-16.82,7.53-16.82,16.82,0,2.37.5,4.63,1.38,6.67h3.05c-.6-1.58-.94-3.28-.94-5.06,0-7.92,6.42-14.35,14.35-14.35,6.25,0,11.56,4.01,13.52,9.58.48-.58,1.01-1.11,1.58-1.61Z"/>
    <path class="cls-22" d="M112.83,134.83c.01-.23.04-.46.04-.7,0-7.92-6.42-14.35-14.35-14.35-4.46,0-8.44,2.03-11.08,5.23-1.97-5.58-7.27-9.58-13.52-9.58-7.92,0-14.35,6.42-14.35,14.35,0,1.78.34,3.48.94,5.06h52.32Z"/>
    <path class="cls-18" d="M98.01,115.88c-4.94,0-9.37,2.14-12.44,5.53.79,1.09,1.42,2.3,1.87,3.59,2.63-3.19,6.62-5.23,11.08-5.23,1.98,0,3.87.4,5.59,1.13l1.03-3.45c-2.16-1.01-4.57-1.58-7.12-1.58Z"/>
    <path class="cls-15" d="M193.39,131.21l.31-.52c.41-1.48.61-2.98.61-4.46,0-9.3-7.57-16.87-16.87-16.87-.5,0-.99.03-1.48.08l-1.09.1-.22-1.07c-.99-4.88-4.09-9.06-8.49-11.45l-1.81-.98,1.73-1.12c.32-.21.65-.4.98-.59l.15-.09c.3-.16.59-.31.89-.45.44-.21.88-.41,1.34-.58.14-.05.28-.1.42-.14l.17-.06c.4-.14.81-.26,1.22-.37,0,0,.38-.1.51-.13.56-.13,1.14-.23,1.72-.31l.36-.04c.8-.08,1.4-.12,1.97-.12,7.27,0,13.84,4.44,16.6,11.12.26.02.51.05.77.08.21.03.41.06.61.09.31.05.55.09.79.14,6.06,1.23,11.12,5.59,13.22,11.38.63,1.73,3.39,8.98,3.42,9.07l-.52,3.64c-.75-.08-1.44-.12-2.1-.12-.53,0-1.09.03-1.77.09-2.73.25-5.32,1.04-7.71,2.38-1.41.79-2.7,1.73-3.86,2.82l-1.88-1.52Z"/>
    <path class="cls-13" d="M193.88,100.74c-3.48-6.63-10.42-11.16-18.42-11.16-3.23,0-6.28.74-9.01,2.05l-.52,3.91c.26.13.52.26.78.39l1.59-.89c2.26-1.13,4.81-1.77,7.51-1.77,7.26,0,13.42,4.62,15.75,11.07,6.96.22,12.84,4.7,15.09,10.93.64,1.76,4.19,11.08,4.19,11.08.41-1.63.65-3.33.65-5.09,0-10.4-7.64-18.99-17.6-20.53Z"/>
    <path class="cls-16" d="M193.88,100.74c-3.48-6.63-10.42-11.16-18.42-11.16-3.23,0-6.28.74-9.01,2.05l-1.32,3.54c.26.13,1.32.62,1.58.76l1.59-.89c2.26-1.13,4.81-1.77,7.51-1.77,7.26,0,13.42,4.62,15.75,11.07,6.96.22,12.84,4.7,15.09,10.93.64,1.76,4.19,11.08,4.19,11.08.41-1.63.65-3.33.65-5.09,0-10.4-7.64-18.99-17.6-20.53Z"/>
    <path class="cls-19" d="M225.42,134.83c-3.78-5.2-9.9-8.6-16.82-8.6s-13.04,3.39-16.82,8.6h33.64Z"/>
    <path class="cls-7" d="M219.55,134.83c-2.91-2.61-6.74-4.21-10.95-4.21s-8.05,1.6-10.95,4.21h21.91Z"/>
    <path class="cls-14" d="M177.44,108.14c-.54,0-1.07.03-1.59.08-1.36-6.68-6.39-12.02-12.9-13.82-.94-12.45-11.32-22.27-24.01-22.27-9,0-16.83,4.94-20.97,12.25-2.25-.86-4.69-1.36-7.25-1.36-11.19,0-20.27,9.07-20.27,20.27,0,1.81.24,3.56.68,5.23l4.06-.81c-.4-1.4-.61-2.89-.61-4.42,0-8.91,7.23-16.14,16.14-16.14,3.58,0,6.87,1.18,9.55,3.15,2.67-7.7,10.17-13.26,19.01-13.26,11.08,0,20.07,8.71,20.07,19.46,0,.37-.04.74-.06,1.1,6.05,1.28,10.98,5.59,13.14,11.26l1.2,3.49c1.21-.33,2.48-.52,3.8-.52,7.96,0,14.4,6.45,14.4,14.4,0,1.29-.19,2.53-.5,3.72l3.49,1.23c.45-1.57.7-3.23.7-4.95,0-9.99-8.1-18.09-18.09-18.09Z"/>
    <path class="cls-22" d="M104.9,118.33l-.79,2.58,1.42,13.92h83.46c1.79-2.4,2.87-5.37,2.87-8.6,0-7.96-6.45-14.4-14.4-14.4-1.41,0-2.77.21-4.06.59-1.18-7.39-6.83-13.28-14.09-14.82.02-.37.06-.73.06-1.1,0-10.75-8.99-19.46-20.07-19.46-8.84,0-16.34,5.55-19.01,13.26-2.68-1.97-5.97-3.15-9.55-3.15-8.91,0-16.14,7.23-16.14,16.14,0,6.86,4.29,12.7,10.32,15.04Z"/>
  </g>
  <g id="Sparks">
    <path class="cls-1" d="M84.68,65.89c-.56-3.19-2.56-5.13-5.9-5.9,3.52-1.17,5.72-3.29,6.45-6.45.64,3.24,2.61,5.2,5.9,5.9-3.59,1.18-5.7,3.36-6.45,6.45Z"/>
    <path class="cls-3" d="M182.81,80.74c-.41-2.33-1.87-3.74-4.3-4.3,2.57-.86,4.17-2.4,4.71-4.71.47,2.36,1.9,3.8,4.3,4.3-2.62.86-4.16,2.45-4.71,4.71Z"/>
    <path class="cls-3" d="M205.2,172.32c-.54-3.04-2.44-4.89-5.63-5.63,3.36-1.12,5.46-3.14,6.16-6.16.61,3.09,2.49,4.97,5.63,5.63-3.43,1.13-5.44,3.21-6.16,6.16Z"/>
    <path class="cls-3" d="M142.39,210.71c-.39-2.19-1.76-3.52-4.05-4.05,2.42-.81,3.93-2.26,4.43-4.43.44,2.23,1.79,3.57,4.05,4.05-2.47.81-3.91,2.31-4.43,4.43Z"/>
    <path class="cls-3" d="M47.83,96.9c-.4-2.29-1.84-3.68-4.23-4.23,2.52-.84,4.1-2.36,4.63-4.63.46,2.32,1.87,3.73,4.23,4.23-2.58.85-4.09,2.41-4.63,4.63Z"/>
    <circle class="cls-3" cx="56.52" cy="80.08" r="1.83"/>
    <circle class="cls-3" cx="39.22" cy="112.29" r="1.99"/>
    <circle class="cls-3" cx="44.76" cy="152.88" r="1.86"/>
    <circle class="cls-3" cx="45.62" cy="165.93" r="2.45"/>
    <circle class="cls-3" cx="95.72" cy="185.16" r="1.88"/>
    <circle class="cls-3" cx="80.1" cy="211.88" r="2.08"/>
    <circle class="cls-3" cx="130.23" cy="235.01" r="2.23"/>
    <circle class="cls-3" cx="129.36" cy="219.76" r="3.91"/>
    <circle class="cls-3" cx="203.04" cy="146.56" r="2.13"/>
    <circle class="cls-3" cx="218.38" cy="108.85" r="1.92"/>
    <circle class="cls-3" cx="200.48" cy="89.85" r="1.77"/>
    <circle class="cls-3" cx="191.82" cy="82.53" r="1.91"/>
    <circle class="cls-1" cx="185.95" cy="62.77" r="1.94"/>
    <circle class="cls-1" cx="72.03" cy="62.34" r="1.9"/>
    <circle class="cls-1" cx="81.81" cy="148.38" r="1.87"/>
    <circle class="cls-1" cx="79.94" cy="198.46" r="1.8"/>
    <circle class="cls-4" cx="213.15" cy="151.93" r="1.96"/>
  </g>
  <g id="Lightning">
    <polygon class="cls-5" points="170.02 138.54 132.46 138.54 151.63 105.32 140.59 105.32 85.19 167.01 118.29 167.01 83.68 236.89 170.02 138.54"/>
    <polygon class="cls-4" points="140.59 105.32 110.22 152.89 108.56 152.89 85.19 167.01 118.29 105.32 140.59 105.32"/>
    <polygon class="cls-6" points="110.22 152.89 114.3 146.51 128.61 138.54 170.02 138.54 96.87 221.87 140.48 152.88 110.22 152.89"/>
  </g>
</svg>