<svg width="512" height="12328" xmlns="http://www.w3.org/2000/svg">
  <rect x="0" y="0" width="512" height="12328" fill="white" />
  <rect x="0" y="0" width="168.8602833431838" height="128" fill="#FF5733" />
  <rect x="168.8602833431838" y="0" width="133.49054881567307" height="128" fill="#33FF57" />
  <rect x="302.35083215885686" y="0" width="10.550242530854051" height="128" fill="#3357FF" />
  <rect x="312.9010746897109" y="0" width="31.438321623540357" height="128" fill="#FF33A1" />
  <rect x="344.33939631325126" y="0" width="27.410665762057473" height="128" fill="#FF8633" />
  <rect x="371.75006207530873" y="0" width="26.361617525171102" height="128" fill="#33FFD7" />
  <rect x="398.1116796004798" y="0" width="23.39822971711145" height="128" fill="#8333FF" />
  <rect x="421.5099093175913" y="0" width="12.730928891422417" height="128" fill="#FF3381" />
  <rect x="434.2408382090137" y="0" width="9.813200532973354" height="128" fill="#33FF83" />
  <rect x="444.05403874198703" y="0" width="5.136240439528158" height="128" fill="#A133FF" />
  <rect x="449.19027918151517" y="0" width="2.2910300304606164" height="128" fill="#FF8333" />
  <rect x="451.48130921197577" y="0" width="2.2023969812165363" height="128" fill="#3381FF" />
  <rect x="453.6837061931923" y="0" width="2.118240348600945" height="128" fill="#FF33D7" />
  <rect x="455.8019465417932" y="0" width="1.848983888397338" height="128" fill="#FF5733" />
  <rect x="457.65093043019056" y="0" width="1.7726609848816022" height="128" fill="#33FF57" />
  <rect x="459.42359141507217" y="0" width="1.609943240436031" height="128" fill="#3357FF" />
  <rect x="461.0335346555082" y="0" width="1.5172814162263109" height="128" fill="#FF33A1" />
  <rect x="462.5508160717345" y="0" width="1.4702790416271774" height="128" fill="#FF8633" />
  <rect x="464.0210951133617" y="0" width="1.3845556631916152" height="128" fill="#33FFD7" />
  <rect x="0" y="148" width="20" height="20" fill="#FF5733" />
  <text x="25" y="163" fill="black" font-size="12">donner/svg - 736.76 KB</text>
  <rect x="0" y="168" width="20" height="20" fill="#33FF57" />
  <text x="25" y="183" fill="black" font-size="12">donner/svg/parser - 582.44 KB</text>
  <rect x="0" y="188" width="20" height="20" fill="#3357FF" />
  <text x="25" y="203" fill="black" font-size="12">Everything else - 46.03 KB</text>
  <rect x="0" y="208" width="20" height="20" fill="#FF33A1" />
  <text x="25" y="223" fill="black" font-size="12">donner/css/parser - 137.17 KB</text>
  <rect x="0" y="228" width="20" height="20" fill="#FF8633" />
  <text x="25" y="243" fill="black" font-size="12">donner/base/xml - 119.60 KB</text>
  <rect x="0" y="248" width="20" height="20" fill="#33FFD7" />
  <text x="25" y="263" fill="black" font-size="12">donner/css - 115.02 KB</text>
  <rect x="0" y="268" width="20" height="20" fill="#8333FF" />
  <text x="25" y="283" fill="black" font-size="12">donner/svg/properties - 102.09 KB</text>
  <rect x="0" y="288" width="20" height="20" fill="#FF3381" />
  <text x="25" y="303" fill="black" font-size="12">__donner_embedded_kPublicSansMediumOtf - 55.55 KB</text>
  <rect x="0" y="308" width="20" height="20" fill="#33FF83" />
  <text x="25" y="323" fill="black" font-size="12">donner/base/parser/details - 42.82 KB</text>
  <rect x="0" y="328" width="20" height="20" fill="#A133FF" />
  <text x="25" y="343" fill="black" font-size="12">donner/svg/components/shape - 22.41 KB</text>
  <rect x="0" y="348" width="20" height="20" fill="#FF8333" />
  <text x="25" y="363" fill="black" font-size="12">_ZN6donner3css12_GLOBAL__N_17kColorsE - 10.00 KB</text>
  <rect x="0" y="368" width="20" height="20" fill="#3381FF" />
  <text x="25" y="383" fill="black" font-size="12">donner/base/parser - 9.61 KB</text>
  <rect x="0" y="388" width="20" height="20" fill="#FF33D7" />
  <text x="25" y="403" fill="black" font-size="12">donner/base/encoding - 9.24 KB</text>
  <rect x="0" y="408" width="20" height="20" fill="#FF5733" />
  <text x="25" y="423" fill="black" font-size="12">crc_braid_table - 8.07 KB</text>
  <rect x="0" y="428" width="20" height="20" fill="#33FF57" />
  <text x="25" y="443" fill="black" font-size="12">donner/svg/graph - 7.73 KB</text>
  <rect x="0" y="448" width="20" height="20" fill="#3357FF" />
  <text x="25" y="463" fill="black" font-size="12">donner/svg/text - 7.02 KB</text>
  <rect x="0" y="468" width="20" height="20" fill="#FF33A1" />
  <text x="25" y="483" fill="black" font-size="12">donner/base/xml/components - 6.62 KB</text>
  <rect x="0" y="488" width="20" height="20" fill="#FF8633" />
  <text x="25" y="503" fill="black" font-size="12">external/zlib+ - 6.42 KB</text>
  <rect x="0" y="508" width="20" height="20" fill="#33FFD7" />
  <text x="25" y="523" fill="black" font-size="12">too_large - 6.04 KB</text>
</svg>
