<svg xmlns="http://www.w3.org/2000/svg" xmlns:xlink="http://www.w3.org/1999/xlink" xmlns:lucid="lucid" width="680" height="466.98" viewBox="0 0 680 467">
  <g transform="translate(-200 -160)" lucid:page-tab-id="q0G1OmMGN9SW">
    <path d="M0 0h1000v1000H0z" fill="#fff"/>
    <path d="M220 186a6 6 0 0 1 6-6h228a6 6 0 0 1 6 6v121.5a6 6 0 0 1-6 6H226a6 6 0 0 1-6-6z" fill="#004faf"/>
    <use xlink:href="#a" transform="translate(243.528 220.375)"/>
    <use xlink:href="#b" transform="translate(318.861 220.375)"/>
    <use xlink:href="#c" transform="translate(392.083 220.375)"/>
    <use xlink:href="#d" transform="translate(319.336 237.264)"/>
    <use xlink:href="#e" transform="translate(340 250.597)"/>
    <use xlink:href="#f" transform="translate(244.185 265.708)"/>
    <use xlink:href="#g" transform="translate(264.185 265.708)"/>
    <use xlink:href="#h" transform="translate(290.111 265.708)"/>
    <use xlink:href="#i" transform="translate(305.63 265.708)"/>
    <use xlink:href="#j" transform="translate(342.63 265.708)"/>
    <use xlink:href="#k" transform="translate(369.963 265.708)"/>
    <use xlink:href="#l" transform="translate(392.185 265.708)"/>
    <use xlink:href="#m" transform="translate(288.63 281.708)"/>
    <use xlink:href="#n" transform="translate(328.481 281.708)"/>
    <path d="M620 479.5a6 6 0 0 1 6-6h228a6 6 0 0 1 6 6v121.48a6 6 0 0 1-6 6H626a6 6 0 0 1-6-6z" fill="#dfe3e8"/>
    <use xlink:href="#o" transform="translate(647.444 506.113)"/>
    <use xlink:href="#p" transform="translate(751.611 506.113)"/>
    <use xlink:href="#q" transform="translate(694.985 523.002)"/>
    <use xlink:href="#r" transform="translate(744.923 523.002)"/>
    <use xlink:href="#s" transform="translate(740 536.335)"/>
    <use xlink:href="#t" transform="translate(696.389 551.446)"/>
    <use xlink:href="#u" transform="translate(757.722 551.446)"/>
    <use xlink:href="#v" transform="translate(634.574 567.446)"/>
    <use xlink:href="#w" transform="translate(673.056 567.446)"/>
    <use xlink:href="#x" transform="translate(705.574 567.446)"/>
    <use xlink:href="#y" transform="translate(774.389 567.446)"/>
    <use xlink:href="#z" transform="translate(800.315 567.446)"/>
    <use xlink:href="#A" transform="translate(696.74 583.446)"/>
    <use xlink:href="#B" transform="translate(718.963 583.446)"/>
    <use xlink:href="#C" transform="translate(747.037 583.446)"/>
    <path d="M220 486.23a6 6 0 0 1 6-6h228a6 6 0 0 1 6 6v108a6 6 0 0 1-6 6H226a6 6 0 0 1-6-6z" fill="#4d9eff"/>
    <use xlink:href="#D" transform="translate(305.111 508.107)"/>
    <use xlink:href="#q" transform="translate(294.985 524.996)"/>
    <use xlink:href="#r" transform="translate(344.923 524.996)"/>
    <use xlink:href="#s" transform="translate(340 538.329)"/>
    <use xlink:href="#E" transform="translate(234.13 553.44)"/>
    <use xlink:href="#F" transform="translate(279.278 553.44)"/>
    <use xlink:href="#G" transform="translate(311.13 553.44)"/>
    <use xlink:href="#H" transform="translate(342.167 553.44)"/>
    <use xlink:href="#A" transform="translate(395.5 553.44)"/>
    <use xlink:href="#I" transform="translate(417.722 553.44)"/>
    <use xlink:href="#J" transform="translate(239.704 569.44)"/>
    <use xlink:href="#K" transform="translate(301.889 569.44)"/>
    <use xlink:href="#y" transform="translate(345.519 569.44)"/>
    <use xlink:href="#L" transform="translate(371.444 569.44)"/>
    <use xlink:href="#M" transform="translate(432.889 569.44)"/>
    <use xlink:href="#N" transform="translate(296.74 585.44)"/>
    <use xlink:href="#O" transform="translate(356.63 585.44)"/>
    <path d="M341 461.73h-2v-9.82h2zm0-19.63h-2v-19.64h2zm0-29.45h-2v-10.63h2zm0-42.63h-2v-6.45h2zm0-16.27h-2v-19.63h2zm0-29.45h-2v-9.8h2z" stroke="#5e5e5e" stroke-width=".05" fill="#5e5e5e"/>
    <path d="M341 314.5h-2v-1h2z" fill="#5e5e5e"/>
    <path d="M341.02 314.54h-2.04v-1.08h2.04zm-2-1.03v1h1.96v-1z" stroke="#5e5e5e" stroke-width=".05" fill="#5e5e5e"/>
    <path d="m340 477-4.63-14.27h9.26z" fill="#5e5e5e"/>
    <path d="m340 480.23-6-18.5h12zm-3.26-16.5 3.26 10.03 3.26-10.03z" stroke="#5e5e5e" stroke-width=".05" fill="#5e5e5e"/>
    <use xlink:href="#P" transform="translate(242.43 380.686)"/>
    <use xlink:href="#Q" transform="translate(285.283 380.686)"/>
    <use xlink:href="#R" transform="translate(317.135 380.686)"/>
    <use xlink:href="#S" transform="translate(347.468 380.686)"/>
    <use xlink:href="#T" transform="translate(374.801 380.686)"/>
    <use xlink:href="#U" transform="translate(266.857 396.686)"/>
    <use xlink:href="#V" transform="translate(325.264 396.686)"/>
    <use xlink:href="#W" transform="translate(357.783 396.686)"/>
    <path d="M470.37 541.23H461v-2h9.37zm24.74 0h-15.37v-2h15.38zm106.4 0h-9.37v-2h9.37zm-18.74 0h-16.7v-2h16.7z" stroke="#5e5e5e" stroke-width=".05" fill="#5e5e5e"/>
    <path d="M461.03 541.23H460v-2h1.03z" fill="#5e5e5e"/>
    <path d="M461.05 541.26h-1.07v-2.05h1.07zm-1.03-2v1.95h.98v-1.94z" stroke="#5e5e5e" stroke-width=".05" fill="#5e5e5e"/>
    <path d="m616.76 540.23-14.26 4.64v-9.27z" fill="#5e5e5e"/>
    <path d="m620 540.23-18.5 6v-12zm-16.5 3.26 10.03-3.27-10.03-3.26z" stroke="#5e5e5e" stroke-width=".05" fill="#5e5e5e"/>
    <use xlink:href="#X" transform="translate(495.112 534.898)"/>
    <use xlink:href="#Y" transform="translate(498.39 550.898)"/>
    <use xlink:href="#Z" transform="translate(533.167 550.898)"/>
    <path d="m739.85 472.08-1.26 1.56-8.03-6.5 1.26-1.56zm-16.05-13-1.26 1.56-16.05-13 1.25-1.56zm-24.08-19.5-1.25 1.56-16.06-13 1.27-1.55zm-24.07-19.5-1.26 1.56-16.06-13 1.26-1.55zm-24.08-19.5-1.26 1.56-16.04-13 1.26-1.55zm-24.08-19.5-1.26 1.57-16.06-13 1.25-1.53h.04zm-35.8-28.96h-3.17l-2.42-1.97 1.27-1.55zm-12.36-10.02-1.26 1.55-16.05-13 1.26-1.55zm-24.08-19.5-1.25 1.56-16.05-13 1.26-1.56zm-24.07-19.5-1.27 1.56-16.05-13 1.26-1.55zm-24.1-19.5-1.25 1.56-16.05-13 1.26-1.55zm-24.07-19.5-1.25 1.56-8.03-6.5 1.26-1.55z" stroke="#5e5e5e" stroke-width=".05" fill="#5e5e5e"/>
    <path d="M741.6 473.5h-2.92l1.15-1.44z" fill="#5e5e5e"/>
    <path d="M741.66 473.5h-3.03l1.2-1.47zm-2.93-.04h2.8l-1.7-1.36z" stroke="#5e5e5e" stroke-width=".05" fill="#5e5e5e"/>
    <path d="m476.52 254.16-5.84 7.2-8.17-12.58z" fill="#5e5e5e"/>
    <path d="m478.16 253.72-7.56 9.34-10.6-16.32zm-7.4 5.94 4.12-5.06-9.85-3.78z" stroke="#5e5e5e" stroke-width=".05" fill="#5e5e5e"/>
    <use xlink:href="#aa" transform="translate(491.32 362.783)"/>
    <use xlink:href="#ab" transform="translate(555.653 362.783)"/>
    <use xlink:href="#ac" transform="translate(628.875 362.783)"/>
    <use xlink:href="#ad" transform="translate(671.06 362.783)"/>
    <defs>
      <path fill="#fff" d="M24-248c120-7 223 5 221 122C244-46 201 0 124 0H24zM76-40c74 7 117-18 117-86 0-67-45-88-117-82z" id="ae"/>
      <path fill="#fff" d="M110-194c64 0 96 36 96 99 0 64-35 99-97 99-61 0-95-36-95-99 0-62 34-99 96-99m-1 164c35 0 45-28 45-65 0-40-10-65-43-65-34 0-45 26-45 65 0 36 10 65 43 65" id="af"/>
      <path fill="#fff" d="M135-194c87-1 58 113 63 194h-50c-7-57 23-157-34-157-59 0-34 97-39 157H25l-1-190h47c2 12-1 28 3 38 12-26 28-41 61-42" id="ag"/>
      <path fill="#fff" d="M185-48c-13 30-37 53-82 52C43 2 14-33 14-96s30-98 90-98c62 0 83 45 84 108H66c0 31 8 55 39 56 18 0 30-7 34-22zm-45-69c5-46-57-63-70-21-2 6-4 13-4 21z" id="ah"/>
      <path fill="#fff" d="M135-150c-39-12-60 13-60 57V0H25l-1-190h47c2 13-1 29 3 40 6-28 27-53 61-41z" id="ai"/>
      <path fill="#fff" d="M24 0v-248h52v208h133V0z" id="aj"/>
      <path fill="#fff" d="M25-224v-37h50v37zM25 0v-190h50V0z" id="ak"/>
      <path fill="#fff" d="M135-194c52 0 70 43 70 98 0 56-19 99-73 100-30 1-46-15-58-35L72 0H24l1-261h50v104c11-23 29-37 60-37M114-30c31 0 40-27 40-66 0-37-7-63-39-63s-41 28-41 65c0 36 8 64 40 64" id="al"/>
      <path fill="#fff" d="M133-34C117-15 103 5 69 4 32 3 11-16 11-54c-1-60 55-63 116-61 1-26-3-47-28-47-18 1-26 9-28 27l-52-2c7-38 36-58 82-57s74 22 75 68l1 82c-1 14 12 18 25 15v27c-30 8-71 5-69-32m-48 3c29 0 43-24 42-57-32 0-66-3-65 30 0 17 8 27 23 27" id="am"/>
      <path fill="#fff" d="M123 10C108 53 80 86 19 72V37c35 8 53-11 59-39L3-190h52l48 148c12-52 28-100 44-148h51" id="an"/>
      <path fill="#fff" d="M238-95c0 69-44 99-111 99C63 4 22-25 22-93v-155h51v151c-1 38 19 59 55 60 90 1 49-130 58-211h52z" id="ao"/>
      <path fill="#fff" d="M137-138c1-29-70-34-71-4 15 46 118 7 119 86 1 83-164 76-172 9l43-7c4 19 20 25 44 25 33 8 57-30 24-41C81-84 22-81 20-136c-2-80 154-74 161-7" id="ap"/>
      <path fill="#fff" d="M26 75v-336h71v23H56V52h41v23z" id="aq"/>
      <path fill="#fff" d="M30-248c87 1 191-15 191 75 0 78-77 80-158 76V0H30zm33 125c57 0 124 11 124-50 0-59-68-47-124-48z" id="ar"/>
      <path fill="#fff" d="M100-194c63 0 86 42 84 106H49c0 40 14 67 53 68 26 1 43-12 49-29l28 8c-11 28-37 45-77 45C44 4 14-33 15-96c1-61 26-98 85-98m52 81c6-60-76-77-97-28-3 7-6 17-6 28z" id="as"/>
      <path fill="#fff" d="M114-163C36-179 61-72 57 0H25l-1-190h30c1 12-1 29 2 39 6-27 23-49 58-41z" id="at"/>
      <path fill="#fff" d="M135-143c-3-34-86-38-87 0 15 53 115 12 119 90S17 21 10-45l28-5c4 36 97 45 98 0-10-56-113-15-118-90-4-57 82-63 122-42 12 7 21 19 24 35" id="au"/>
      <path fill="#fff" d="M100-194c62-1 85 37 85 99 1 63-27 99-86 99S16-35 15-95c0-66 28-99 85-99M99-20c44 1 53-31 53-75 0-43-8-75-51-75s-53 32-53 75 10 74 51 75" id="av"/>
      <path fill="#fff" d="M117-194c89-4 53 116 60 194h-32v-121c0-31-8-49-39-48C34-167 62-67 57 0H25l-1-190h30c1 10-1 24 2 32 11-22 29-35 61-36" id="aw"/>
      <path fill="#fff" d="M3 75V52h41v-290H3v-23h71V75z" id="ax"/>
      <path fill="#fff" d="m205 0-28-72H64L36 0H1l101-248h38L239 0zm-38-99-47-123c-12 45-31 82-46 123z" id="ay"/>
      <path fill="#fff" d="M141-36C126-15 110 5 73 4 37 3 15-17 15-53c-1-64 63-63 125-63 3-35-9-54-41-54-24 1-41 7-42 31l-33-3c5-37 33-52 76-52 45 0 72 20 72 64v82c-1 20 7 32 28 27v20c-31 9-61-2-59-35M48-53c0 20 12 33 32 33 41-3 63-29 60-74-43 2-92-5-92 41" id="az"/>
      <path fill="#fff" d="M115-194c55 1 70 41 70 98S169 2 115 4C84 4 66-9 55-30l1 105H24l-1-265h31l2 30c10-21 28-34 59-34m-8 174c40 0 45-34 45-75s-6-73-45-74c-42 0-51 32-51 76 0 43 10 73 51 73" id="aA"/>
      <path fill="#fff" d="M177-190C167-65 218 103 67 71c-23-6-38-20-44-43l32-5c15 47 100 32 89-28v-30C133-14 115 1 83 1 29 1 15-40 15-95c0-56 16-97 71-98 29-1 48 16 59 35 1-10 0-23 2-32zM94-22c36 0 50-32 50-73 0-42-14-75-50-75-39 0-46 34-46 75s6 73 46 73" id="aB"/>
      <path fill="#fff" d="M210-169c-67 3-38 105-44 169h-31v-121c0-29-5-50-35-48C34-165 62-65 56 0H25l-1-190h30c1 10-1 24 2 32 10-44 99-50 107 0 11-21 27-35 58-36 85-2 47 119 55 194h-31v-121c0-29-5-49-35-48" id="aC"/>
      <path fill="#fff" d="M206 0h-36l-40-164L89 0H53L-1-190h32L70-26l43-164h34l41 164 42-164h31" id="aD"/>
      <path fill="#fff" d="M24-231v-30h32v30zM24 0v-190h32V0z" id="aE"/>
      <path fill="#fff" d="M59-47c-2 24 18 29 38 22v24C64 9 27 4 27-40v-127H5v-23h24l9-43h21v43h35v23H59z" id="aF"/>
      <path fill="#fff" d="M106-169C34-169 62-67 57 0H25v-261h32l-1 103c12-21 28-36 61-36 89 0 53 116 60 194h-32v-121c2-32-8-49-39-48" id="aG"/>
      <path fill="#fff" d="M30-248c118-7 216 8 213 122C240-48 200 0 122 0H30zM63-27c89 8 146-16 146-99s-60-101-146-95z" id="aH"/>
      <path fill="#fff" d="M24 0v-261h32V0z" id="aI"/>
      <path fill="#fff" d="M115-194c53 0 69 39 70 98 0 66-23 100-70 100C84 3 66-7 56-30L54 0H23l1-261h32v101c10-23 28-34 59-34m-8 174c40 0 45-34 45-75 0-40-5-75-45-74-42 0-51 32-51 76 0 43 10 73 51 73" id="aJ"/>
      <path fill="#fff" d="M179-190 93 31C79 59 56 82 12 73V49c39 6 53-20 64-50L1-190h34L92-34l54-156z" id="aK"/>
      <path fill="#fff" d="M85-194c31 0 48 13 60 33l-1-100h32l1 261h-30c-2-10 0-23-3-31C134-8 116 4 85 4 32 4 16-35 15-94c0-66 23-100 70-100m9 24c-40 0-46 34-46 75 0 40 6 74 45 74 42 0 51-32 51-76 0-42-9-74-50-73" id="aL"/>
      <path fill="#fff" d="M33 0v-38h34V0z" id="aM"/>
      <path fill="#333" d="M240-174c0 40-23 61-54 70L253 0h-59l-57-94H76V0H24v-248c93 4 217-23 216 74M76-134c48-2 112 12 112-38 0-48-66-32-112-35z" id="aN"/>
      <path fill="#333" d="M185-48c-13 30-37 53-82 52C43 2 14-33 14-96s30-98 90-98c62 0 83 45 84 108H66c0 31 8 55 39 56 18 0 30-7 34-22zm-45-69c5-46-57-63-70-21-2 6-4 13-4 21z" id="aO"/>
      <path fill="#333" d="M135-194c87-1 58 113 63 194h-50c-7-57 23-157-34-157-59 0-34 97-39 157H25l-1-190h47c2 12-1 28 3 38 12-26 28-41 61-42" id="aP"/>
      <path fill="#333" d="M88-194c31-1 46 15 58 34l-1-101h50l1 261h-48c-2-10 0-23-3-31C134-8 116 4 84 4 32 4 16-41 15-95c0-56 19-97 73-99m17 164c33 0 40-30 41-66 1-37-9-64-41-64s-38 30-39 65c0 43 13 65 39 65" id="aQ"/>
      <path fill="#333" d="M135-150c-39-12-60 13-60 57V0H25l-1-190h47c2 13-1 29 3 40 6-28 27-53 61-41z" id="aR"/>
      <path fill="#333" d="M25-224v-37h50v37zM25 0v-190h50V0z" id="aS"/>
      <path fill="#333" d="M195-6C206 82 75 100 31 46c-4-6-6-13-8-21l49-6c3 16 16 24 34 25 40 0 42-37 40-79-11 22-30 35-61 35-53 0-70-43-70-97 0-56 18-96 73-97 30 0 46 14 59 34l2-30h47zm-90-29c32 0 41-27 41-63 0-35-9-62-40-62-32 0-39 29-40 63 0 36 9 62 39 62" id="aT"/>
      <path fill="#333" d="M135-194c52 0 70 43 70 98 0 56-19 99-73 100-30 1-46-15-58-35L72 0H24l1-261h50v104c11-23 29-37 60-37M114-30c31 0 40-27 40-66 0-37-7-63-39-63s-41 28-41 65c0 36 8 64 40 64" id="aU"/>
      <path fill="#333" d="M133-34C117-15 103 5 69 4 32 3 11-16 11-54c-1-60 55-63 116-61 1-26-3-47-28-47-18 1-26 9-28 27l-52-2c7-38 36-58 82-57s74 22 75 68l1 82c-1 14 12 18 25 15v27c-30 8-71 5-69-32m-48 3c29 0 43-24 42-57-32 0-66-3-65 30 0 17 8 27 23 27" id="aV"/>
      <path fill="#333" d="M190-63c-7 42-38 67-86 67-59 0-84-38-90-98-12-110 154-137 174-36l-49 2c-2-19-15-32-35-32-30 0-35 28-38 64-6 74 65 87 74 30" id="aW"/>
      <path fill="#333" d="M147 0 96-86 75-71V0H25v-261h50v150l67-79h53l-66 74L201 0z" id="aX"/>
      <path fill="#333" d="M26 75v-336h71v23H56V52h41v23z" id="aY"/>
      <path fill="#333" d="M185-189c-5-48-123-54-124 2 14 75 158 14 163 119 3 78-121 87-175 55-17-10-28-26-33-46l33-7c5 56 141 63 141-1 0-78-155-14-162-118-5-82 145-84 179-34 5 7 8 16 11 25" id="aZ"/>
      <path fill="#333" d="M100-194c62-1 85 37 85 99 1 63-27 99-86 99S16-35 15-95c0-66 28-99 85-99M99-20c44 1 53-31 53-75 0-43-8-75-51-75s-53 32-53 75 10 74 51 75" id="ba"/>
      <path fill="#333" d="M101-234c-31-9-42 10-38 44h38v23H63V0H32v-167H5v-23h27c-7-52 17-82 69-68z" id="bb"/>
      <path fill="#333" d="M59-47c-2 24 18 29 38 22v24C64 9 27 4 27-40v-127H5v-23h24l9-43h21v43h35v23H59z" id="bc"/>
      <path fill="#333" d="M206 0h-36l-40-164L89 0H53L-1-190h32L70-26l43-164h34l41 164 42-164h31" id="bd"/>
      <path fill="#333" d="M141-36C126-15 110 5 73 4 37 3 15-17 15-53c-1-64 63-63 125-63 3-35-9-54-41-54-24 1-41 7-42 31l-33-3c5-37 33-52 76-52 45 0 72 20 72 64v82c-1 20 7 32 28 27v20c-31 9-61-2-59-35M48-53c0 20 12 33 32 33 41-3 63-29 60-74-43 2-92-5-92 41" id="be"/>
      <path fill="#333" d="M114-163C36-179 61-72 57 0H25l-1-190h30c1 12-1 29 2 39 6-27 23-49 58-41z" id="bf"/>
      <path fill="#333" d="M100-194c63 0 86 42 84 106H49c0 40 14 67 53 68 26 1 43-12 49-29l28 8c-11 28-37 45-77 45C44 4 14-33 15-96c1-61 26-98 85-98m52 81c6-60-76-77-97-28-3 7-6 17-6 28z" id="bg"/>
      <path fill="#333" d="M179-190 93 31C79 59 56 82 12 73V49c39 6 53-20 64-50L1-190h34L92-34l54-156z" id="bh"/>
      <path fill="#333" d="M135-143c-3-34-86-38-87 0 15 53 115 12 119 90S17 21 10-45l28-5c4 36 97 45 98 0-10-56-113-15-118-90-4-57 82-63 122-42 12 7 21 19 24 35" id="bi"/>
      <path fill="#333" d="M210-169c-67 3-38 105-44 169h-31v-121c0-29-5-50-35-48C34-165 62-65 56 0H25l-1-190h30c1 10-1 24 2 32 10-44 99-50 107 0 11-21 27-35 58-36 85-2 47 119 55 194h-31v-121c0-29-5-49-35-48" id="bj"/>
      <path fill="#333" d="M3 75V52h41v-290H3v-23h71V75z" id="bk"/>
      <path fill="#333" d="M212-179c-10-28-35-45-73-45-59 0-87 40-87 99 0 60 29 101 89 101 43 0 62-24 78-52l27 14C228-24 195 4 139 4 59 4 22-46 18-125c-6-104 99-153 187-111 19 9 31 26 39 46" id="bl"/>
      <path fill="#333" d="M84 4C-5 8 30-112 23-190h32v120c0 31 7 50 39 49 72-2 45-101 50-169h31l1 190h-30c-1-10 1-25-2-33-11 22-28 36-60 37" id="bm"/>
      <path fill="#333" d="M117-194c89-4 53 116 60 194h-32v-121c0-31-8-49-39-48C34-167 62-67 57 0H25l-1-190h30c1 10-1 24 2 32 11-22 29-35 61-36" id="bn"/>
      <path fill="#333" d="M24 0v-261h32V0z" id="bo"/>
      <path fill="#333" d="M33-154v-36h34v36zM33 0v-36h34V0z" id="bp"/>
      <path fill="#333" d="M143 0 79-87 56-68V0H24v-261h32v163l83-92h37l-77 82L181 0z" id="bq"/>
      <path fill="#333" d="M24-231v-30h32v30zM24 0v-190h32V0z" id="br"/>
      <path fill="#333" d="M127-220V0H93v-220H8v-28h204v28z" id="bs"/>
      <path fill="#333" d="M85-194c31 0 48 13 60 33l-1-100h32l1 261h-30c-2-10 0-23-3-31C134-8 116 4 85 4 32 4 16-35 15-94c0-66 23-100 70-100m9 24c-40 0-46 34-46 75 0 40 6 74 45 74 42 0 51-32 51-76 0-42-9-74-50-73" id="bt"/>
      <path fill="#333" d="M96-169c-40 0-48 33-48 73s9 75 48 75c24 0 41-14 43-38l32 2c-6 37-31 61-74 61-59 0-76-41-82-99-10-93 101-131 147-64 4 7 5 14 7 22l-32 3c-4-21-16-35-41-35" id="bu"/>
      <path fill="#333" d="M106-169C34-169 62-67 57 0H25v-261h32l-1 103c12-21 28-36 61-36 89 0 53 116 60 194h-32v-121c2-32-8-49-39-48" id="bv"/>
      <path fill="#333" d="M177-190C167-65 218 103 67 71c-23-6-38-20-44-43l32-5c15 47 100 32 89-28v-30C133-14 115 1 83 1 29 1 15-40 15-95c0-56 16-97 71-98 29-1 48 16 59 35 1-10 0-23 2-32zM94-22c36 0 50-32 50-73 0-42-14-75-50-75-39 0-46 34-46 75s6 73 46 73" id="bw"/>
      <path fill="#333" d="M24-248c120-7 223 5 221 122C244-46 201 0 124 0H24zM76-40c74 7 117-18 117-86 0-67-45-88-117-82z" id="bx"/>
      <path fill="#333" d="M110-194c64 0 96 36 96 99 0 64-35 99-97 99-61 0-95-36-95-99 0-62 34-99 96-99m-1 164c35 0 45-28 45-65 0-40-10-65-43-65-34 0-45 26-45 65 0 36 10 65 43 65" id="by"/>
      <path fill="#333" d="M30-248c87 1 191-15 191 75 0 78-77 80-158 76V0H30zm33 125c57 0 124 11 124-50 0-59-68-47-124-48z" id="bz"/>
      <path fill="#333" d="M137 0h-34L2-248h35l83 218 83-218h36" id="bA"/>
      <path fill="#333" d="M143 4C61 4 22-44 18-125c-5-107 100-154 193-111 17 8 29 25 37 43l-32 9c-13-25-37-40-76-40-61 0-88 39-88 99 0 61 29 100 91 101 35 0 62-11 79-27v-45h-74v-28h105v86C228-13 192 4 143 4" id="bB"/>
      <path fill="#333" d="M68-38c1 34 0 65-14 84H32c9-13 17-26 17-46H33v-38z" id="bC"/>
      <path fill="#333" d="M141 0 90-78 38 0H4l68-98-65-92h35l48 74 47-74h35l-64 92 68 98z" id="bD"/>
      <path fill="#333" d="M115-194c55 1 70 41 70 98S169 2 115 4C84 4 66-9 55-30l1 105H24l-1-265h31l2 30c10-21 28-34 59-34m-8 174c40 0 45-34 45-75s-6-73-45-74c-42 0-51 32-51 76 0 43 10 73 51 73" id="bE"/>
      <path fill="#333" d="M33 0v-38h34V0z" id="bF"/>
      <path fill="#333" d="M24 0v-248h52v208h133V0z" id="bG"/>
      <path fill="#333" d="M137-138c1-29-70-34-71-4 15 46 118 7 119 86 1 83-164 76-172 9l43-7c4 19 20 25 44 25 33 8 57-30 24-41C81-84 22-81 20-136c-2-80 154-74 161-7" id="bH"/>
      <path fill="#333" d="M169-182c-1-43-94-46-97-3 18 66 151 10 154 114 3 95-165 93-204 36-6-8-10-19-12-30l50-8c3 46 112 56 116 5-17-69-150-10-154-114-4-87 153-88 188-35 5 8 8 18 10 28" id="bI"/>
      <path fill="#333" d="M147 0H94L2-248h55l64 206c17-72 42-137 63-206h54" id="bJ"/>
      <path fill="#333" d="M67-125c0 54 23 88 75 88 28 0 53-7 68-21v-34h-60v-39h108v91C232-14 192 4 140 4 58 4 20-42 15-125 8-236 126-280 215-234c19 10 29 26 37 47l-47 15c-11-23-29-39-63-39-53 1-75 33-75 86" id="bK"/>
      <path fill="#333" d="M121-226c-27-7-43 5-38 36h38v33H83V0H34v-157H6v-33h28c-9-59 32-81 87-68z" id="bL"/>
      <path fill="#333" d="M25 0v-261h50V0z" id="bM"/>
      <path fill="#333" d="M135-194c53 0 70 44 70 98 0 56-19 98-73 100-31 1-45-17-59-34 3 33 2 69 2 105H25l-1-265h48c2 10 0 23 3 31 11-24 29-35 60-35M114-30c33 0 39-31 40-66 0-38-9-64-40-64-56 0-55 130 0 130" id="bN"/>
      <path fill="#333" d="M115-3C79 11 28 4 28-45v-112H4v-33h27l15-45h31v45h36v33H77v99c-1 23 16 31 38 25z" id="bO"/>
      <path fill="#333" d="M123 10C108 53 80 86 19 72V37c35 8 53-11 59-39L3-190h52l48 148c12-52 28-100 44-148h51" id="bP"/>
      <path fill="#333" d="M220-157c-53 9-28 100-34 157h-49v-107c1-27-5-49-29-50C55-147 81-57 75 0H25l-1-190h47c2 12-1 28 3 38 10-53 101-56 108 0 13-22 24-43 59-42 82 1 51 116 57 194h-49v-107c-1-25-5-48-29-50" id="bQ"/>
      <path fill="#333" d="M114-157C55-157 80-60 75 0H25v-261h50l-1 109c12-26 28-41 61-42 86-1 58 113 63 194h-50c-7-57 23-157-34-157" id="bR"/>
      <path fill="#333" d="M231 0h-52l-39-155L100 0H48L-1-190h46L77-45c9-52 24-97 36-145h53l37 145 32-145h46" id="bS"/>
      <path fill="#333" d="M24-248c93 1 206-16 204 79-1 75-69 88-152 82V0H24zm52 121c47 0 100 7 100-41 0-47-54-39-100-39z" id="bT"/>
      <path fill="#333" d="M85 4C-2 5 27-109 22-190h50c7 57-23 150 33 157 60-5 35-97 40-157h50l1 190h-47c-2-12 1-28-3-38-12 25-28 42-61 42" id="bU"/>
      <g id="a">
        <use transform="scale(.05556)" xlink:href="#ae"/>
        <use transform="translate(14.389)scale(.05556)" xlink:href="#af"/>
        <use transform="translate(26.556)scale(.05556)" xlink:href="#ag"/>
        <use transform="translate(38.722)scale(.05556)" xlink:href="#ag"/>
        <use transform="translate(50.889)scale(.05556)" xlink:href="#ah"/>
        <use transform="translate(62)scale(.05556)" xlink:href="#ai"/>
      </g>
      <g id="b">
        <use transform="scale(.05556)" xlink:href="#aj"/>
        <use transform="translate(12.167)scale(.05556)" xlink:href="#ak"/>
        <use transform="translate(17.722)scale(.05556)" xlink:href="#al"/>
        <use transform="translate(29.889)scale(.05556)" xlink:href="#ai"/>
        <use transform="translate(37.667)scale(.05556)" xlink:href="#am"/>
        <use transform="translate(48.778)scale(.05556)" xlink:href="#ai"/>
        <use transform="translate(56.556)scale(.05556)" xlink:href="#an"/>
      </g>
      <g id="c">
        <use transform="scale(.05556)" xlink:href="#ao"/>
        <use transform="translate(14.389)scale(.05556)" xlink:href="#ap"/>
        <use transform="translate(25.5)scale(.05556)" xlink:href="#ah"/>
        <use transform="translate(36.611)scale(.05556)" xlink:href="#ai"/>
      </g>
      <g id="d">
        <use transform="scale(.03086)" xlink:href="#aq"/>
        <use transform="translate(3.086)scale(.03086)" xlink:href="#ar"/>
        <use transform="translate(10.494)scale(.03086)" xlink:href="#as"/>
        <use transform="translate(16.667)scale(.03086)" xlink:href="#at"/>
        <use transform="translate(20.34)scale(.03086)" xlink:href="#au"/>
        <use transform="translate(25.895)scale(.03086)" xlink:href="#av"/>
        <use transform="translate(32.068)scale(.03086)" xlink:href="#aw"/>
        <use transform="translate(38.24)scale(.03086)" xlink:href="#ax"/>
      </g>
      <g id="f">
        <use transform="scale(.03704)" xlink:href="#ay"/>
        <use transform="translate(8.889)scale(.03704)" xlink:href="#aw"/>
      </g>
      <g id="g">
        <use transform="scale(.03704)" xlink:href="#az"/>
        <use transform="translate(7.407)scale(.03704)" xlink:href="#aA"/>
        <use transform="translate(14.815)scale(.03704)" xlink:href="#aA"/>
      </g>
      <g id="h">
        <use transform="scale(.03704)" xlink:href="#av"/>
        <use transform="translate(7.407)scale(.03704)" xlink:href="#at"/>
      </g>
      <g id="i">
        <use transform="scale(.03704)" xlink:href="#aB"/>
        <use transform="translate(7.407)scale(.03704)" xlink:href="#az"/>
        <use transform="translate(14.815)scale(.03704)" xlink:href="#aC"/>
        <use transform="translate(25.889)scale(.03704)" xlink:href="#as"/>
      </g>
      <g id="j">
        <use transform="scale(.03704)" xlink:href="#aD"/>
        <use transform="translate(9.593)scale(.03704)" xlink:href="#aE"/>
        <use transform="translate(12.519)scale(.03704)" xlink:href="#aF"/>
        <use transform="translate(16.222)scale(.03704)" xlink:href="#aG"/>
      </g>
      <g id="k">
        <use transform="scale(.03704)" xlink:href="#aF"/>
        <use transform="translate(3.704)scale(.03704)" xlink:href="#aG"/>
        <use transform="translate(11.111)scale(.03704)" xlink:href="#as"/>
      </g>
      <g id="l">
        <use transform="scale(.03704)" xlink:href="#aH"/>
        <use transform="translate(9.593)scale(.03704)" xlink:href="#av"/>
        <use transform="translate(17)scale(.03704)" xlink:href="#aw"/>
        <use transform="translate(24.407)scale(.03704)" xlink:href="#aw"/>
        <use transform="translate(31.815)scale(.03704)" xlink:href="#as"/>
        <use transform="translate(39.222)scale(.03704)" xlink:href="#at"/>
      </g>
      <g id="m">
        <use transform="scale(.03704)" xlink:href="#aI"/>
        <use transform="translate(2.926)scale(.03704)" xlink:href="#aE"/>
        <use transform="translate(5.852)scale(.03704)" xlink:href="#aJ"/>
        <use transform="translate(13.26)scale(.03704)" xlink:href="#at"/>
        <use transform="translate(17.667)scale(.03704)" xlink:href="#az"/>
        <use transform="translate(25.074)scale(.03704)" xlink:href="#at"/>
        <use transform="translate(29.481)scale(.03704)" xlink:href="#aK"/>
      </g>
      <g id="n">
        <use transform="scale(.03704)" xlink:href="#aE"/>
        <use transform="translate(2.926)scale(.03704)" xlink:href="#aw"/>
        <use transform="translate(10.333)scale(.03704)" xlink:href="#aF"/>
        <use transform="translate(14.037)scale(.03704)" xlink:href="#as"/>
        <use transform="translate(21.444)scale(.03704)" xlink:href="#aB"/>
        <use transform="translate(28.852)scale(.03704)" xlink:href="#at"/>
        <use transform="translate(33.26)scale(.03704)" xlink:href="#az"/>
        <use transform="translate(40.667)scale(.03704)" xlink:href="#aF"/>
        <use transform="translate(44.37)scale(.03704)" xlink:href="#as"/>
        <use transform="translate(51.778)scale(.03704)" xlink:href="#aL"/>
        <use transform="translate(59.185)scale(.03704)" xlink:href="#aM"/>
      </g>
      <g id="o">
        <use transform="scale(.05556)" xlink:href="#aN"/>
        <use transform="translate(14.389)scale(.05556)" xlink:href="#aO"/>
        <use transform="translate(25.5)scale(.05556)" xlink:href="#aP"/>
        <use transform="translate(37.667)scale(.05556)" xlink:href="#aQ"/>
        <use transform="translate(49.833)scale(.05556)" xlink:href="#aO"/>
        <use transform="translate(60.944)scale(.05556)" xlink:href="#aR"/>
        <use transform="translate(68.722)scale(.05556)" xlink:href="#aS"/>
        <use transform="translate(74.278)scale(.05556)" xlink:href="#aP"/>
        <use transform="translate(86.444)scale(.05556)" xlink:href="#aT"/>
      </g>
      <g id="p">
        <use transform="scale(.05556)" xlink:href="#aU"/>
        <use transform="translate(12.167)scale(.05556)" xlink:href="#aV"/>
        <use transform="translate(23.278)scale(.05556)" xlink:href="#aW"/>
        <use transform="translate(34.389)scale(.05556)" xlink:href="#aX"/>
        <use transform="translate(45.5)scale(.05556)" xlink:href="#aO"/>
        <use transform="translate(56.611)scale(.05556)" xlink:href="#aP"/>
        <use transform="translate(68.778)scale(.05556)" xlink:href="#aQ"/>
      </g>
      <g id="q">
        <use transform="scale(.03086)" xlink:href="#aY"/>
        <use transform="translate(3.086)scale(.03086)" xlink:href="#aZ"/>
        <use transform="translate(10.494)scale(.03086)" xlink:href="#ba"/>
        <use transform="translate(16.667)scale(.03086)" xlink:href="#bb"/>
        <use transform="translate(19.753)scale(.03086)" xlink:href="#bc"/>
        <use transform="translate(22.84)scale(.03086)" xlink:href="#bd"/>
        <use transform="translate(30.833)scale(.03086)" xlink:href="#be"/>
        <use transform="translate(37.006)scale(.03086)" xlink:href="#bf"/>
        <use transform="translate(40.679)scale(.03086)" xlink:href="#bg"/>
      </g>
      <g id="r">
        <use transform="scale(.03086)" xlink:href="#aZ"/>
        <use transform="translate(7.407)scale(.03086)" xlink:href="#bh"/>
        <use transform="translate(12.963)scale(.03086)" xlink:href="#bi"/>
        <use transform="translate(18.519)scale(.03086)" xlink:href="#bc"/>
        <use transform="translate(21.605)scale(.03086)" xlink:href="#bg"/>
        <use transform="translate(27.778)scale(.03086)" xlink:href="#bj"/>
        <use transform="translate(37.006)scale(.03086)" xlink:href="#bk"/>
      </g>
      <g id="t">
        <use transform="scale(.03704)" xlink:href="#bl"/>
        <use transform="translate(9.593)scale(.03704)" xlink:href="#bm"/>
        <use transform="translate(17)scale(.03704)" xlink:href="#bf"/>
        <use transform="translate(21.407)scale(.03704)" xlink:href="#bf"/>
        <use transform="translate(25.815)scale(.03704)" xlink:href="#bg"/>
        <use transform="translate(33.222)scale(.03704)" xlink:href="#bn"/>
        <use transform="translate(40.63)scale(.03704)" xlink:href="#bc"/>
        <use transform="translate(44.333)scale(.03704)" xlink:href="#bo"/>
        <use transform="translate(47.26)scale(.03704)" xlink:href="#bh"/>
        <use transform="translate(53.926)scale(.03704)" xlink:href="#bp"/>
      </g>
      <g id="u">
        <use transform="scale(.03704)" xlink:href="#aZ"/>
        <use transform="translate(8.889)scale(.03704)" xlink:href="#bq"/>
        <use transform="translate(15.556)scale(.03704)" xlink:href="#br"/>
        <use transform="translate(18.481)scale(.03704)" xlink:href="#be"/>
      </g>
      <g id="v">
        <use transform="scale(.03704)" xlink:href="#bs"/>
        <use transform="translate(6.63)scale(.03704)" xlink:href="#be"/>
        <use transform="translate(14.037)scale(.03704)" xlink:href="#bq"/>
        <use transform="translate(20.704)scale(.03704)" xlink:href="#bg"/>
        <use transform="translate(28.111)scale(.03704)" xlink:href="#bi"/>
      </g>
      <g id="w">
        <use transform="scale(.03704)" xlink:href="#bt"/>
        <use transform="translate(7.407)scale(.03704)" xlink:href="#bf"/>
        <use transform="translate(11.815)scale(.03704)" xlink:href="#be"/>
        <use transform="translate(19.222)scale(.03704)" xlink:href="#bd"/>
      </g>
      <g id="x">
        <use transform="scale(.03704)" xlink:href="#bu"/>
        <use transform="translate(6.667)scale(.03704)" xlink:href="#ba"/>
        <use transform="translate(14.074)scale(.03704)" xlink:href="#bj"/>
        <use transform="translate(25.148)scale(.03704)" xlink:href="#bj"/>
        <use transform="translate(36.222)scale(.03704)" xlink:href="#be"/>
        <use transform="translate(43.63)scale(.03704)" xlink:href="#bn"/>
        <use transform="translate(51.037)scale(.03704)" xlink:href="#bt"/>
        <use transform="translate(58.444)scale(.03704)" xlink:href="#bi"/>
      </g>
      <g id="y">
        <use transform="scale(.03704)" xlink:href="#be"/>
        <use transform="translate(7.407)scale(.03704)" xlink:href="#bn"/>
        <use transform="translate(14.815)scale(.03704)" xlink:href="#bt"/>
      </g>
      <g id="z">
        <use transform="scale(.03704)" xlink:href="#bf"/>
        <use transform="translate(4.407)scale(.03704)" xlink:href="#bg"/>
        <use transform="translate(11.815)scale(.03704)" xlink:href="#bn"/>
        <use transform="translate(19.222)scale(.03704)" xlink:href="#bt"/>
        <use transform="translate(26.63)scale(.03704)" xlink:href="#bg"/>
        <use transform="translate(34.037)scale(.03704)" xlink:href="#bf"/>
        <use transform="translate(38.444)scale(.03704)" xlink:href="#bi"/>
      </g>
      <g id="A">
        <use transform="scale(.03704)" xlink:href="#bc"/>
        <use transform="translate(3.704)scale(.03704)" xlink:href="#bv"/>
        <use transform="translate(11.111)scale(.03704)" xlink:href="#bg"/>
      </g>
      <g id="B">
        <use transform="scale(.03704)" xlink:href="#bb"/>
        <use transform="translate(3.704)scale(.03704)" xlink:href="#br"/>
        <use transform="translate(6.63)scale(.03704)" xlink:href="#bn"/>
        <use transform="translate(14.037)scale(.03704)" xlink:href="#be"/>
        <use transform="translate(21.444)scale(.03704)" xlink:href="#bo"/>
      </g>
      <g id="C">
        <use transform="scale(.03704)" xlink:href="#br"/>
        <use transform="translate(2.926)scale(.03704)" xlink:href="#bj"/>
        <use transform="translate(14)scale(.03704)" xlink:href="#be"/>
        <use transform="translate(21.407)scale(.03704)" xlink:href="#bw"/>
        <use transform="translate(28.815)scale(.03704)" xlink:href="#bg"/>
      </g>
      <g id="D">
        <use transform="scale(.05556)" xlink:href="#bx"/>
        <use transform="translate(14.389)scale(.05556)" xlink:href="#by"/>
        <use transform="translate(26.556)scale(.05556)" xlink:href="#aP"/>
        <use transform="translate(38.722)scale(.05556)" xlink:href="#aP"/>
        <use transform="translate(50.889)scale(.05556)" xlink:href="#aO"/>
        <use transform="translate(62)scale(.05556)" xlink:href="#aR"/>
      </g>
      <g id="E">
        <use transform="scale(.03704)" xlink:href="#bz"/>
        <use transform="translate(8.889)scale(.03704)" xlink:href="#be"/>
        <use transform="translate(16.296)scale(.03704)" xlink:href="#bf"/>
        <use transform="translate(20.704)scale(.03704)" xlink:href="#bi"/>
        <use transform="translate(27.37)scale(.03704)" xlink:href="#bg"/>
        <use transform="translate(34.778)scale(.03704)" xlink:href="#bi"/>
      </g>
      <g id="F">
        <use transform="scale(.03704)" xlink:href="#aZ"/>
        <use transform="translate(8.889)scale(.03704)" xlink:href="#bA"/>
        <use transform="translate(17.778)scale(.03704)" xlink:href="#bB"/>
      </g>
      <g id="G">
        <use transform="scale(.03704)" xlink:href="#bb"/>
        <use transform="translate(3.704)scale(.03704)" xlink:href="#br"/>
        <use transform="translate(6.63)scale(.03704)" xlink:href="#bo"/>
        <use transform="translate(9.556)scale(.03704)" xlink:href="#bg"/>
        <use transform="translate(16.963)scale(.03704)" xlink:href="#bi"/>
        <use transform="translate(23.63)scale(.03704)" xlink:href="#bC"/>
      </g>
      <g id="H">
        <use transform="scale(.03704)" xlink:href="#bg"/>
        <use transform="translate(7.407)scale(.03704)" xlink:href="#bD"/>
        <use transform="translate(14.074)scale(.03704)" xlink:href="#bE"/>
        <use transform="translate(21.481)scale(.03704)" xlink:href="#ba"/>
        <use transform="translate(28.889)scale(.03704)" xlink:href="#bi"/>
        <use transform="translate(35.556)scale(.03704)" xlink:href="#bg"/>
        <use transform="translate(42.963)scale(.03704)" xlink:href="#bi"/>
      </g>
      <g id="I">
        <use transform="scale(.03704)" xlink:href="#aZ"/>
        <use transform="translate(8.889)scale(.03704)" xlink:href="#bA"/>
        <use transform="translate(17.778)scale(.03704)" xlink:href="#bB"/>
      </g>
      <g id="J">
        <use transform="scale(.03704)" xlink:href="#bt"/>
        <use transform="translate(7.407)scale(.03704)" xlink:href="#ba"/>
        <use transform="translate(14.815)scale(.03704)" xlink:href="#bu"/>
        <use transform="translate(21.481)scale(.03704)" xlink:href="#bm"/>
        <use transform="translate(28.889)scale(.03704)" xlink:href="#bj"/>
        <use transform="translate(39.963)scale(.03704)" xlink:href="#bg"/>
        <use transform="translate(47.37)scale(.03704)" xlink:href="#bn"/>
        <use transform="translate(54.778)scale(.03704)" xlink:href="#bc"/>
      </g>
      <g id="K">
        <use transform="scale(.03704)" xlink:href="#bj"/>
        <use transform="translate(11.074)scale(.03704)" xlink:href="#ba"/>
        <use transform="translate(18.481)scale(.03704)" xlink:href="#bt"/>
        <use transform="translate(25.889)scale(.03704)" xlink:href="#bg"/>
        <use transform="translate(33.296)scale(.03704)" xlink:href="#bo"/>
        <use transform="translate(36.222)scale(.03704)" xlink:href="#bC"/>
      </g>
      <g id="L">
        <use transform="scale(.03704)" xlink:href="#bu"/>
        <use transform="translate(6.667)scale(.03704)" xlink:href="#ba"/>
        <use transform="translate(14.074)scale(.03704)" xlink:href="#bj"/>
        <use transform="translate(25.148)scale(.03704)" xlink:href="#bE"/>
        <use transform="translate(32.556)scale(.03704)" xlink:href="#bm"/>
        <use transform="translate(39.963)scale(.03704)" xlink:href="#bc"/>
        <use transform="translate(43.667)scale(.03704)" xlink:href="#bg"/>
        <use transform="translate(51.074)scale(.03704)" xlink:href="#bi"/>
      </g>
      <g id="N">
        <use transform="scale(.03704)" xlink:href="#bf"/>
        <use transform="translate(4.407)scale(.03704)" xlink:href="#bg"/>
        <use transform="translate(11.815)scale(.03704)" xlink:href="#bn"/>
        <use transform="translate(19.222)scale(.03704)" xlink:href="#bt"/>
        <use transform="translate(26.63)scale(.03704)" xlink:href="#bg"/>
        <use transform="translate(34.037)scale(.03704)" xlink:href="#bf"/>
        <use transform="translate(38.444)scale(.03704)" xlink:href="#br"/>
        <use transform="translate(41.37)scale(.03704)" xlink:href="#bn"/>
        <use transform="translate(48.778)scale(.03704)" xlink:href="#bw"/>
      </g>
      <g id="O">
        <use transform="scale(.03704)" xlink:href="#bc"/>
        <use transform="translate(3.704)scale(.03704)" xlink:href="#bf"/>
        <use transform="translate(8.111)scale(.03704)" xlink:href="#bg"/>
        <use transform="translate(15.519)scale(.03704)" xlink:href="#bg"/>
        <use transform="translate(22.926)scale(.03704)" xlink:href="#bF"/>
      </g>
      <g id="P">
        <use transform="scale(.03704)" xlink:href="#bG"/>
        <use transform="translate(8.111)scale(.03704)" xlink:href="#by"/>
        <use transform="translate(16.222)scale(.03704)" xlink:href="#aV"/>
        <use transform="translate(23.63)scale(.03704)" xlink:href="#aQ"/>
        <use transform="translate(31.74)scale(.03704)" xlink:href="#bH"/>
      </g>
      <g id="Q">
        <use transform="scale(.03704)" xlink:href="#bI"/>
        <use transform="translate(8.889)scale(.03704)" xlink:href="#bJ"/>
        <use transform="translate(17.778)scale(.03704)" xlink:href="#bK"/>
      </g>
      <g id="R">
        <use transform="scale(.03704)" xlink:href="#bL"/>
        <use transform="translate(4.407)scale(.03704)" xlink:href="#aS"/>
        <use transform="translate(8.111)scale(.03704)" xlink:href="#bM"/>
        <use transform="translate(11.815)scale(.03704)" xlink:href="#aO"/>
        <use transform="translate(19.222)scale(.03704)" xlink:href="#bH"/>
      </g>
      <g id="S">
        <use transform="scale(.03704)" xlink:href="#aV"/>
        <use transform="translate(7.407)scale(.03704)" xlink:href="#aP"/>
        <use transform="translate(15.519)scale(.03704)" xlink:href="#aQ"/>
      </g>
      <g id="T">
        <use transform="scale(.03704)" xlink:href="#by"/>
        <use transform="translate(8.111)scale(.03704)" xlink:href="#bN"/>
        <use transform="translate(16.222)scale(.03704)" xlink:href="#bO"/>
        <use transform="translate(20.63)scale(.03704)" xlink:href="#aS"/>
        <use transform="translate(24.333)scale(.03704)" xlink:href="#by"/>
        <use transform="translate(32.444)scale(.03704)" xlink:href="#aP"/>
        <use transform="translate(40.556)scale(.03704)" xlink:href="#aV"/>
        <use transform="translate(47.963)scale(.03704)" xlink:href="#bM"/>
        <use transform="translate(51.667)scale(.03704)" xlink:href="#bM"/>
        <use transform="translate(55.37)scale(.03704)" xlink:href="#bP"/>
      </g>
      <g id="U">
        <use transform="scale(.03704)" xlink:href="#bQ"/>
        <use transform="translate(11.852)scale(.03704)" xlink:href="#by"/>
        <use transform="translate(19.963)scale(.03704)" xlink:href="#aQ"/>
        <use transform="translate(28.074)scale(.03704)" xlink:href="#aS"/>
        <use transform="translate(31.778)scale(.03704)" xlink:href="#bL"/>
        <use transform="translate(36.185)scale(.03704)" xlink:href="#aS"/>
        <use transform="translate(39.889)scale(.03704)" xlink:href="#aO"/>
        <use transform="translate(47.296)scale(.03704)" xlink:href="#bH"/>
      </g>
      <g id="V">
        <use transform="scale(.03704)" xlink:href="#bO"/>
        <use transform="translate(4.407)scale(.03704)" xlink:href="#bR"/>
        <use transform="translate(12.519)scale(.03704)" xlink:href="#aO"/>
        <use transform="translate(19.926)scale(.03704)" xlink:href="#aS"/>
        <use transform="translate(23.63)scale(.03704)" xlink:href="#aR"/>
      </g>
      <g id="W">
        <use transform="scale(.03704)" xlink:href="#aW"/>
        <use transform="translate(7.407)scale(.03704)" xlink:href="#by"/>
        <use transform="translate(15.519)scale(.03704)" xlink:href="#aP"/>
        <use transform="translate(23.63)scale(.03704)" xlink:href="#bO"/>
        <use transform="translate(28.037)scale(.03704)" xlink:href="#aO"/>
        <use transform="translate(35.444)scale(.03704)" xlink:href="#aP"/>
        <use transform="translate(43.556)scale(.03704)" xlink:href="#bO"/>
        <use transform="translate(47.963)scale(.03704)" xlink:href="#bH"/>
      </g>
      <g id="X">
        <use transform="scale(.03704)" xlink:href="#bx"/>
        <use transform="translate(9.593)scale(.03704)" xlink:href="#aS"/>
        <use transform="translate(13.296)scale(.03704)" xlink:href="#bH"/>
        <use transform="translate(20.704)scale(.03704)" xlink:href="#bN"/>
        <use transform="translate(28.815)scale(.03704)" xlink:href="#aV"/>
        <use transform="translate(36.222)scale(.03704)" xlink:href="#bO"/>
        <use transform="translate(40.63)scale(.03704)" xlink:href="#aW"/>
        <use transform="translate(48.037)scale(.03704)" xlink:href="#bR"/>
        <use transform="translate(56.148)scale(.03704)" xlink:href="#aO"/>
        <use transform="translate(63.556)scale(.03704)" xlink:href="#bH"/>
      </g>
      <g id="Y">
        <use transform="scale(.03704)" xlink:href="#aQ"/>
        <use transform="translate(8.111)scale(.03704)" xlink:href="#aR"/>
        <use transform="translate(13.296)scale(.03704)" xlink:href="#aV"/>
        <use transform="translate(20.704)scale(.03704)" xlink:href="#bS"/>
      </g>
      <g id="Z">
        <use transform="scale(.03704)" xlink:href="#aW"/>
        <use transform="translate(7.407)scale(.03704)" xlink:href="#aV"/>
        <use transform="translate(14.815)scale(.03704)" xlink:href="#bM"/>
        <use transform="translate(18.519)scale(.03704)" xlink:href="#bM"/>
        <use transform="translate(22.222)scale(.03704)" xlink:href="#bH"/>
      </g>
      <g id="aa">
        <use transform="scale(.03704)" xlink:href="#bT"/>
        <use transform="translate(8.889)scale(.03704)" xlink:href="#aR"/>
        <use transform="translate(14.074)scale(.03704)" xlink:href="#by"/>
        <use transform="translate(22.185)scale(.03704)" xlink:href="#aQ"/>
        <use transform="translate(30.296)scale(.03704)" xlink:href="#bU"/>
        <use transform="translate(38.407)scale(.03704)" xlink:href="#aW"/>
        <use transform="translate(45.815)scale(.03704)" xlink:href="#aO"/>
        <use transform="translate(53.222)scale(.03704)" xlink:href="#bH"/>
      </g>
      <g id="ab">
        <use transform="scale(.03704)" xlink:href="#aR"/>
        <use transform="translate(5.185)scale(.03704)" xlink:href="#aO"/>
        <use transform="translate(12.593)scale(.03704)" xlink:href="#aP"/>
        <use transform="translate(20.704)scale(.03704)" xlink:href="#aQ"/>
        <use transform="translate(28.815)scale(.03704)" xlink:href="#aO"/>
        <use transform="translate(36.222)scale(.03704)" xlink:href="#aR"/>
        <use transform="translate(41.407)scale(.03704)" xlink:href="#aO"/>
        <use transform="translate(48.815)scale(.03704)" xlink:href="#aR"/>
        <use transform="translate(54)scale(.03704)" xlink:href="#aO"/>
        <use transform="translate(61.407)scale(.03704)" xlink:href="#aQ"/>
      </g>
      <g id="ac">
        <use transform="scale(.03704)" xlink:href="#aS"/>
        <use transform="translate(3.704)scale(.03704)" xlink:href="#bQ"/>
        <use transform="translate(15.556)scale(.03704)" xlink:href="#aV"/>
        <use transform="translate(22.963)scale(.03704)" xlink:href="#aT"/>
        <use transform="translate(31.074)scale(.03704)" xlink:href="#aO"/>
      </g>
      <g id="ad">
        <use transform="scale(.03704)" xlink:href="#aU"/>
        <use transform="translate(8.111)scale(.03704)" xlink:href="#bU"/>
        <use transform="translate(16.222)scale(.03704)" xlink:href="#bL"/>
        <use transform="translate(20.63)scale(.03704)" xlink:href="#bL"/>
        <use transform="translate(25.037)scale(.03704)" xlink:href="#aO"/>
        <use transform="translate(32.444)scale(.03704)" xlink:href="#aR"/>
      </g>
      <use transform="scale(.03704)" xlink:href="#be" id="M"/>
    </defs>
  </g>
</svg>
