<svg width="512" height="1828" xmlns="http://www.w3.org/2000/svg">
  <rect x="0" y="0" width="512" height="1828" fill="white" />
  <rect x="0" y="0" width="138.56021602160217" height="128" fill="#FF5733" />
  <rect x="138.56021602160217" y="0" width="43.58739873987399" height="128" fill="#33FF57" />
  <rect x="182.14761476147618" y="0" width="29.351935193519353" height="128" fill="#3357FF" />
  <rect x="211.49954995499553" y="0" width="22.501530153015302" height="128" fill="#FF33A1" />
  <rect x="234.00108010801083" y="0" width="21.146354635463545" height="128" fill="#FF8633" />
  <rect x="255.14743474347438" y="0" width="20.35823582358236" height="128" fill="#33FFD7" />
  <rect x="275.5056705670567" y="0" width="16.65958595859586" height="128" fill="#8333FF" />
  <rect x="292.1652565256526" y="0" width="13.760936093609361" height="128" fill="#FF3381" />
  <rect x="305.92619261926194" y="0" width="13.334293429342935" height="128" fill="#33FF83" />
  <rect x="319.2604860486049" y="0" width="13.264806480648065" height="128" fill="#A133FF" />
  <rect x="332.52529252925297" y="0" width="12.478127812781278" height="128" fill="#FF8333" />
  <rect x="345.00342034203425" y="0" width="11.28964896489649" height="128" fill="#3381FF" />
  <rect x="356.29306930693076" y="0" width="9.485148514851485" height="128" fill="#FF33D7" />
  <rect x="365.7782178217822" y="0" width="9.082628262826283" height="128" fill="#FF5733" />
  <rect x="374.8608460846085" y="0" width="7.5283528352835285" height="128" fill="#33FF57" />
  <rect x="382.38919891989207" y="0" width="7.064266426642664" height="128" fill="#3357FF" />
  <rect x="389.45346534653476" y="0" width="6.946174617461746" height="128" fill="#FF33A1" />
  <rect x="396.3996399639965" y="0" width="6.708910891089109" height="128" fill="#FF8633" />
  <rect x="403.1085508550856" y="0" width="4.67002700270027" height="128" fill="#33FFD7" />
  <rect x="407.7785778577859" y="0" width="4.505850585058506" height="128" fill="#8333FF" />
  <rect x="412.2844284428444" y="0" width="4.463366336633664" height="128" fill="#FF3381" />
  <rect x="416.74779477947806" y="0" width="4.41980198019802" height="128" fill="#33FF83" />
  <rect x="421.1675967596761" y="0" width="4.101530153015301" height="128" fill="#A133FF" />
  <rect x="425.2691269126914" y="0" width="4.073087308730873" height="128" fill="#FF8333" />
  <rect x="429.34221422142224" y="0" width="4.031683168316832" height="128" fill="#3381FF" />
  <rect x="433.37389738973906" y="0" width="3.987398739873987" height="128" fill="#FF33D7" />
  <rect x="437.36129612961304" y="0" width="3.9585958595859587" height="128" fill="#FF5733" />
  <rect x="441.319891989199" y="0" width="3.9553555355535552" height="128" fill="#33FF57" />
  <rect x="445.27524752475256" y="0" width="3.9323132313231324" height="128" fill="#3357FF" />
  <rect x="449.2075607560757" y="0" width="3.8307830783078307" height="128" fill="#FF33A1" />
  <rect x="453.0383438343835" y="0" width="3.7922592259225922" height="128" fill="#FF8633" />
  <rect x="456.8306030603061" y="0" width="3.75013501350135" height="128" fill="#33FFD7" />
  <rect x="460.5807380738074" y="0" width="3.6266426642664267" height="128" fill="#8333FF" />
  <rect x="464.2073807380738" y="0" width="3.5636363636363635" height="128" fill="#FF3381" />
  <rect x="467.7710171017102" y="0" width="3.353375337533753" height="128" fill="#33FF83" />
  <rect x="471.12439243924393" y="0" width="3.209000900090009" height="128" fill="#A133FF" />
  <rect x="474.33339333933395" y="0" width="2.862286228622862" height="128" fill="#FF8333" />
  <rect x="477.1956795679568" y="0" width="2.796039603960396" height="128" fill="#3381FF" />
  <rect x="479.9917191719172" y="0" width="2.7582358235823583" height="128" fill="#FF33D7" />
  <rect x="482.7499549954996" y="0" width="2.5872187218721874" height="128" fill="#FF5733" />
  <rect x="485.3371737173718" y="0" width="2.0838883888388837" height="128" fill="#33FF57" />
  <rect x="487.4210621062107" y="0" width="1.9668766876687669" height="128" fill="#3357FF" />
  <rect x="489.38793879387947" y="0" width="1.8459045904590459" height="128" fill="#FF33A1" />
  <rect x="491.2338433843385" y="0" width="1.476147614761476" height="128" fill="#FF8633" />
  <rect x="492.7099909991" y="0" width="1.302970297029703" height="128" fill="#33FFD7" />
  <rect x="494.01296129612973" y="0" width="1.2982898289828984" height="128" fill="#8333FF" />
  <rect x="495.3112511251126" y="0" width="1.282088208820882" height="128" fill="#FF3381" />
  <rect x="496.5933393339335" y="0" width="1.1546354635463547" height="128" fill="#33FF83" />
  <rect x="497.74797479747986" y="0" width="1.1272727272727272" height="128" fill="#A133FF" />
  <rect x="498.8752475247526" y="0" width="1.118991899189919" height="128" fill="#FF8333" />
  <rect x="499.9942394239425" y="0" width="1.0383438343834384" height="128" fill="#3381FF" />
  <rect x="501.03258325832593" y="0" width="0.9310531053105311" height="128" fill="#FF33D7" />
  <rect x="501.96363636363645" y="0" width="0.906930693069307" height="128" fill="#FF5733" />
  <rect x="502.87056705670574" y="0" width="0.828082808280828" height="128" fill="#33FF57" />
  <rect x="503.6986498649866" y="0" width="0.7125112511251125" height="128" fill="#3357FF" />
  <rect x="504.4111611161117" y="0" width="0.627902790279028" height="128" fill="#FF33A1" />
  <rect x="505.03906390639077" y="0" width="0.6117011701170117" height="128" fill="#FF8633" />
  <rect x="505.65076507650775" y="0" width="0.5821782178217821" height="128" fill="#33FFD7" />
  <rect x="506.2329432943295" y="0" width="0.5227722772277228" height="128" fill="#8333FF" />
  <rect x="506.75571557155723" y="0" width="0.4" height="128" fill="#FF3381" />
  <rect x="507.1557155715572" y="0" width="0.39135913591359134" height="128" fill="#33FF83" />
  <rect x="507.5470747074708" y="0" width="0.38307830783078306" height="128" fill="#A133FF" />
  <rect x="507.9301530153016" y="0" width="0.3503150315031503" height="128" fill="#FF8333" />
  <rect x="508.28046804680474" y="0" width="0.34815481548154814" height="128" fill="#3381FF" />
  <rect x="508.6286228622863" y="0" width="0.33915391539153916" height="128" fill="#FF33D7" />
  <rect x="508.96777677767784" y="0" width="0.3215121512151215" height="128" fill="#FF5733" />
  <rect x="509.289288928893" y="0" width="0.29594959495949597" height="128" fill="#33FF57" />
  <rect x="509.58523852385247" y="0" width="0.28802880288028804" height="128" fill="#3357FF" />
  <rect x="509.87326732673273" y="0" width="0.2502250225022502" height="128" fill="#FF33A1" />
  <rect x="510.123492349235" y="0" width="0.20054005400540054" height="128" fill="#FF8633" />
  <rect x="510.3240324032404" y="0" width="0.19153915391539153" height="128" fill="#33FFD7" />
  <rect x="510.5155715571558" y="0" width="0.1846984698469847" height="128" fill="#8333FF" />
  <rect x="510.7002700270028" y="0" width="0.1630963096309631" height="128" fill="#FF3381" />
  <rect x="510.86336633663376" y="0" width="0.1224122412241224" height="128" fill="#33FF83" />
  <rect x="510.9857785778579" y="0" width="0.11269126912691269" height="128" fill="#A133FF" />
  <rect x="511.0984698469848" y="0" width="0.11089108910891089" height="128" fill="#FF8333" />
  <rect x="511.20936093609373" y="0" width="0.10513051305130514" height="128" fill="#3381FF" />
  <rect x="511.314491449145" y="0" width="0.10261026102610261" height="128" fill="#FF33D7" />
  <rect x="511.4171017101711" y="0" width="0.10117011701170117" height="128" fill="#FF5733" />
  <rect x="511.5182718271828" y="0" width="0.09864986498649865" height="128" fill="#33FF57" />
  <rect x="511.6169216921693" y="0" width="0.09324932493249324" height="128" fill="#3357FF" />
  <rect x="511.7101710171018" y="0" width="0.09180918091809182" height="128" fill="#FF33A1" />
  <rect x="511.8019801980199" y="0" width="0.08280828082808281" height="128" fill="#FF8633" />
  <rect x="511.884788478848" y="0" width="0.058325832583258325" height="128" fill="#33FFD7" />
  <rect x="511.94311431143126" y="0" width="0.05688568856885689" height="128" fill="#8333FF" />
  <rect x="0" y="148" width="20" height="20" fill="#FF5733" />
  <text x="25" y="163" fill="black" font-size="12">Everything else - 375.83 KB</text>
  <rect x="0" y="168" width="20" height="20" fill="#33FF57" />
  <text x="25" y="183" fill="black" font-size="12">__str_find_first_not_of&lt;char, unsigned long, std::__1::char_traits&lt;char&gt;, 18446744073709551615UL&gt; - 118.23 KB</text>
  <rect x="0" y="188" width="20" height="20" fill="#3357FF" />
  <text x="25" y="203" fill="black" font-size="12">__constexpr_memchr&lt;const char, char&gt; - 79.61 KB</text>
  <rect x="0" y="208" width="20" height="20" fill="#FF33A1" />
  <text x="25" y="223" fill="black" font-size="12">__destroy_at&lt;donner::ParseError, 0&gt; - 61.03 KB</text>
  <rect x="0" y="228" width="20" height="20" fill="#FF8633" />
  <text x="25" y="243" fill="black" font-size="12">__construct_at&lt;donner::svg::components::RectComponent *, donner::svg::components::RectComponent **&gt; - 57.36 KB</text>
  <rect x="0" y="248" width="20" height="20" fill="#33FFD7" />
  <text x="25" y="263" fill="black" font-size="12">StartsWith&lt;(donner::StringComparison)0, donner::RcString, std::__1::basic_string_view&lt;char, std::__1::char_traits&lt;char&gt; &gt; &gt; - 55.22 KB</text>
  <rect x="0" y="268" width="20" height="20" fill="#8333FF" />
  <text x="25" y="283" fill="black" font-size="12">isa&lt;donner::svg::SVGUseElement&gt; - 45.19 KB</text>
  <rect x="0" y="288" width="20" height="20" fill="#FF3381" />
  <text x="25" y="303" fill="black" font-size="12">__destroy_at&lt;donner::css::Rule, 0&gt; - 37.33 KB</text>
  <rect x="0" y="308" width="20" height="20" fill="#33FF83" />
  <text x="25" y="323" fill="black" font-size="12">uninitialized_construct_using_allocator&lt;donner::svg::components::ClipPathComponent, std::__1::allocator&lt;donner::svg::components::ClipPathComponent&gt; &gt; - 36.17 KB</text>
  <rect x="0" y="328" width="20" height="20" fill="#A133FF" />
  <text x="25" y="343" fill="black" font-size="12">__set_size - 35.98 KB</text>
  <rect x="0" y="348" width="20" height="20" fill="#FF8333" />
  <text x="25" y="363" fill="black" font-size="12">basic_vtable&lt;donner::xml::components::XMLDocumentContext&gt; - 33.85 KB</text>
  <rect x="0" y="368" width="20" height="20" fill="#3381FF" />
  <text x="25" y="383" fill="black" font-size="12">construct&lt;donner::svg::components::ComputedShadowTreeComponent *, void, void&gt; - 30.62 KB</text>
  <rect x="0" y="388" width="20" height="20" fill="#FF33D7" />
  <text x="25" y="403" fill="black" font-size="12">__construct_at&lt;donner::xml::(anonymous namespace)::XMLNodeTypeComponent *, donner::xml::(anonymous namespace)::XMLNodeTypeComponent **&gt; - 25.73 KB</text>
  <rect x="0" y="408" width="20" height="20" fill="#FF5733" />
  <text x="25" y="423" fill="black" font-size="12">apply&lt;(lambda at external/_main~_repo_rules~entt/src/entt/container/../core - 24.64 KB</text>
  <rect x="0" y="428" width="20" height="20" fill="#33FF57" />
  <text x="25" y="443" fill="black" font-size="12">__construct_at&lt;donner::svg::components::LinearGradientComponent *, donner::svg::components::LinearGradientComponent **&gt; - 20.42 KB</text>
  <rect x="0" y="448" width="20" height="20" fill="#3357FF" />
  <text x="25" y="463" fill="black" font-size="12">__construct_at&lt;donner::svg::components::StylesheetComponent *, donner::svg::components::StylesheetComponent **&gt; - 19.16 KB</text>
  <rect x="0" y="468" width="20" height="20" fill="#FF33A1" />
  <text x="25" y="483" fill="black" font-size="12">operator!=&lt;donner::css::SelectorRule *, donner::css::SelectorRule *&gt; - 18.84 KB</text>
  <rect x="0" y="488" width="20" height="20" fill="#FF8633" />
  <text x="25" y="503" fill="black" font-size="12">__construct_at&lt;donner::svg::components::PathComponent *, donner::svg::components::PathComponent **&gt; - 18.20 KB</text>
  <rect x="0" y="508" width="20" height="20" fill="#33FFD7" />
  <text x="25" y="523" fill="black" font-size="12">equalsIgnoreCase - 12.67 KB</text>
  <rect x="0" y="528" width="20" height="20" fill="#8333FF" />
  <text x="25" y="543" fill="black" font-size="12">holds_alternative&lt;donner::css::Token::CloseParenthesis, donner::css::Token::Ident, donner::css::Token::Function, donner::css::Token::AtKeyword, donner::css::Token::Hash, donner::css::Token::String, donner::css::Token::BadString, donner::css::Token::Url, donner::css::Token::BadUrl, donner::css::Token::Delim, donner::css::Token::Number, donner::css::Token::Percentage, donner::css::Token::Dimension, donner::css::Token::Whitespace, donner::css::Token::CDO, donner::css::Token::CDC, donner::css::Token::Colon, donner::css::Token::Semicolon, donner::css::Token::Comma, donner::css::Token::SquareBracket, donner::css::Token::Parenthesis, donner::css::Token::CurlyBracket, donner::css::Token::CloseSquareBracket, donner::css::Token::CloseParenthesis, donner::css::Token::CloseCurlyBracket, donner::css::Token::ErrorToken, donner::css::Token::EofToken&gt; - 12.22 KB</text>
  <rect x="0" y="548" width="20" height="20" fill="#FF3381" />
  <text x="25" y="563" fill="black" font-size="12">__construct_at&lt;donner::svg::components::MaskComponent *, donner::svg::components::MaskComponent **&gt; - 12.11 KB</text>
  <rect x="0" y="568" width="20" height="20" fill="#33FF83" />
  <text x="25" y="583" fill="black" font-size="12">__construct_at&lt;donner::svg::components::FilterComponent *, donner::svg::components::FilterComponent **&gt; - 11.99 KB</text>
  <rect x="0" y="588" width="20" height="20" fill="#A133FF" />
  <text x="25" y="603" fill="black" font-size="12">__destroy_at&lt;entt::basic_sigh_mixin&lt;entt::basic_storage&lt;donner::svg::components::DoNotInheritFillOrStrokeTag, entt::entity, std::__1::allocator&lt;donner::svg::components::DoNotInheritFillOrStrokeTag&gt;, void&gt;, entt::basic_registry&lt;entt::entity, std::__1::allocator&lt;entt::entity&gt; &gt; &gt;, 0&gt; - 11.12 KB</text>
  <rect x="0" y="608" width="20" height="20" fill="#FF8333" />
  <text x="25" y="623" fill="black" font-size="12">uninitialized_construct_using_allocator&lt;donner::svg::components::PolyComponent, std::__1::allocator&lt;donner::svg::components::PolyComponent&gt;, donner::svg::components::PolyComponent::Type&gt; - 11.05 KB</text>
  <rect x="0" y="628" width="20" height="20" fill="#3381FF" />
  <text x="25" y="643" fill="black" font-size="12">__construct_at&lt;donner::svg::components::ViewboxComponent *, donner::svg::components::ViewboxComponent **&gt; - 10.94 KB</text>
  <rect x="0" y="648" width="20" height="20" fill="#FF33D7" />
  <text x="25" y="663" fill="black" font-size="12">construct&lt;donner::svg::components::ShadowTreeComponent *, void, void&gt; - 10.82 KB</text>
  <rect x="0" y="668" width="20" height="20" fill="#FF5733" />
  <text x="25" y="683" fill="black" font-size="12">__construct_at&lt;donner::svg::components::FEGaussianBlurComponent *, donner::svg::components::FEGaussianBlurComponent **&gt; - 10.74 KB</text>
  <rect x="0" y="688" width="20" height="20" fill="#33FF57" />
  <text x="25" y="703" fill="black" font-size="12">__construct_at&lt;donner::svg::components::RadialGradientComponent *, donner::svg::components::RadialGradientComponent **&gt; - 10.73 KB</text>
  <rect x="0" y="708" width="20" height="20" fill="#3357FF" />
  <text x="25" y="723" fill="black" font-size="12">__construct_at&lt;donner::svg::components::LineComponent *, donner::svg::components::LineComponent **&gt; - 10.67 KB</text>
  <rect x="0" y="728" width="20" height="20" fill="#FF33A1" />
  <text x="25" y="743" fill="black" font-size="12">__construct_at&lt;donner::svg::components::TransformComponent *, donner::svg::components::TransformComponent **&gt; - 10.39 KB</text>
  <rect x="0" y="748" width="20" height="20" fill="#FF8633" />
  <text x="25" y="763" fill="black" font-size="12">__construct_at&lt;donner::svg::components::ImageComponent *, donner::svg::components::ImageComponent **&gt; - 10.29 KB</text>
  <rect x="0" y="768" width="20" height="20" fill="#33FFD7" />
  <text x="25" y="783" fill="black" font-size="12">__construct&lt;const donner::RcString &amp;&gt; - 10.17 KB</text>
  <rect x="0" y="788" width="20" height="20" fill="#8333FF" />
  <text x="25" y="803" fill="black" font-size="12">__construct_at&lt;donner::svg::components::EllipseComponent *, donner::svg::components::EllipseComponent **&gt; - 9.84 KB</text>
  <rect x="0" y="808" width="20" height="20" fill="#FF3381" />
  <text x="25" y="823" fill="black" font-size="12">__construct_at&lt;donner::svg::components::ComputedPathComponent *, donner::svg::components::ComputedPathComponent **&gt; - 9.67 KB</text>
  <rect x="0" y="828" width="20" height="20" fill="#33FF83" />
  <text x="25" y="843" fill="black" font-size="12">__assign_alt&lt;1UL, donner::RcString, donner::RcString&gt; - 9.10 KB</text>
  <rect x="0" y="848" width="20" height="20" fill="#A133FF" />
  <text x="25" y="863" fill="black" font-size="12">__union&lt;11UL, donner::css::Token::Dimension&gt; - 8.70 KB</text>
  <rect x="0" y="868" width="20" height="20" fill="#FF8333" />
  <text x="25" y="883" fill="black" font-size="12">__invoke&lt;(lambda at /PLACEHOLDER_DEVELOPER_DIR/Platforms/MacOSX.platform/Developer/SDKs/MacOSX15.1.sdk/usr/include/c++/v1 - 7.76 KB</text>
  <rect x="0" y="888" width="20" height="20" fill="#3381FF" />
  <text x="25" y="903" fill="black" font-size="12">donner/svg/components/paint - 7.58 KB</text>
  <rect x="0" y="908" width="20" height="20" fill="#FF33D7" />
  <text x="25" y="923" fill="black" font-size="12">__compressed_pair&lt;donner::css::Selector *, std::__1::default_delete&lt;donner::css::Selector&gt; &gt; - 7.48 KB</text>
  <rect x="0" y="928" width="20" height="20" fill="#FF5733" />
  <text x="25" y="943" fill="black" font-size="12">ParseStyleAttribute - 7.02 KB</text>
  <rect x="0" y="948" width="20" height="20" fill="#33FF57" />
  <text x="25" y="963" fill="black" font-size="12">operator()&lt;const std::__1::__variant_detail::__alt&lt;2UL, donner::css::SimpleBlock&gt; &amp;&gt; - 5.65 KB</text>
  <rect x="0" y="968" width="20" height="20" fill="#3357FF" />
  <text x="25" y="983" fill="black" font-size="12">ParsePresentationAttribute&lt;(donner::svg::ElementType)6&gt; - 5.33 KB</text>
  <rect x="0" y="988" width="20" height="20" fill="#FF33A1" />
  <text x="25" y="1003" fill="black" font-size="12">e clang version 16.0.0 (clang-1600.0.26.4) - 5.01 KB</text>
  <rect x="0" y="1008" width="20" height="20" fill="#FF8633" />
  <text x="25" y="1023" fill="black" font-size="12">optional&lt;donner::svg::PreserveAspectRatio, 0&gt; - 4.00 KB</text>
  <rect x="0" y="1028" width="20" height="20" fill="#33FFD7" />
  <text x="25" y="1043" fill="black" font-size="12">ParsePresentationAttribute&lt;(donner::svg::ElementType)19&gt; - 3.53 KB</text>
  <rect x="0" y="1048" width="20" height="20" fill="#8333FF" />
  <text x="25" y="1063" fill="black" font-size="12">_ZNR6donner11ParseResultINSt3__18optionalINS_6LengthIdEEEEE5errorEv.cold.1 - 3.52 KB</text>
  <rect x="0" y="1068" width="20" height="20" fill="#FF3381" />
  <text x="25" y="1083" fill="black" font-size="12">Compare&lt;84, 84&gt; - 3.48 KB</text>
  <rect x="0" y="1088" width="20" height="20" fill="#33FF83" />
  <text x="25" y="1103" fill="black" font-size="12">consumedChars - 3.13 KB</text>
  <rect x="0" y="1108" width="20" height="20" fill="#A133FF" />
  <text x="25" y="1123" fill="black" font-size="12">construct&lt;donner::css::ComplexSelector::Entry, donner::css::ComplexSelector::Entry &amp;, void, void&gt; - 3.06 KB</text>
  <rect x="0" y="1128" width="20" height="20" fill="#FF8333" />
  <text x="25" y="1143" fill="black" font-size="12">Parse&lt;donner::Length&lt;double&gt;, (donner::svg::PropertyCascade)0, (lambda at donner/svg/components/shape - 3.04 KB</text>
  <rect x="0" y="1148" width="20" height="20" fill="#3381FF" />
  <text x="25" y="1163" fill="black" font-size="12">MultiplyStep - 2.82 KB</text>
  <rect x="0" y="1168" width="20" height="20" fill="#FF33D7" />
  <text x="25" y="1183" fill="black" font-size="12">~ComponentValue - 2.53 KB</text>
  <rect x="0" y="1188" width="20" height="20" fill="#FF5733" />
  <text x="25" y="1203" fill="black" font-size="12">__destroy_at&lt;donner::css::ComplexSelector, 0&gt; - 2.46 KB</text>
  <rect x="0" y="1208" width="20" height="20" fill="#33FF57" />
  <text x="25" y="1223" fill="black" font-size="12">swap&lt;donner::Vector2&lt;double&gt; *&gt; - 2.25 KB</text>
  <rect x="0" y="1228" width="20" height="20" fill="#3357FF" />
  <text x="25" y="1243" fill="black" font-size="12">_ZNR6donner11ParseResultINS_3css5ColorEE5errorEv.cold.1 - 1.93 KB</text>
  <rect x="0" y="1248" width="20" height="20" fill="#FF33A1" />
  <text x="25" y="1263" fill="black" font-size="12">optional&lt;donner::parser::IntegerParser::Result, 0&gt; - 1.70 KB</text>
  <rect x="0" y="1268" width="20" height="20" fill="#FF8633" />
  <text x="25" y="1283" fill="black" font-size="12">find&lt;donner::xml::XMLQualifiedName&gt; - 1.66 KB</text>
  <rect x="0" y="1288" width="20" height="20" fill="#33FFD7" />
  <text x="25" y="1303" fill="black" font-size="12">isfinite&lt;double, 0&gt; - 1.58 KB</text>
  <rect x="0" y="1308" width="20" height="20" fill="#8333FF" />
  <text x="25" y="1323" fill="black" font-size="12">__construct_at&lt;donner::svg::components::ComputedStopComponent *, donner::svg::components::ComputedStopComponent **&gt; - 1.42 KB</text>
  <rect x="0" y="1328" width="20" height="20" fill="#FF3381" />
  <text x="25" y="1343" fill="black" font-size="12">operator()&lt;const std::__1::__variant_detail::__alt&lt;4UL, donner::css::PseudoClassSelector&gt; &amp;&gt; - 1.08 KB</text>
  <rect x="0" y="1348" width="20" height="20" fill="#33FF83" />
  <text x="25" y="1363" fill="black" font-size="12">__optional_destruct_base&lt;donner::Box&lt;double&gt; &gt; - 1.06 KB</text>
  <rect x="0" y="1368" width="20" height="20" fill="#A133FF" />
  <text x="25" y="1383" fill="black" font-size="12">IsDigit&lt;16&gt; - 1.04 KB</text>
  <rect x="0" y="1388" width="20" height="20" fill="#FF8333" />
  <text x="25" y="1403" fill="black" font-size="12">__construct_one_at_end&lt;donner::svg::CssTransform::Translate&gt; - 973.00 B</text>
  <rect x="0" y="1408" width="20" height="20" fill="#3381FF" />
  <text x="25" y="1423" fill="black" font-size="12">donner/svg/parser - 967.00 B</text>
  <rect x="0" y="1428" width="20" height="20" fill="#FF33D7" />
  <text x="25" y="1443" fill="black" font-size="12">__emplace_back_slow_path&lt;donner::svg::CssTransform::Translate&gt; - 942.00 B</text>
  <rect x="0" y="1448" width="20" height="20" fill="#FF5733" />
  <text x="25" y="1463" fill="black" font-size="12">_ZN6donner10components13TreeComponent11appendChildERN4entt14basic_registryINS2_6entityENSt3__19allocatorIS4_EEEES4_.cold.1 - 893.00 B</text>
  <rect x="0" y="1468" width="20" height="20" fill="#33FF57" />
  <text x="25" y="1483" fill="black" font-size="12">__union&lt;10UL, donner::css::Token::Dimension&gt; - 822.00 B</text>
  <rect x="0" y="1488" width="20" height="20" fill="#3357FF" />
  <text x="25" y="1503" fill="black" font-size="12">__optional_destruct_base&lt;const donner::LengthUnit &amp;&gt; - 800.00 B</text>
  <rect x="0" y="1508" width="20" height="20" fill="#FF33A1" />
  <text x="25" y="1523" fill="black" font-size="12">find_impl&lt;const frozen::unordered_map&lt;frozen::basic_string&lt;char&gt;, donner::css::Color, 149UL, frozen::elsa&lt;frozen::basic_string&lt;char&gt; &gt;, std::__1::equal_to&lt;frozen::basic_string&lt;char&gt; &gt; &gt; &amp;&gt; - 695.00 B</text>
  <rect x="0" y="1528" width="20" height="20" fill="#FF8633" />
  <text x="25" y="1543" fill="black" font-size="12">donner/svg/components/filter - 557.00 B</text>
  <rect x="0" y="1548" width="20" height="20" fill="#33FFD7" />
  <text x="25" y="1563" fill="black" font-size="12">_ZNR6donner11ParseResultINSt3__117basic_string_viewIcNS1_11char_traitsIcEEEEE5errorEv.cold.1 - 532.00 B</text>
  <rect x="0" y="1568" width="20" height="20" fill="#8333FF" />
  <text x="25" y="1583" fill="black" font-size="12">donner/svg/components/resources - 513.00 B</text>
  <rect x="0" y="1588" width="20" height="20" fill="#FF3381" />
  <text x="25" y="1603" fill="black" font-size="12">__construct_at&lt;std::__1::pair&lt;const donner::RcString, donner::svg::parser::UnparsedProperty&gt;, std::__1::pair&lt;donner::RcString, donner::svg::parser::UnparsedProperty&gt;, std::__1::pair&lt;const donner::RcString, donner::svg::parser::UnparsedProperty&gt; *&gt; - 453.00 B</text>
  <rect x="0" y="1608" width="20" height="20" fill="#33FF83" />
  <text x="25" y="1623" fill="black" font-size="12">construct&lt;std::__1::pair&lt;const donner::RcString, donner::svg::parser::UnparsedProperty&gt;, std::__1::pair&lt;donner::RcString, donner::svg::parser::UnparsedProperty&gt;, void, void&gt; - 340.00 B</text>
  <rect x="0" y="1628" width="20" height="20" fill="#A133FF" />
  <text x="25" y="1643" fill="black" font-size="12">ClipPathComponent - 313.00 B</text>
  <rect x="0" y="1648" width="20" height="20" fill="#FF8333" />
  <text x="25" y="1663" fill="black" font-size="12">operator()&lt;std::__1::__variant_detail::__alt&lt;4UL, donner::svg::PaintServer::ElementReference&gt;, std::__1::__variant_detail::__alt&lt;4UL, donner::svg::PaintServer::ElementReference&gt; &gt; - 308.00 B</text>
  <rect x="0" y="1668" width="20" height="20" fill="#3381FF" />
  <text x="25" y="1683" fill="black" font-size="12">_ZNR6donner11ParseResultINS_3svg12CssTransformEE5errorEv.cold.1 - 292.00 B</text>
  <rect x="0" y="1688" width="20" height="20" fill="#FF33D7" />
  <text x="25" y="1703" fill="black" font-size="12">__compressed_pair_elem&lt;std::__1::__hash_node_destructor&lt;std::__1::allocator&lt;std::__1::__hash_node&lt;std::__1::__hash_value_type&lt;donner::RcString, entt::entity&gt;, void *&gt; &gt; &gt;, void&gt; - 285.00 B</text>
  <rect x="0" y="1708" width="20" height="20" fill="#FF5733" />
  <text x="25" y="1723" fill="black" font-size="12">donner/css - 281.00 B</text>
  <rect x="0" y="1728" width="20" height="20" fill="#33FF57" />
  <text x="25" y="1743" fill="black" font-size="12">__construct_at&lt;donner::RcString, const donner::RcString &amp;, donner::RcString *&gt; - 274.00 B</text>
  <rect x="0" y="1748" width="20" height="20" fill="#3357FF" />
  <text x="25" y="1763" fill="black" font-size="12">optional&lt;donner::svg::parser::Number2dParser::Result, 0&gt; - 259.00 B</text>
  <rect x="0" y="1768" width="20" height="20" fill="#FF33A1" />
  <text x="25" y="1783" fill="black" font-size="12">try_get&lt;donner::svg::components::StylesheetComponent&gt; - 255.00 B</text>
  <rect x="0" y="1788" width="20" height="20" fill="#FF8633" />
  <text x="25" y="1803" fill="black" font-size="12">__uninitialized_allocator_move_if_noexcept&lt;std::__1::allocator&lt;donner::css::SelectorRule&gt;, std::__1::reverse_iterator&lt;donner::css::SelectorRule *&gt;, std::__1::reverse_iterator&lt;donner::css::SelectorRule *&gt;, std::__1::reverse_iterator&lt;donner::css::SelectorRule *&gt; &gt; - 230.00 B</text>
  <rect x="0" y="1808" width="20" height="20" fill="#33FFD7" />
  <text x="25" y="1823" fill="black" font-size="12">ConsumeDigits&lt;16, unsigned long long&gt; - 162.00 B</text>
  <rect x="0" y="1828" width="20" height="20" fill="#8333FF" />
  <text x="25" y="1843" fill="black" font-size="12">__construct_at&lt;donner::svg::components::ComputedShadowTreeComponent *, donner::svg::components::ComputedShadowTreeComponent **&gt; - 158.00 B</text>
</svg>
