<svg width="512" height="528" xmlns="http://www.w3.org/2000/svg">
  <rect x="0" y="0" width="512" height="528" fill="white" />
  <rect x="0" y="0" width="186.31166134700325" height="128" fill="#FF5733" />
  <rect x="186.31166134700325" y="0" width="147.75814553309476" height="128" fill="#33FF57" />
  <rect x="334.069806880098" y="0" width="49.63430376890093" height="128" fill="#3357FF" />
  <rect x="383.7041106489989" y="0" width="49.025192636296225" height="128" fill="#FF33A1" />
  <rect x="432.72930328529515" y="0" width="35.306573814359865" height="128" fill="#FF8633" />
  <rect x="468.035877099655" y="0" width="8.724402746880743" height="128" fill="#33FFD7" />
  <rect x="476.76027984653575" y="0" width="8.414482380629977" height="128" fill="#8333FF" />
  <rect x="485.17476222716573" y="0" width="7.358854821549473" height="128" fill="#FF3381" />
  <rect x="492.5336170487152" y="0" width="5.522442531514976" height="128" fill="#33FF83" />
  <rect x="498.05605958023017" y="0" width="2.724905696875907" height="128" fill="#A133FF" />
  <rect x="500.7809652771061" y="0" width="2.0171647806041846" height="128" fill="#FF8333" />
  <rect x="502.79813005771024" y="0" width="1.983325273237257" height="128" fill="#3381FF" />
  <rect x="504.7814553309475" y="0" width="1.8054615211013316" height="128" fill="#FF33D7" />
  <rect x="506.58691685204883" y="0" width="1.750575490859851" height="128" fill="#FF5733" />
  <rect x="508.33749234290866" y="0" width="1.3771028790663185" height="128" fill="#33FF57" />
  <rect x="509.714595221975" y="0" width="1.1567334042621789" height="128" fill="#3357FF" />
  <rect x="510.8713286262372" y="0" width="0.6363478092658864" height="128" fill="#FF33A1" />
  <rect x="511.5076764355031" y="0" width="0.2641132282296805" height="128" fill="#FF8633" />
  <rect x="511.77178966373276" y="0" width="0.1704355675919657" height="128" fill="#33FFD7" />
  <rect x="511.9422252313247" y="0" width="0.05777476867524261" height="128" fill="#8333FF" />
  <rect x="0" y="148" width="20" height="20" fill="#FF5733" />
  <text x="25" y="163" fill="black" font-size="12">donner/svg - 440.89 KB</text>
  <rect x="0" y="168" width="20" height="20" fill="#33FF57" />
  <text x="25" y="183" fill="black" font-size="12">Everything else - 349.66 KB</text>
  <rect x="0" y="188" width="20" height="20" fill="#3357FF" />
  <text x="25" y="203" fill="black" font-size="12">donner/css/parser - 117.46 KB</text>
  <rect x="0" y="208" width="20" height="20" fill="#FF33A1" />
  <text x="25" y="223" fill="black" font-size="12">donner/svg/properties - 116.01 KB</text>
  <rect x="0" y="228" width="20" height="20" fill="#FF8633" />
  <text x="25" y="243" fill="black" font-size="12">donner/svg/xml - 83.55 KB</text>
  <rect x="0" y="248" width="20" height="20" fill="#33FFD7" />
  <text x="25" y="263" fill="black" font-size="12">donner/svg/components - 20.65 KB</text>
  <rect x="0" y="268" width="20" height="20" fill="#8333FF" />
  <text x="25" y="283" fill="black" font-size="12">donner/css/parser/details - 19.91 KB</text>
  <rect x="0" y="288" width="20" height="20" fill="#FF3381" />
  <text x="25" y="303" fill="black" font-size="12">donner/svg/parser - 17.41 KB</text>
  <rect x="0" y="308" width="20" height="20" fill="#33FF83" />
  <text x="25" y="323" fill="black" font-size="12">donner/svg/components/shape - 13.07 KB</text>
  <rect x="0" y="328" width="20" height="20" fill="#A133FF" />
  <text x="25" y="343" fill="black" font-size="12">external/abseil-cpp~/absl/strings/internal - 6.45 KB</text>
  <rect x="0" y="348" width="20" height="20" fill="#FF8333" />
  <text x="25" y="363" fill="black" font-size="12">donner/css - 4.77 KB</text>
  <rect x="0" y="368" width="20" height="20" fill="#3381FF" />
  <text x="25" y="383" fill="black" font-size="12">donner/svg/components/layout - 4.69 KB</text>
  <rect x="0" y="388" width="20" height="20" fill="#FF33D7" />
  <text x="25" y="403" fill="black" font-size="12">donner/svg/components/paint - 4.27 KB</text>
  <rect x="0" y="408" width="20" height="20" fill="#FF5733" />
  <text x="25" y="423" fill="black" font-size="12">donner/css/selectors - 4.14 KB</text>
  <rect x="0" y="428" width="20" height="20" fill="#33FF57" />
  <text x="25" y="443" fill="black" font-size="12">external/abseil-cpp~/absl/strings - 3.26 KB</text>
  <rect x="0" y="448" width="20" height="20" fill="#3357FF" />
  <text x="25" y="463" fill="black" font-size="12">donner/base/parser - 2.74 KB</text>
  <rect x="0" y="468" width="20" height="20" fill="#FF33A1" />
  <text x="25" y="483" fill="black" font-size="12">donner/base/parser/details - 1.51 KB</text>
  <rect x="0" y="488" width="20" height="20" fill="#FF8633" />
  <text x="25" y="503" fill="black" font-size="12">donner/svg/components/filter - 640.00 B</text>
  <rect x="0" y="508" width="20" height="20" fill="#33FFD7" />
  <text x="25" y="523" fill="black" font-size="12">donner/svg/registry - 413.00 B</text>
  <rect x="0" y="528" width="20" height="20" fill="#8333FF" />
  <text x="25" y="543" fill="black" font-size="12">donner/svg/components/resources - 140.00 B</text>
</svg>
