<svg width="512" height="1768" xmlns="http://www.w3.org/2000/svg">
  <rect x="0" y="0" width="512" height="1768" fill="white" />
  <rect x="0" y="0" width="133.516990979747" height="128" fill="#FF5733" />
  <rect x="133.516990979747" y="0" width="43.955840472003175" height="128" fill="#33FF57" />
  <rect x="177.47283145175015" y="0" width="29.606217734157827" height="128" fill="#3357FF" />
  <rect x="207.079049185908" y="0" width="23.739944403471945" height="128" fill="#FF33A1" />
  <rect x="230.81899358937994" y="0" width="21.325103534350713" height="128" fill="#FF8633" />
  <rect x="252.14409712373066" y="0" width="20.530322800249618" height="128" fill="#33FFD7" />
  <rect x="272.6744199239803" y="0" width="16.80040846428774" height="128" fill="#8333FF" />
  <rect x="289.474828388268" y="0" width="13.87725648153401" height="128" fill="#FF3381" />
  <rect x="303.352084869802" y="0" width="13.62999943268849" height="128" fill="#33FF83" />
  <rect x="316.9820843024905" y="0" width="13.447007431780792" height="128" fill="#A133FF" />
  <rect x="330.42909173427125" y="0" width="12.571986157599138" height="128" fill="#FF8333" />
  <rect x="343.0010778918704" y="0" width="11.385079707267261" height="128" fill="#3381FF" />
  <rect x="354.3861575991377" y="0" width="9.575492142735577" height="128" fill="#FF33D7" />
  <rect x="363.96164974187326" y="0" width="9.15940318829069" height="128" fill="#FF5733" />
  <rect x="373.12105293016396" y="0" width="7.612685085380383" height="128" fill="#33FF57" />
  <rect x="380.73373801554436" y="0" width="7.5919895614682025" height="128" fill="#3357FF" />
  <rect x="388.3257275770126" y="0" width="7.123980257559426" height="128" fill="#FF33A1" />
  <rect x="395.449707834572" y="0" width="7.001985590287627" height="128" fill="#FF8633" />
  <rect x="402.4516934248596" y="0" width="6.765620922448517" height="128" fill="#33FFD7" />
  <rect x="409.21731434730816" y="0" width="4.709502467805072" height="128" fill="#8333FF" />
  <rect x="413.9268168151132" y="0" width="4.54393827650763" height="128" fill="#FF3381" />
  <rect x="418.47075509162084" y="0" width="4.501094911215748" height="128" fill="#33FF83" />
  <rect x="422.9718500028366" y="0" width="4.457162307823226" height="128" fill="#A133FF" />
  <rect x="427.42901231065986" y="0" width="4.136200147500992" height="128" fill="#FF8333" />
  <rect x="431.56521245816083" y="0" width="4.107516877517445" height="128" fill="#3381FF" />
  <rect x="435.6727293356783" y="0" width="4.065762750326204" height="128" fill="#FF33D7" />
  <rect x="439.7384920860045" y="0" width="3.9920576388494924" height="128" fill="#FF5733" />
  <rect x="443.730549724854" y="0" width="3.988789924547569" height="128" fill="#33FF57" />
  <rect x="447.71933964940155" y="0" width="3.9655528450672266" height="128" fill="#3357FF" />
  <rect x="451.6848924944688" y="0" width="3.8631644636069664" height="128" fill="#FF33A1" />
  <rect x="455.54805695807573" y="0" width="3.824314971350769" height="128" fill="#FF8633" />
  <rect x="459.3723719294265" y="0" width="3.781834685425767" height="128" fill="#33FFD7" />
  <rect x="463.1542066148523" y="0" width="3.657298462585806" height="128" fill="#8333FF" />
  <rect x="466.8115050774381" y="0" width="3.593759573381744" height="128" fill="#FF3381" />
  <rect x="470.40526465081984" y="0" width="3.381721223123617" height="128" fill="#33FF83" />
  <rect x="473.7869858739435" y="0" width="3.236126397004595" height="128" fill="#A133FF" />
  <rect x="477.02311227094805" y="0" width="2.8864809666988145" height="128" fill="#FF8333" />
  <rect x="479.90959323764685" y="0" width="2.819674363192829" height="128" fill="#3381FF" />
  <rect x="482.72926760083965" y="0" width="2.781551029670392" height="128" fill="#FF33D7" />
  <rect x="485.51081863051" y="0" width="2.6090883304022237" height="128" fill="#FF5733" />
  <rect x="488.11990696091226" y="0" width="2.101503375503489" height="128" fill="#33FF57" />
  <rect x="490.2214103364158" y="0" width="1.9835025812673739" height="128" fill="#3357FF" />
  <rect x="492.20491291768315" y="0" width="1.861507913995575" height="128" fill="#FF33A1" />
  <rect x="494.0664208316787" y="0" width="1.4886254042094513" height="128" fill="#FF8633" />
  <rect x="495.5550462358882" y="0" width="1.3139842287400012" height="128" fill="#33FFD7" />
  <rect x="496.8690304646282" y="0" width="1.3092641969705565" height="128" fill="#8333FF" />
  <rect x="498.1782946615988" y="0" width="1.1368014977023884" height="128" fill="#FF3381" />
  <rect x="499.31509615930116" y="0" width="1.1342599421342259" height="128" fill="#33FF83" />
  <rect x="500.4493561014354" y="0" width="0.9389232427525954" height="128" fill="#A133FF" />
  <rect x="501.388279344188" y="0" width="0.9145969251716117" height="128" fill="#FF8333" />
  <rect x="502.3028762693596" y="0" width="0.8350825438248142" height="128" fill="#3381FF" />
  <rect x="503.1379588131844" y="0" width="0.7185340670562206" height="128" fill="#FF33D7" />
  <rect x="503.85649288024064" y="0" width="0.7090940035173313" height="128" fill="#FF5733" />
  <rect x="504.565586883758" y="0" width="0.637930447608782" height="128" fill="#33FF57" />
  <rect x="505.20351733136675" y="0" width="0.6332104158393373" height="128" fill="#3357FF" />
  <rect x="505.8367277472061" y="0" width="0.6168718443297214" height="128" fill="#FF33A1" />
  <rect x="506.4535995915358" y="0" width="0.527191240710274" height="128" fill="#FF8633" />
  <rect x="506.9807908322461" y="0" width="0.4033811766040733" height="128" fill="#33FFD7" />
  <rect x="507.38417200885016" y="0" width="0.3946672717989448" height="128" fill="#8333FF" />
  <rect x="507.7788392806491" y="0" width="0.3863164463606967" height="128" fill="#FF3381" />
  <rect x="508.1651557270098" y="0" width="0.35327622397458447" height="128" fill="#33FF83" />
  <rect x="508.5184319509844" y="0" width="0.3510977477733023" height="128" fill="#A133FF" />
  <rect x="508.8695296987577" y="0" width="0.34202076360129346" height="128" fill="#FF8333" />
  <rect x="509.21155046235896" y="0" width="0.32422987462415614" height="128" fill="#3381FF" />
  <rect x="509.5357803369831" y="0" width="0.298451239575651" height="128" fill="#FF33D7" />
  <rect x="509.83423157655875" y="0" width="0.25234015998184606" height="128" fill="#FF5733" />
  <rect x="510.0865717365406" y="0" width="0.20223520735235717" height="128" fill="#33FF57" />
  <rect x="510.28880694389295" y="0" width="0.19315822318034834" height="128" fill="#3357FF" />
  <rect x="510.4819651670733" y="0" width="0.1862597152096216" height="128" fill="#FF33A1" />
  <rect x="510.66822488228297" y="0" width="0.16447495319680036" height="128" fill="#FF8633" />
  <rect x="510.8326998354798" y="0" width="0.12344698473932036" height="128" fill="#33FFD7" />
  <rect x="510.9561468202191" y="0" width="0.11364384183355081" height="128" fill="#8333FF" />
  <rect x="511.06979066205264" y="0" width="0.11182844499914903" height="128" fill="#FF3381" />
  <rect x="511.1816191070518" y="0" width="0.10601917512906336" height="128" fill="#33FF83" />
  <rect x="511.28763828218086" y="0" width="0.10347761956090089" height="128" fill="#A133FF" />
  <rect x="511.3911159017418" y="0" width="0.10202530209337947" height="128" fill="#FF8333" />
  <rect x="511.49314120383514" y="0" width="0.09948374652521699" height="128" fill="#3381FF" />
  <rect x="511.59262495036035" y="0" width="0.09403755602201169" height="128" fill="#FF33D7" />
  <rect x="511.68666250638233" y="0" width="0.09258523855449027" height="128" fill="#FF5733" />
  <rect x="511.7792477449368" y="0" width="0.08350825438248143" height="128" fill="#33FF57" />
  <rect x="511.8627559993193" y="0" width="0.07987746071367788" height="128" fill="#3357FF" />
  <rect x="511.942633460033" y="0" width="0.05736653996709593" height="128" fill="#FF33A1" />
  <rect x="0" y="148" width="20" height="20" fill="#FF5733" />
  <text x="25" y="163" fill="black" font-size="12">Everything else - 359.12 KB</text>
  <rect x="0" y="168" width="20" height="20" fill="#33FF57" />
  <text x="25" y="183" fill="black" font-size="12">__str_find_first_not_of&lt;char, unsigned long, std::__1::char_traits&lt;char&gt;, 18446744073709551615UL&gt; - 118.23 KB</text>
  <rect x="0" y="188" width="20" height="20" fill="#3357FF" />
  <text x="25" y="203" fill="black" font-size="12">__constexpr_memchr&lt;const char, char&gt; - 79.63 KB</text>
  <rect x="0" y="208" width="20" height="20" fill="#FF33A1" />
  <text x="25" y="223" fill="black" font-size="12">__destroy_at&lt;donner::ParseError, 0&gt; - 63.85 KB</text>
  <rect x="0" y="228" width="20" height="20" fill="#FF8633" />
  <text x="25" y="243" fill="black" font-size="12">__construct_at&lt;donner::svg::components::RectComponent *, donner::svg::components::RectComponent **&gt; - 57.36 KB</text>
  <rect x="0" y="248" width="20" height="20" fill="#33FFD7" />
  <text x="25" y="263" fill="black" font-size="12">StartsWith&lt;(donner::StringComparison)0, donner::RcString, std::__1::basic_string_view&lt;char, std::__1::char_traits&lt;char&gt; &gt; &gt; - 55.22 KB</text>
  <rect x="0" y="268" width="20" height="20" fill="#8333FF" />
  <text x="25" y="283" fill="black" font-size="12">isa&lt;donner::svg::SVGUseElement&gt; - 45.19 KB</text>
  <rect x="0" y="288" width="20" height="20" fill="#FF3381" />
  <text x="25" y="303" fill="black" font-size="12">__destroy_at&lt;donner::css::Rule, 0&gt; - 37.33 KB</text>
  <rect x="0" y="308" width="20" height="20" fill="#33FF83" />
  <text x="25" y="323" fill="black" font-size="12">__set_size - 36.66 KB</text>
  <rect x="0" y="328" width="20" height="20" fill="#A133FF" />
  <text x="25" y="343" fill="black" font-size="12">uninitialized_construct_using_allocator&lt;donner::svg::components::ClipPathComponent, std::__1::allocator&lt;donner::svg::components::ClipPathComponent&gt; &gt; - 36.17 KB</text>
  <rect x="0" y="348" width="20" height="20" fill="#FF8333" />
  <text x="25" y="363" fill="black" font-size="12">basic_vtable&lt;donner::xml::components::XMLDocumentContext&gt; - 33.81 KB</text>
  <rect x="0" y="368" width="20" height="20" fill="#3381FF" />
  <text x="25" y="383" fill="black" font-size="12">construct&lt;donner::svg::components::ComputedShadowTreeComponent *, void, void&gt; - 30.62 KB</text>
  <rect x="0" y="388" width="20" height="20" fill="#FF33D7" />
  <text x="25" y="403" fill="black" font-size="12">__construct_at&lt;donner::xml::(anonymous namespace)::XMLNodeTypeComponent *, donner::xml::(anonymous namespace)::XMLNodeTypeComponent **&gt; - 25.75 KB</text>
  <rect x="0" y="408" width="20" height="20" fill="#FF5733" />
  <text x="25" y="423" fill="black" font-size="12">apply&lt;(lambda at external/+_repo_rules3+entt/src/entt/container/../core - 24.64 KB</text>
  <rect x="0" y="428" width="20" height="20" fill="#33FF57" />
  <text x="25" y="443" fill="black" font-size="12">construct&lt;donner::svg::components::ShadowTreeComponent *, void, void&gt; - 20.48 KB</text>
  <rect x="0" y="448" width="20" height="20" fill="#3357FF" />
  <text x="25" y="463" fill="black" font-size="12">__construct_at&lt;donner::svg::components::LinearGradientComponent *, donner::svg::components::LinearGradientComponent **&gt; - 20.42 KB</text>
  <rect x="0" y="468" width="20" height="20" fill="#FF33A1" />
  <text x="25" y="483" fill="black" font-size="12">__construct_at&lt;donner::svg::components::StylesheetComponent *, donner::svg::components::StylesheetComponent **&gt; - 19.16 KB</text>
  <rect x="0" y="488" width="20" height="20" fill="#FF8633" />
  <text x="25" y="503" fill="black" font-size="12">operator!=&lt;donner::css::SelectorRule *, donner::css::SelectorRule *&gt; - 18.83 KB</text>
  <rect x="0" y="508" width="20" height="20" fill="#33FFD7" />
  <text x="25" y="523" fill="black" font-size="12">__construct_at&lt;donner::svg::components::PathComponent *, donner::svg::components::PathComponent **&gt; - 18.20 KB</text>
  <rect x="0" y="528" width="20" height="20" fill="#8333FF" />
  <text x="25" y="543" fill="black" font-size="12">equalsIgnoreCase - 12.67 KB</text>
  <rect x="0" y="548" width="20" height="20" fill="#FF3381" />
  <text x="25" y="563" fill="black" font-size="12">holds_alternative&lt;donner::css::Token::CloseParenthesis, donner::css::Token::Ident, donner::css::Token::Function, donner::css::Token::AtKeyword, donner::css::Token::Hash, donner::css::Token::String, donner::css::Token::BadString, donner::css::Token::Url, donner::css::Token::BadUrl, donner::css::Token::Delim, donner::css::Token::Number, donner::css::Token::Percentage, donner::css::Token::Dimension, donner::css::Token::Whitespace, donner::css::Token::CDO, donner::css::Token::CDC, donner::css::Token::Colon, donner::css::Token::Semicolon, donner::css::Token::Comma, donner::css::Token::SquareBracket, donner::css::Token::Parenthesis, donner::css::Token::CurlyBracket, donner::css::Token::CloseSquareBracket, donner::css::Token::CloseParenthesis, donner::css::Token::CloseCurlyBracket, donner::css::Token::ErrorToken, donner::css::Token::EofToken&gt; - 12.22 KB</text>
  <rect x="0" y="568" width="20" height="20" fill="#33FF83" />
  <text x="25" y="583" fill="black" font-size="12">__construct_at&lt;donner::svg::components::MaskComponent *, donner::svg::components::MaskComponent **&gt; - 12.11 KB</text>
  <rect x="0" y="588" width="20" height="20" fill="#A133FF" />
  <text x="25" y="603" fill="black" font-size="12">__construct_at&lt;donner::svg::components::FilterComponent *, donner::svg::components::FilterComponent **&gt; - 11.99 KB</text>
  <rect x="0" y="608" width="20" height="20" fill="#FF8333" />
  <text x="25" y="623" fill="black" font-size="12">__destroy_at&lt;entt::basic_sigh_mixin&lt;entt::basic_storage&lt;donner::svg::components::DoNotInheritFillOrStrokeTag, entt::entity, std::__1::allocator&lt;donner::svg::components::DoNotInheritFillOrStrokeTag&gt;, void&gt;, entt::basic_registry&lt;entt::entity, std::__1::allocator&lt;entt::entity&gt; &gt; &gt;, 0&gt; - 11.12 KB</text>
  <rect x="0" y="628" width="20" height="20" fill="#3381FF" />
  <text x="25" y="643" fill="black" font-size="12">uninitialized_construct_using_allocator&lt;donner::svg::components::PolyComponent, std::__1::allocator&lt;donner::svg::components::PolyComponent&gt;, donner::svg::components::PolyComponent::Type&gt; - 11.05 KB</text>
  <rect x="0" y="648" width="20" height="20" fill="#FF33D7" />
  <text x="25" y="663" fill="black" font-size="12">__construct_at&lt;donner::svg::components::ViewboxComponent *, donner::svg::components::ViewboxComponent **&gt; - 10.94 KB</text>
  <rect x="0" y="668" width="20" height="20" fill="#FF5733" />
  <text x="25" y="683" fill="black" font-size="12">__construct_at&lt;donner::svg::components::FEGaussianBlurComponent *, donner::svg::components::FEGaussianBlurComponent **&gt; - 10.74 KB</text>
  <rect x="0" y="688" width="20" height="20" fill="#33FF57" />
  <text x="25" y="703" fill="black" font-size="12">__construct_at&lt;donner::svg::components::RadialGradientComponent *, donner::svg::components::RadialGradientComponent **&gt; - 10.73 KB</text>
  <rect x="0" y="708" width="20" height="20" fill="#3357FF" />
  <text x="25" y="723" fill="black" font-size="12">__construct_at&lt;donner::svg::components::LineComponent *, donner::svg::components::LineComponent **&gt; - 10.67 KB</text>
  <rect x="0" y="728" width="20" height="20" fill="#FF33A1" />
  <text x="25" y="743" fill="black" font-size="12">__construct_at&lt;donner::svg::components::TransformComponent *, donner::svg::components::TransformComponent **&gt; - 10.39 KB</text>
  <rect x="0" y="748" width="20" height="20" fill="#FF8633" />
  <text x="25" y="763" fill="black" font-size="12">__construct_at&lt;donner::svg::components::ImageComponent *, donner::svg::components::ImageComponent **&gt; - 10.29 KB</text>
  <rect x="0" y="768" width="20" height="20" fill="#33FFD7" />
  <text x="25" y="783" fill="black" font-size="12">__construct&lt;const donner::RcString &amp;&gt; - 10.17 KB</text>
  <rect x="0" y="788" width="20" height="20" fill="#8333FF" />
  <text x="25" y="803" fill="black" font-size="12">__construct_at&lt;donner::svg::components::EllipseComponent *, donner::svg::components::EllipseComponent **&gt; - 9.84 KB</text>
  <rect x="0" y="808" width="20" height="20" fill="#FF3381" />
  <text x="25" y="823" fill="black" font-size="12">__construct_at&lt;donner::svg::components::ComputedPathComponent *, donner::svg::components::ComputedPathComponent **&gt; - 9.67 KB</text>
  <rect x="0" y="828" width="20" height="20" fill="#33FF83" />
  <text x="25" y="843" fill="black" font-size="12">__assign_alt&lt;1UL, donner::RcString, donner::RcString&gt; - 9.10 KB</text>
  <rect x="0" y="848" width="20" height="20" fill="#A133FF" />
  <text x="25" y="863" fill="black" font-size="12">__union&lt;11UL, donner::css::Token::Dimension&gt; - 8.70 KB</text>
  <rect x="0" y="868" width="20" height="20" fill="#FF8333" />
  <text x="25" y="883" fill="black" font-size="12">__invoke&lt;(lambda at /PLACEHOLDER_DEVELOPER_DIR/Platforms/MacOSX.platform/Developer/SDKs/MacOSX15.2.sdk/usr/include/c++/v1 - 7.76 KB</text>
  <rect x="0" y="888" width="20" height="20" fill="#3381FF" />
  <text x="25" y="903" fill="black" font-size="12">donner/svg/components/paint - 7.58 KB</text>
  <rect x="0" y="908" width="20" height="20" fill="#FF33D7" />
  <text x="25" y="923" fill="black" font-size="12">__compressed_pair&lt;donner::css::Selector *, std::__1::default_delete&lt;donner::css::Selector&gt; &gt; - 7.48 KB</text>
  <rect x="0" y="928" width="20" height="20" fill="#FF5733" />
  <text x="25" y="943" fill="black" font-size="12">ParseStyleAttribute - 7.02 KB</text>
  <rect x="0" y="948" width="20" height="20" fill="#33FF57" />
  <text x="25" y="963" fill="black" font-size="12">operator()&lt;const std::__1::__variant_detail::__alt&lt;2UL, donner::css::SimpleBlock&gt; &amp;&gt; - 5.65 KB</text>
  <rect x="0" y="968" width="20" height="20" fill="#3357FF" />
  <text x="25" y="983" fill="black" font-size="12">ParsePresentationAttribute&lt;(donner::svg::ElementType)6&gt; - 5.33 KB</text>
  <rect x="0" y="988" width="20" height="20" fill="#FF33A1" />
  <text x="25" y="1003" fill="black" font-size="12">e clang version 16.0.0 (clang-1600.0.26.6) - 5.01 KB</text>
  <rect x="0" y="1008" width="20" height="20" fill="#FF8633" />
  <text x="25" y="1023" fill="black" font-size="12">optional&lt;donner::svg::PreserveAspectRatio, 0&gt; - 4.00 KB</text>
  <rect x="0" y="1028" width="20" height="20" fill="#33FFD7" />
  <text x="25" y="1043" fill="black" font-size="12">ParsePresentationAttribute&lt;(donner::svg::ElementType)19&gt; - 3.53 KB</text>
  <rect x="0" y="1048" width="20" height="20" fill="#8333FF" />
  <text x="25" y="1063" fill="black" font-size="12">_ZNR6donner11ParseResultINSt3__18optionalINS_6LengthIdEEEEE5errorEv.cold.1 - 3.52 KB</text>
  <rect x="0" y="1068" width="20" height="20" fill="#FF3381" />
  <text x="25" y="1083" fill="black" font-size="12">construct&lt;donner::css::ComplexSelector::Entry, donner::css::ComplexSelector::Entry &amp;, void, void&gt; - 3.06 KB</text>
  <rect x="0" y="1088" width="20" height="20" fill="#33FF83" />
  <text x="25" y="1103" fill="black" font-size="12">Parse&lt;donner::Length&lt;double&gt;, (donner::svg::PropertyCascade)0, (lambda at donner/svg/components/shape - 3.05 KB</text>
  <rect x="0" y="1108" width="20" height="20" fill="#A133FF" />
  <text x="25" y="1123" fill="black" font-size="12">~ComponentValue - 2.53 KB</text>
  <rect x="0" y="1128" width="20" height="20" fill="#FF8333" />
  <text x="25" y="1143" fill="black" font-size="12">__destroy_at&lt;donner::css::ComplexSelector, 0&gt; - 2.46 KB</text>
  <rect x="0" y="1148" width="20" height="20" fill="#3381FF" />
  <text x="25" y="1163" fill="black" font-size="12">swap&lt;donner::Vector2&lt;double&gt; *&gt; - 2.25 KB</text>
  <rect x="0" y="1168" width="20" height="20" fill="#FF33D7" />
  <text x="25" y="1183" fill="black" font-size="12">_ZNR6donner11ParseResultINS_3css5ColorEE5errorEv.cold.1 - 1.93 KB</text>
  <rect x="0" y="1188" width="20" height="20" fill="#FF5733" />
  <text x="25" y="1203" fill="black" font-size="12">__optional_destruct_base&lt;const donner::LengthUnit &amp;&gt; - 1.91 KB</text>
  <rect x="0" y="1208" width="20" height="20" fill="#33FF57" />
  <text x="25" y="1223" fill="black" font-size="12">ConvertMantissaAndExponent - 1.72 KB</text>
  <rect x="0" y="1228" width="20" height="20" fill="#3357FF" />
  <text x="25" y="1243" fill="black" font-size="12">optional&lt;donner::parser::IntegerParser::Result, 0&gt; - 1.70 KB</text>
  <rect x="0" y="1248" width="20" height="20" fill="#FF33A1" />
  <text x="25" y="1263" fill="black" font-size="12">find&lt;donner::xml::XMLQualifiedName&gt; - 1.66 KB</text>
  <rect x="0" y="1268" width="20" height="20" fill="#FF8633" />
  <text x="25" y="1283" fill="black" font-size="12">__construct_at&lt;donner::svg::components::ComputedStopComponent *, donner::svg::components::ComputedStopComponent **&gt; - 1.42 KB</text>
  <rect x="0" y="1288" width="20" height="20" fill="#33FFD7" />
  <text x="25" y="1303" fill="black" font-size="12">operator()&lt;const std::__1::__variant_detail::__alt&lt;4UL, donner::css::PseudoClassSelector&gt; &amp;&gt; - 1.08 KB</text>
  <rect x="0" y="1308" width="20" height="20" fill="#8333FF" />
  <text x="25" y="1323" fill="black" font-size="12">__optional_destruct_base&lt;donner::Box&lt;double&gt; &gt; - 1.06 KB</text>
  <rect x="0" y="1328" width="20" height="20" fill="#FF3381" />
  <text x="25" y="1343" fill="black" font-size="12">consumedChars - 1.04 KB</text>
  <rect x="0" y="1348" width="20" height="20" fill="#33FF83" />
  <text x="25" y="1363" fill="black" font-size="12">__construct_one_at_end&lt;donner::svg::CssTransform::Translate&gt; - 973.00 B</text>
  <rect x="0" y="1368" width="20" height="20" fill="#A133FF" />
  <text x="25" y="1383" fill="black" font-size="12">donner/svg/parser - 967.00 B</text>
  <rect x="0" y="1388" width="20" height="20" fill="#FF8333" />
  <text x="25" y="1403" fill="black" font-size="12">__emplace_back_slow_path&lt;donner::svg::CssTransform::Translate&gt; - 942.00 B</text>
  <rect x="0" y="1408" width="20" height="20" fill="#3381FF" />
  <text x="25" y="1423" fill="black" font-size="12">_ZN6donner10components13TreeComponent11appendChildERN4entt14basic_registryINS2_6entityENSt3__19allocatorIS4_EEEES4_.cold.1 - 893.00 B</text>
  <rect x="0" y="1428" width="20" height="20" fill="#FF33D7" />
  <text x="25" y="1443" fill="black" font-size="12">__union&lt;10UL, donner::css::Token::Dimension&gt; - 822.00 B</text>
  <rect x="0" y="1448" width="20" height="20" fill="#FF5733" />
  <text x="25" y="1463" fill="black" font-size="12">find_impl&lt;const frozen::unordered_map&lt;frozen::basic_string&lt;char&gt;, donner::css::Color, 149UL, frozen::elsa&lt;frozen::basic_string&lt;char&gt; &gt;, std::__1::equal_to&lt;frozen::basic_string&lt;char&gt; &gt; &gt; &amp;&gt; - 695.00 B</text>
  <rect x="0" y="1468" width="20" height="20" fill="#33FF57" />
  <text x="25" y="1483" fill="black" font-size="12">donner/svg/components/filter - 557.00 B</text>
  <rect x="0" y="1488" width="20" height="20" fill="#3357FF" />
  <text x="25" y="1503" fill="black" font-size="12">_ZNR6donner11ParseResultINSt3__117basic_string_viewIcNS1_11char_traitsIcEEEEE5errorEv.cold.1 - 532.00 B</text>
  <rect x="0" y="1508" width="20" height="20" fill="#FF33A1" />
  <text x="25" y="1523" fill="black" font-size="12">invalidateComputed - 513.00 B</text>
  <rect x="0" y="1528" width="20" height="20" fill="#FF8633" />
  <text x="25" y="1543" fill="black" font-size="12">__construct_at&lt;std::__1::pair&lt;const donner::RcString, donner::svg::parser::UnparsedProperty&gt;, std::__1::pair&lt;donner::RcString, donner::svg::parser::UnparsedProperty&gt;, std::__1::pair&lt;const donner::RcString, donner::svg::parser::UnparsedProperty&gt; *&gt; - 453.00 B</text>
  <rect x="0" y="1548" width="20" height="20" fill="#33FFD7" />
  <text x="25" y="1563" fill="black" font-size="12">construct&lt;std::__1::pair&lt;const donner::RcString, donner::svg::parser::UnparsedProperty&gt;, std::__1::pair&lt;donner::RcString, donner::svg::parser::UnparsedProperty&gt;, void, void&gt; - 340.00 B</text>
  <rect x="0" y="1568" width="20" height="20" fill="#8333FF" />
  <text x="25" y="1583" fill="black" font-size="12">ClipPathComponent - 313.00 B</text>
  <rect x="0" y="1588" width="20" height="20" fill="#FF3381" />
  <text x="25" y="1603" fill="black" font-size="12">operator()&lt;std::__1::__variant_detail::__alt&lt;4UL, donner::svg::PaintServer::ElementReference&gt;, std::__1::__variant_detail::__alt&lt;4UL, donner::svg::PaintServer::ElementReference&gt; &gt; - 308.00 B</text>
  <rect x="0" y="1608" width="20" height="20" fill="#33FF83" />
  <text x="25" y="1623" fill="black" font-size="12">_ZNR6donner11ParseResultINS_3svg12CssTransformEE5errorEv.cold.1 - 292.00 B</text>
  <rect x="0" y="1628" width="20" height="20" fill="#A133FF" />
  <text x="25" y="1643" fill="black" font-size="12">__compressed_pair_elem&lt;std::__1::__hash_node_destructor&lt;std::__1::allocator&lt;std::__1::__hash_node&lt;std::__1::__hash_value_type&lt;donner::RcString, entt::entity&gt;, void *&gt; &gt; &gt;, void&gt; - 285.00 B</text>
  <rect x="0" y="1648" width="20" height="20" fill="#FF8333" />
  <text x="25" y="1663" fill="black" font-size="12">donner/css - 281.00 B</text>
  <rect x="0" y="1668" width="20" height="20" fill="#3381FF" />
  <text x="25" y="1683" fill="black" font-size="12">__construct_at&lt;donner::RcString, const donner::RcString &amp;, donner::RcString *&gt; - 274.00 B</text>
  <rect x="0" y="1688" width="20" height="20" fill="#FF33D7" />
  <text x="25" y="1703" fill="black" font-size="12">optional&lt;donner::svg::parser::Number2dParser::Result, 0&gt; - 259.00 B</text>
  <rect x="0" y="1708" width="20" height="20" fill="#FF5733" />
  <text x="25" y="1723" fill="black" font-size="12">try_get&lt;donner::svg::components::StylesheetComponent&gt; - 255.00 B</text>
  <rect x="0" y="1728" width="20" height="20" fill="#33FF57" />
  <text x="25" y="1743" fill="black" font-size="12">__uninitialized_allocator_move_if_noexcept&lt;std::__1::allocator&lt;donner::css::SelectorRule&gt;, std::__1::reverse_iterator&lt;donner::css::SelectorRule *&gt;, std::__1::reverse_iterator&lt;donner::css::SelectorRule *&gt;, std::__1::reverse_iterator&lt;donner::css::SelectorRule *&gt; &gt; - 230.00 B</text>
  <rect x="0" y="1748" width="20" height="20" fill="#3357FF" />
  <text x="25" y="1763" fill="black" font-size="12">donner/svg/components/resources - 220.00 B</text>
  <rect x="0" y="1768" width="20" height="20" fill="#FF33A1" />
  <text x="25" y="1783" fill="black" font-size="12">__construct_at&lt;donner::svg::components::ComputedShadowTreeComponent *, donner::svg::components::ComputedShadowTreeComponent **&gt; - 158.00 B</text>
</svg>
